<?xml version="1.0" encoding="UTF-8"?>
<svg xmlns="http://www.w3.org/2000/svg" xmlns:xlink="http://www.w3.org/1999/xlink" width="166.719pt" height="85.513pt" viewBox="0 0 166.719 85.513"><style>svg{color:#4c4f69}@media(prefers-color-scheme:dark){svg{color:#cdd6f4}}</style>
<defs>
<g>
<g id="glyph-0-0">
<path d="M 6.109375 -6.03125 C 6.109375 -6.390625 6.125 -6.5 6.890625 -6.5 L 7.140625 -6.5 L 7.140625 -6.8125 C 6.78125 -6.78125 6.046875 -6.78125 5.671875 -6.78125 C 5.296875 -6.78125 4.546875 -6.78125 4.203125 -6.8125 L 4.203125 -6.5 L 4.4375 -6.5 C 5.203125 -6.5 5.21875 -6.390625 5.21875 -6.03125 L 5.21875 -3.703125 L 2.25 -3.703125 L 2.25 -6.03125 C 2.25 -6.390625 2.265625 -6.5 3.03125 -6.5 L 3.265625 -6.5 L 3.265625 -6.8125 C 2.921875 -6.78125 2.1875 -6.78125 1.796875 -6.78125 C 1.421875 -6.78125 0.671875 -6.78125 0.328125 -6.8125 L 0.328125 -6.5 L 0.5625 -6.5 C 1.328125 -6.5 1.359375 -6.390625 1.359375 -6.03125 L 1.359375 -0.78125 C 1.359375 -0.421875 1.328125 -0.3125 0.5625 -0.3125 L 0.328125 -0.3125 L 0.328125 0 C 0.671875 -0.03125 1.421875 -0.03125 1.796875 -0.03125 C 2.171875 -0.03125 2.921875 -0.03125 3.265625 0 L 3.265625 -0.3125 L 3.03125 -0.3125 C 2.265625 -0.3125 2.25 -0.421875 2.25 -0.78125 L 2.25 -3.390625 L 5.21875 -3.390625 L 5.21875 -0.78125 C 5.21875 -0.421875 5.203125 -0.3125 4.4375 -0.3125 L 4.203125 -0.3125 L 4.203125 0 C 4.546875 -0.03125 5.28125 -0.03125 5.65625 -0.03125 C 6.046875 -0.03125 6.78125 -0.03125 7.140625 0 L 7.140625 -0.3125 L 6.890625 -0.3125 C 6.125 -0.3125 6.109375 -0.421875 6.109375 -0.78125 Z M 6.109375 -6.03125 "/>
</g>
<g id="glyph-0-1">
<path d="M 7.1875 -3.375 C 7.1875 -5.40625 5.6875 -7.03125 3.875 -7.03125 C 2.078125 -7.03125 0.5625 -5.4375 0.5625 -3.375 C 0.5625 -1.328125 2.09375 0.21875 3.875 0.21875 C 5.6875 0.21875 7.1875 -1.359375 7.1875 -3.375 Z M 3.875 -0.046875 C 2.921875 -0.046875 1.578125 -0.921875 1.578125 -3.515625 C 1.578125 -6.09375 3.046875 -6.78125 3.875 -6.78125 C 4.734375 -6.78125 6.15625 -6.078125 6.15625 -3.515625 C 6.15625 -0.875 4.796875 -0.046875 3.875 -0.046875 Z M 3.875 -0.046875 "/>
</g>
<g id="glyph-0-2">
<path d="M 2.3125 -6.671875 C 2.21875 -6.796875 2.21875 -6.8125 2.03125 -6.8125 L 0.328125 -6.8125 L 0.328125 -6.5 L 0.625 -6.5 C 0.765625 -6.5 0.96875 -6.484375 1.109375 -6.484375 C 1.34375 -6.453125 1.359375 -6.4375 1.359375 -6.25 L 1.359375 -1.046875 C 1.359375 -0.78125 1.359375 -0.3125 0.328125 -0.3125 L 0.328125 0 C 0.671875 -0.015625 1.171875 -0.03125 1.5 -0.03125 C 1.828125 -0.03125 2.3125 -0.015625 2.65625 0 L 2.65625 -0.3125 C 1.640625 -0.3125 1.640625 -0.78125 1.640625 -1.046875 L 1.640625 -6.234375 C 1.6875 -6.1875 1.6875 -6.171875 1.734375 -6.109375 L 5.796875 -0.125 C 5.890625 -0.015625 5.90625 0 5.96875 0 C 6.109375 0 6.109375 -0.0625 6.109375 -0.265625 L 6.109375 -5.765625 C 6.109375 -6.03125 6.109375 -6.5 7.140625 -6.5 L 7.140625 -6.8125 C 6.78125 -6.796875 6.296875 -6.78125 5.96875 -6.78125 C 5.640625 -6.78125 5.15625 -6.796875 4.8125 -6.8125 L 4.8125 -6.5 C 5.828125 -6.5 5.828125 -6.03125 5.828125 -5.765625 L 5.828125 -1.5 Z M 2.3125 -6.671875 "/>
</g>
</g>
<clipPath id="clip-0">
<path clip-rule="nonzero" d="M 7 56 L 47 56 L 47 85.511719 L 7 85.511719 Z M 7 56 "/>
</clipPath>
<clipPath id="clip-1">
<path clip-rule="nonzero" d="M 23 56 L 68 56 L 68 85.511719 L 23 85.511719 Z M 23 56 "/>
</clipPath>
<clipPath id="clip-2">
<path clip-rule="nonzero" d="M 45 56 L 90 56 L 90 85.511719 L 45 85.511719 Z M 45 56 "/>
</clipPath>
<clipPath id="clip-3">
<path clip-rule="nonzero" d="M 136 22 L 166.71875 22 L 166.71875 55 L 136 55 Z M 136 22 "/>
</clipPath>
</defs>
<g fill="currentColor" fill-opacity="1">
<use xlink:href="#glyph-0-0" x="1.993" y="83.52"/>
</g>
<g fill="currentColor" fill-opacity="1">
<use xlink:href="#glyph-0-1" x="9.465" y="83.52"/>
</g>
<g clip-path="url(#clip-0)">
<path fill="none" stroke-width="0.79701" stroke-linecap="butt" stroke-linejoin="miter" stroke="currentColor" stroke-opacity="1" stroke-miterlimit="10" d="M 13.2085 6.637188 L 29.181156 15.855938 " transform="matrix(1, 0, 0, -1, 5.729, 83.52)"/>
</g>
<path fill="none" stroke-width="0.3985" stroke-linecap="butt" stroke-linejoin="miter" stroke="currentColor" stroke-opacity="1" stroke-miterlimit="10" d="M 66.92725 28.309063 C 66.92725 37.246563 59.685063 44.48875 50.751469 44.48875 C 41.813969 44.48875 34.571781 37.246563 34.571781 28.309063 C 34.571781 19.375469 41.813969 12.133281 50.751469 12.133281 C 59.685063 12.133281 66.92725 19.375469 66.92725 28.309063 " transform="matrix(1, 0, 0, -1, 5.729, 83.52)"/>
<g clip-path="url(#clip-1)">
<path fill="none" stroke-width="0.79701" stroke-linecap="butt" stroke-linejoin="miter" stroke="currentColor" stroke-opacity="1" stroke-miterlimit="10" d="M 29.181156 15.855938 L 50.751469 3.402813 " transform="matrix(1, 0, 0, -1, 5.729, 83.52)"/>
</g>
<g clip-path="url(#clip-2)">
<path fill="none" stroke-width="0.79701" stroke-linecap="butt" stroke-linejoin="miter" stroke="currentColor" stroke-opacity="1" stroke-miterlimit="10" d="M 50.751469 3.402813 L 72.321781 15.855938 " transform="matrix(1, 0, 0, -1, 5.729, 83.52)"/>
</g>
<path fill="none" stroke-width="0.79701" stroke-linecap="butt" stroke-linejoin="miter" stroke="currentColor" stroke-opacity="1" stroke-miterlimit="10" d="M 72.321781 15.855938 L 72.321781 40.766094 " transform="matrix(1, 0, 0, -1, 5.729, 83.52)"/>
<path fill="none" stroke-width="0.79701" stroke-linecap="butt" stroke-linejoin="miter" stroke="currentColor" stroke-opacity="1" stroke-miterlimit="10" d="M 72.321781 40.766094 L 93.892094 53.219219 " transform="matrix(1, 0, 0, -1, 5.729, 83.52)"/>
<g fill="currentColor" fill-opacity="1">
<use xlink:href="#glyph-0-1" x="95.744" y="8.8"/>
</g>
<g fill="currentColor" fill-opacity="1">
<use xlink:href="#glyph-0-0" x="103.493" y="8.8"/>
</g>
<path fill-rule="nonzero" fill="currentColor" fill-opacity="1" stroke-width="0.79701" stroke-linecap="butt" stroke-linejoin="miter" stroke="currentColor" stroke-opacity="1" stroke-miterlimit="10" d="M 94.091313 53.219219 L 93.692875 53.219219 L 92.396 72.727031 L 95.384281 72.727031 Z M 94.091313 53.219219 " transform="matrix(1, 0, 0, -1, 5.729, 83.52)"/>
<path fill="none" stroke-width="0.79701" stroke-linecap="butt" stroke-linejoin="miter" stroke="currentColor" stroke-opacity="1" stroke-miterlimit="10" d="M 93.892094 53.219219 L 115.462406 40.766094 " transform="matrix(1, 0, 0, -1, 5.729, 83.52)"/>
<g fill="currentColor" fill-opacity="1">
<use xlink:href="#glyph-0-2" x="139.022" y="33.707"/>
</g>
<path fill="none" stroke-width="0.79701" stroke-linecap="butt" stroke-linejoin="miter" stroke="currentColor" stroke-opacity="1" stroke-miterlimit="10" d="M 115.462406 40.766094 L 131.567875 50.062969 " transform="matrix(1, 0, 0, -1, 5.729, 83.52)"/>
<g fill="currentColor" fill-opacity="1">
<use xlink:href="#glyph-0-0" x="139.022" y="8.8"/>
</g>
<path fill="none" stroke-width="0.79701" stroke-linecap="butt" stroke-linejoin="miter" stroke="currentColor" stroke-opacity="1" stroke-miterlimit="10" d="M 137.032719 58.61375 L 137.032719 72.727031 " transform="matrix(1, 0, 0, -1, 5.729, 83.52)"/>
<g clip-path="url(#clip-3)">
<path fill="none" stroke-width="0.79701" stroke-linecap="butt" stroke-linejoin="miter" stroke="currentColor" stroke-opacity="1" stroke-miterlimit="10" d="M 142.493656 50.062969 L 158.603031 40.766094 " transform="matrix(1, 0, 0, -1, 5.729, 83.52)"/>
</g>
<path fill="none" stroke-width="0.79701" stroke-linecap="butt" stroke-linejoin="miter" stroke="currentColor" stroke-opacity="1" stroke-miterlimit="10" d="M 72.321781 40.766094 L 50.751469 53.219219 " transform="matrix(1, 0, 0, -1, 5.729, 83.52)"/>
<path fill="none" stroke-width="0.79701" stroke-linecap="butt" stroke-linejoin="miter" stroke="currentColor" stroke-opacity="1" stroke-miterlimit="10" d="M 50.751469 53.219219 L 29.181156 40.766094 " transform="matrix(1, 0, 0, -1, 5.729, 83.52)"/>
<g fill="currentColor" fill-opacity="1">
<use xlink:href="#glyph-0-1" x="9.465" y="33.707"/>
</g>
<path fill="none" stroke-width="0.79701" stroke-linecap="butt" stroke-linejoin="miter" stroke="currentColor" stroke-opacity="1" stroke-miterlimit="10" d="M 29.181156 40.766094 L 13.2085 49.984844 " transform="matrix(1, 0, 0, -1, 5.729, 83.52)"/>
<g fill="currentColor" fill-opacity="1">
<use xlink:href="#glyph-0-0" x="1.993" y="33.707"/>
</g>
<path fill="none" stroke-width="0.79701" stroke-linecap="butt" stroke-linejoin="miter" stroke="currentColor" stroke-opacity="1" stroke-miterlimit="10" d="M 29.181156 40.766094 L 29.181156 15.855938 " transform="matrix(1, 0, 0, -1, 5.729, 83.52)"/>
</svg>
