<?xml version="1.0" encoding="UTF-8"?>
<svg xmlns="http://www.w3.org/2000/svg" xmlns:xlink="http://www.w3.org/1999/xlink" width="47.922pt" height="54.595pt" viewBox="0 0 47.922 54.595"><style>svg{color:#4c4f69}@media(prefers-color-scheme:dark){svg{color:#cdd6f4}}</style>
<defs>
<clipPath id="clip-0">
<path clip-rule="nonzero" d="M 0 28 L 36 28 L 36 54.59375 L 0 54.59375 Z M 0 28 "/>
</clipPath>
<clipPath id="clip-1">
<path clip-rule="nonzero" d="M 12 28 L 47.921875 28 L 47.921875 54.59375 L 12 54.59375 Z M 12 28 "/>
</clipPath>
<clipPath id="clip-2">
<path clip-rule="nonzero" d="M 12 0 L 47.921875 0 L 47.921875 27 L 12 27 Z M 12 0 "/>
</clipPath>
</defs>
<path fill="none" stroke-width="0.3985" stroke-linecap="butt" stroke-linejoin="miter" stroke="currentColor" stroke-opacity="1" stroke-miterlimit="10" d="M 37.749625 12.454125 C 37.749625 21.387719 30.503531 28.629906 21.569938 28.629906 C 12.636344 28.629906 5.39025 21.387719 5.39025 12.454125 C 5.39025 3.516625 12.636344 -3.725562 21.569938 -3.725562 C 30.503531 -3.725562 37.749625 3.516625 37.749625 12.454125 " transform="matrix(1, 0, 0, -1, 2.391, 39.751)"/>
<g clip-path="url(#clip-0)">
<path fill="none" stroke-width="0.79701" stroke-linecap="butt" stroke-linejoin="miter" stroke="currentColor" stroke-opacity="1" stroke-miterlimit="10" d="M -0.000375 0.001 L 21.569938 -12.452125 " transform="matrix(1, 0, 0, -1, 2.391, 39.751)"/>
</g>
<g clip-path="url(#clip-1)">
<path fill="none" stroke-width="0.79701" stroke-linecap="butt" stroke-linejoin="miter" stroke="currentColor" stroke-opacity="1" stroke-miterlimit="10" d="M 21.569938 -12.452125 L 43.14025 0.001 " transform="matrix(1, 0, 0, -1, 2.391, 39.751)"/>
</g>
<path fill="none" stroke-width="0.79701" stroke-linecap="butt" stroke-linejoin="miter" stroke="currentColor" stroke-opacity="1" stroke-miterlimit="10" d="M 43.14025 0.001 L 43.14025 24.90725 " transform="matrix(1, 0, 0, -1, 2.391, 39.751)"/>
<g clip-path="url(#clip-2)">
<path fill="none" stroke-width="0.79701" stroke-linecap="butt" stroke-linejoin="miter" stroke="currentColor" stroke-opacity="1" stroke-miterlimit="10" d="M 43.14025 24.90725 L 21.569938 37.360375 " transform="matrix(1, 0, 0, -1, 2.391, 39.751)"/>
</g>
<path fill="none" stroke-width="0.79701" stroke-linecap="butt" stroke-linejoin="miter" stroke="currentColor" stroke-opacity="1" stroke-miterlimit="10" d="M 21.569938 37.360375 L -0.000375 24.90725 " transform="matrix(1, 0, 0, -1, 2.391, 39.751)"/>
<path fill="none" stroke-width="0.79701" stroke-linecap="butt" stroke-linejoin="miter" stroke="currentColor" stroke-opacity="1" stroke-miterlimit="10" d="M -0.000375 24.90725 L -0.000375 0.001 " transform="matrix(1, 0, 0, -1, 2.391, 39.751)"/>
</svg>
