<?xml version="1.0" encoding="UTF-8"?>
<svg xmlns="http://www.w3.org/2000/svg" xmlns:xlink="http://www.w3.org/1999/xlink" width="121.939pt" height="58.348pt" viewBox="0 0 121.939 58.348"><style>svg{color:#4c4f69}@media(prefers-color-scheme:dark){svg{color:#cdd6f4}}</style>
<defs>
<g>
<g id="glyph-0-0">
<path d="M 2.3125 -6.671875 C 2.21875 -6.796875 2.21875 -6.8125 2.03125 -6.8125 L 0.328125 -6.8125 L 0.328125 -6.5 L 0.625 -6.5 C 0.765625 -6.5 0.96875 -6.484375 1.109375 -6.484375 C 1.34375 -6.453125 1.359375 -6.4375 1.359375 -6.25 L 1.359375 -1.046875 C 1.359375 -0.78125 1.359375 -0.3125 0.328125 -0.3125 L 0.328125 0 C 0.671875 -0.015625 1.171875 -0.03125 1.5 -0.03125 C 1.828125 -0.03125 2.3125 -0.015625 2.65625 0 L 2.65625 -0.3125 C 1.640625 -0.3125 1.640625 -0.78125 1.640625 -1.046875 L 1.640625 -6.234375 C 1.6875 -6.1875 1.6875 -6.171875 1.734375 -6.109375 L 5.796875 -0.125 C 5.890625 -0.015625 5.90625 0 5.96875 0 C 6.109375 0 6.109375 -0.0625 6.109375 -0.265625 L 6.109375 -5.765625 C 6.109375 -6.03125 6.109375 -6.5 7.140625 -6.5 L 7.140625 -6.8125 C 6.78125 -6.796875 6.296875 -6.78125 5.96875 -6.78125 C 5.640625 -6.78125 5.15625 -6.796875 4.8125 -6.8125 L 4.8125 -6.5 C 5.828125 -6.5 5.828125 -6.03125 5.828125 -5.765625 L 5.828125 -1.5 Z M 2.3125 -6.671875 "/>
</g>
<g id="glyph-0-1">
<path d="M 6.109375 -6.03125 C 6.109375 -6.390625 6.125 -6.5 6.890625 -6.5 L 7.140625 -6.5 L 7.140625 -6.8125 C 6.78125 -6.78125 6.046875 -6.78125 5.671875 -6.78125 C 5.296875 -6.78125 4.546875 -6.78125 4.203125 -6.8125 L 4.203125 -6.5 L 4.4375 -6.5 C 5.203125 -6.5 5.21875 -6.390625 5.21875 -6.03125 L 5.21875 -3.703125 L 2.25 -3.703125 L 2.25 -6.03125 C 2.25 -6.390625 2.265625 -6.5 3.03125 -6.5 L 3.265625 -6.5 L 3.265625 -6.8125 C 2.921875 -6.78125 2.1875 -6.78125 1.796875 -6.78125 C 1.421875 -6.78125 0.671875 -6.78125 0.328125 -6.8125 L 0.328125 -6.5 L 0.5625 -6.5 C 1.328125 -6.5 1.359375 -6.390625 1.359375 -6.03125 L 1.359375 -0.78125 C 1.359375 -0.421875 1.328125 -0.3125 0.5625 -0.3125 L 0.328125 -0.3125 L 0.328125 0 C 0.671875 -0.03125 1.421875 -0.03125 1.796875 -0.03125 C 2.171875 -0.03125 2.921875 -0.03125 3.265625 0 L 3.265625 -0.3125 L 3.03125 -0.3125 C 2.265625 -0.3125 2.25 -0.421875 2.25 -0.78125 L 2.25 -3.390625 L 5.21875 -3.390625 L 5.21875 -0.78125 C 5.21875 -0.421875 5.203125 -0.3125 4.4375 -0.3125 L 4.203125 -0.3125 L 4.203125 0 C 4.546875 -0.03125 5.28125 -0.03125 5.65625 -0.03125 C 6.046875 -0.03125 6.78125 -0.03125 7.140625 0 L 7.140625 -0.3125 L 6.890625 -0.3125 C 6.125 -0.3125 6.109375 -0.421875 6.109375 -0.78125 Z M 6.109375 -6.03125 "/>
</g>
<g id="glyph-1-0">
<path d="M 3.515625 -1.265625 L 3.28125 -1.265625 C 3.265625 -1.109375 3.1875 -0.703125 3.09375 -0.640625 C 3.046875 -0.59375 2.515625 -0.59375 2.40625 -0.59375 L 1.125 -0.59375 C 1.859375 -1.234375 2.109375 -1.4375 2.515625 -1.765625 C 3.03125 -2.171875 3.515625 -2.609375 3.515625 -3.265625 C 3.515625 -4.109375 2.78125 -4.625 1.890625 -4.625 C 1.03125 -4.625 0.4375 -4.015625 0.4375 -3.375 C 0.4375 -3.03125 0.734375 -2.984375 0.8125 -2.984375 C 0.96875 -2.984375 1.171875 -3.109375 1.171875 -3.359375 C 1.171875 -3.484375 1.125 -3.734375 0.765625 -3.734375 C 0.984375 -4.21875 1.453125 -4.375 1.78125 -4.375 C 2.484375 -4.375 2.84375 -3.828125 2.84375 -3.265625 C 2.84375 -2.65625 2.40625 -2.1875 2.1875 -1.9375 L 0.515625 -0.265625 C 0.4375 -0.203125 0.4375 -0.1875 0.4375 0 L 3.3125 0 Z M 3.515625 -1.265625 "/>
</g>
</g>
<clipPath id="clip-0">
<path clip-rule="nonzero" d="M 0 32 L 36 32 L 36 58.347656 L 0 58.347656 Z M 0 32 "/>
</clipPath>
<clipPath id="clip-1">
<path clip-rule="nonzero" d="M 12 32 L 57 32 L 57 58.347656 L 12 58.347656 Z M 12 32 "/>
</clipPath>
</defs>
<path fill="none" stroke-width="0.3985" stroke-linecap="butt" stroke-linejoin="miter" stroke="currentColor" stroke-opacity="1" stroke-miterlimit="10" d="M 37.749625 12.453219 C 37.749625 21.386812 30.503531 28.632906 21.569938 28.632906 C 12.636344 28.632906 5.39025 21.386812 5.39025 12.453219 C 5.39025 3.519625 12.636344 -3.726469 21.569938 -3.726469 C 30.503531 -3.726469 37.749625 3.519625 37.749625 12.453219 " transform="matrix(1, 0, 0, -1, 2.391, 43.504)"/>
<g clip-path="url(#clip-0)">
<path fill="none" stroke-width="0.79701" stroke-linecap="butt" stroke-linejoin="miter" stroke="currentColor" stroke-opacity="1" stroke-miterlimit="10" d="M -0.000375 0.00009375 L 21.569938 -12.453031 " transform="matrix(1, 0, 0, -1, 2.391, 43.504)"/>
</g>
<g clip-path="url(#clip-1)">
<path fill="none" stroke-width="0.79701" stroke-linecap="butt" stroke-linejoin="miter" stroke="currentColor" stroke-opacity="1" stroke-miterlimit="10" d="M 21.569938 -12.453031 L 43.14025 0.00009375 " transform="matrix(1, 0, 0, -1, 2.391, 43.504)"/>
</g>
<path fill="none" stroke-width="0.79701" stroke-linecap="butt" stroke-linejoin="miter" stroke="currentColor" stroke-opacity="1" stroke-miterlimit="10" d="M 43.14025 0.00009375 L 43.14025 24.906344 " transform="matrix(1, 0, 0, -1, 2.391, 43.504)"/>
<path fill="none" stroke-width="0.79701" stroke-linecap="butt" stroke-linejoin="miter" stroke="currentColor" stroke-opacity="1" stroke-miterlimit="10" d="M 43.14025 24.906344 L 64.710562 37.359469 " transform="matrix(1, 0, 0, -1, 2.391, 43.504)"/>
<path fill="none" stroke-width="0.79701" stroke-linecap="butt" stroke-linejoin="miter" stroke="currentColor" stroke-opacity="1" stroke-miterlimit="10" d="M 64.710562 37.359469 L 86.280875 24.906344 " transform="matrix(1, 0, 0, -1, 2.391, 43.504)"/>
<g fill="currentColor" fill-opacity="1">
<use xlink:href="#glyph-0-0" x="100.533" y="8.8"/>
<use xlink:href="#glyph-0-1" x="108.00495" y="8.8"/>
</g>
<g fill="currentColor" fill-opacity="1">
<use xlink:href="#glyph-1-0" x="115.477" y="10.295"/>
</g>
<path fill="none" stroke-width="0.79701" stroke-linecap="butt" stroke-linejoin="miter" stroke="currentColor" stroke-opacity="1" stroke-miterlimit="10" d="M 86.280875 24.906344 L 98.937125 32.211031 " transform="matrix(1, 0, 0, -1, 2.391, 43.504)"/>
<path fill="none" stroke-width="0.79701" stroke-linecap="butt" stroke-linejoin="miter" stroke="currentColor" stroke-opacity="1" stroke-miterlimit="10" d="M 43.14025 24.906344 L 21.569938 37.359469 " transform="matrix(1, 0, 0, -1, 2.391, 43.504)"/>
<path fill="none" stroke-width="0.79701" stroke-linecap="butt" stroke-linejoin="miter" stroke="currentColor" stroke-opacity="1" stroke-miterlimit="10" d="M 21.569938 37.359469 L -0.000375 24.906344 " transform="matrix(1, 0, 0, -1, 2.391, 43.504)"/>
<path fill="none" stroke-width="0.79701" stroke-linecap="butt" stroke-linejoin="miter" stroke="currentColor" stroke-opacity="1" stroke-miterlimit="10" d="M -0.000375 24.906344 L -0.000375 0.00009375 " transform="matrix(1, 0, 0, -1, 2.391, 43.504)"/>
</svg>
