<?xml version="1.0" encoding="UTF-8"?>
<svg xmlns="http://www.w3.org/2000/svg" xmlns:xlink="http://www.w3.org/1999/xlink" width="318.274pt" height="96.647pt" viewBox="0 0 318.274 96.647">
<defs>
<g>
<g id="glyph-0-0">
<path d="M 0.46875 0.046875 C 1.046875 0.046875 1.25 0 1.765625 0 C 2.15625 0 2.53125 0.046875 2.703125 0.046875 C 3.46875 0.046875 3.984375 -0.09375 4.390625 -0.296875 C 4.796875 -0.5 5.421875 -0.828125 5.421875 -1.921875 C 5.421875 -3.078125 4.609375 -3.359375 4.015625 -3.5625 C 3.953125 -3.578125 3.96875 -3.640625 4.015625 -3.65625 C 4.34375 -3.796875 4.46875 -3.875 4.6875 -4.09375 C 4.828125 -4.234375 5.015625 -4.59375 5.015625 -5.046875 C 5.015625 -6.125 4.265625 -6.515625 2.71875 -6.515625 C 2.140625 -6.515625 2 -6.46875 1.625 -6.46875 C 1.203125 -6.46875 1.125 -6.484375 0.578125 -6.484375 C 0.421875 -6.484375 0.296875 -6.453125 0.296875 -6.375 C 0.296875 -6.28125 0.390625 -6.1875 0.625 -6.171875 C 1.109375 -6.125 1.296875 -5.921875 1.296875 -5.453125 L 1.296875 -0.984375 C 1.296875 -0.5 1.015625 -0.328125 0.515625 -0.234375 C 0.28125 -0.203125 0.1875 -0.15625 0.1875 -0.0625 C 0.1875 0.015625 0.3125 0.046875 0.46875 0.046875 Z M 2.515625 -3.6875 C 2.359375 -3.6875 2.0625 -3.703125 2.0625 -4.046875 L 2.0625 -5.78125 C 2.0625 -6.078125 2.171875 -6.21875 2.71875 -6.21875 C 3.9375 -6.21875 4.171875 -5.484375 4.171875 -4.90625 C 4.171875 -4.328125 3.859375 -4.046875 3.71875 -3.96875 C 3.3125 -3.734375 2.875 -3.6875 2.515625 -3.6875 Z M 2.84375 -0.359375 C 2.34375 -0.359375 2.0625 -0.515625 2.0625 -1.078125 L 2.0625 -3.046875 C 2.0625 -3.171875 2.203125 -3.40625 2.625 -3.40625 C 3.21875 -3.40625 3.578125 -3.25 3.765625 -3.15625 C 4.03125 -3 4.5 -2.640625 4.5 -1.875 C 4.5 -1.015625 3.71875 -0.359375 2.84375 -0.359375 Z M 2.84375 -0.359375 "/>
</g>
<g id="glyph-0-1">
<path d="M 2.328125 0.140625 C 3.8125 0.140625 4.5625 -0.953125 4.5625 -2.109375 C 4.5625 -3.1875 3.671875 -4.109375 2.515625 -4.109375 C 1.296875 -4.109375 0.34375 -2.953125 0.34375 -1.859375 C 0.34375 -0.6875 1.203125 0.140625 2.328125 0.140625 Z M 2.53125 -0.15625 C 1.734375 -0.15625 1.15625 -1.09375 1.15625 -2.078125 C 1.15625 -2.5625 1.203125 -3.0625 1.484375 -3.40625 C 1.71875 -3.703125 2 -3.796875 2.34375 -3.796875 C 3.1875 -3.796875 3.75 -2.8125 3.75 -1.875 C 3.75 -1.484375 3.703125 -1.015625 3.546875 -0.703125 C 3.359375 -0.3125 2.96875 -0.15625 2.53125 -0.15625 Z M 2.53125 -0.15625 "/>
</g>
<g id="glyph-0-2">
<path d="M 0.296875 0.046875 C 0.46875 0.046875 0.59375 -0.015625 0.96875 -0.015625 C 1.125 -0.015625 1.375 0.015625 1.484375 0.015625 C 1.53125 0.015625 1.71875 0.015625 1.71875 -0.078125 C 1.71875 -0.171875 1.59375 -0.21875 1.484375 -0.265625 C 1.390625 -0.28125 1.34375 -0.390625 1.34375 -0.46875 C 1.34375 -0.5625 1.375 -0.640625 1.40625 -0.671875 L 2.046875 -1.640625 C 2.0625 -1.65625 2.109375 -1.65625 2.109375 -1.640625 L 2.703125 -0.6875 C 2.734375 -0.625 2.765625 -0.5625 2.765625 -0.515625 C 2.765625 -0.375 2.625 -0.3125 2.484375 -0.28125 C 2.328125 -0.234375 2.234375 -0.203125 2.234375 -0.078125 C 2.234375 -0.03125 2.296875 0.015625 2.453125 0.015625 C 2.6875 0.015625 2.953125 0 3.1875 0 C 3.6875 0 3.609375 0.046875 4.015625 0.046875 C 4.09375 0.046875 4.21875 0.03125 4.21875 -0.046875 C 4.21875 -0.15625 4.09375 -0.203125 3.984375 -0.234375 C 3.796875 -0.28125 3.65625 -0.390625 3.5 -0.640625 L 2.546875 -2.21875 C 2.5 -2.265625 2.515625 -2.3125 2.53125 -2.34375 L 3.15625 -3.28125 C 3.34375 -3.546875 3.65625 -3.6875 3.859375 -3.75 C 3.96875 -3.796875 4.09375 -3.828125 4.09375 -3.921875 C 4.09375 -4.015625 3.96875 -4.015625 3.890625 -4.015625 C 3.71875 -4.015625 3.625 -3.96875 3.265625 -3.96875 C 3.109375 -3.96875 2.875 -4 2.765625 -4 C 2.71875 -4 2.546875 -4.015625 2.546875 -3.90625 C 2.546875 -3.8125 2.65625 -3.765625 2.765625 -3.734375 C 2.875 -3.703125 2.890625 -3.640625 2.890625 -3.578125 C 2.890625 -3.5 2.875 -3.421875 2.8125 -3.359375 L 2.3125 -2.59375 C 2.28125 -2.546875 2.25 -2.546875 2.21875 -2.59375 L 1.765625 -3.28125 C 1.6875 -3.40625 1.640625 -3.515625 1.640625 -3.59375 C 1.640625 -3.703125 1.75 -3.734375 1.84375 -3.765625 C 1.9375 -3.796875 2.03125 -3.8125 2.03125 -3.90625 C 2.03125 -4 1.84375 -3.984375 1.796875 -3.984375 C 1.5625 -3.984375 1.53125 -3.96875 1.296875 -3.96875 C 0.796875 -3.96875 0.890625 -4.015625 0.5 -4.015625 C 0.453125 -4.015625 0.28125 -4.015625 0.28125 -3.921875 C 0.28125 -3.8125 0.390625 -3.765625 0.5 -3.734375 C 0.703125 -3.6875 0.796875 -3.578125 0.96875 -3.328125 L 1.78125 -2.078125 C 1.828125 -2 1.84375 -1.96875 1.75 -1.859375 L 0.984375 -0.796875 C 0.71875 -0.40625 0.53125 -0.28125 0.328125 -0.234375 C 0.21875 -0.203125 0.09375 -0.15625 0.09375 -0.046875 C 0.09375 0.03125 0.21875 0.046875 0.296875 0.046875 Z M 0.296875 0.046875 "/>
</g>
<g id="glyph-0-3">
<path d="M 0.265625 0.046875 C 0.59375 0.046875 1.015625 -0.015625 1.453125 -0.015625 C 1.828125 -0.015625 2.1875 0.015625 2.359375 0.015625 C 2.53125 0.015625 2.65625 -0.015625 2.65625 -0.09375 C 2.65625 -0.1875 2.546875 -0.234375 2.328125 -0.296875 C 2 -0.375 1.75 -0.578125 1.75 -0.859375 C 1.75 -0.984375 2.0625 -2.03125 2.15625 -2.296875 C 2.203125 -2.4375 2.265625 -2.46875 2.328125 -2.46875 L 4.203125 -2.46875 C 4.375 -2.46875 4.4375 -2.453125 4.46875 -2.359375 C 4.609375 -1.859375 4.859375 -1.046875 4.859375 -0.75 C 4.859375 -0.53125 4.6875 -0.375 4.25 -0.3125 C 4.0625 -0.28125 3.921875 -0.203125 3.921875 -0.125 C 3.921875 -0.046875 4.03125 0 4.203125 0 C 4.4375 0 4.859375 -0.015625 5.25 -0.015625 C 5.6875 -0.015625 6.34375 0.046875 6.625 0.046875 C 6.796875 0.046875 6.921875 0.03125 6.921875 -0.046875 C 6.921875 -0.140625 6.8125 -0.234375 6.59375 -0.28125 C 6.1875 -0.34375 5.859375 -0.46875 5.59375 -1.265625 C 5.265625 -2.21875 4.453125 -4.546875 3.8125 -6.5625 C 3.796875 -6.640625 3.78125 -6.734375 3.75 -6.78125 C 3.734375 -6.8125 3.703125 -6.8125 3.703125 -6.796875 C 3.65625 -6.734375 3.625 -6.53125 3.515625 -6.453125 C 3.390625 -6.375 3.28125 -6.34375 3.15625 -6.3125 C 3.140625 -6.109375 3.078125 -5.921875 3.015625 -5.734375 C 2.34375 -3.90625 1.90625 -2.765625 1.15625 -1.078125 C 0.9375 -0.578125 0.640625 -0.40625 0.3125 -0.3125 C 0.09375 -0.234375 -0.015625 -0.171875 -0.015625 -0.078125 C -0.015625 0 0.09375 0.046875 0.265625 0.046875 Z M 2.59375 -2.796875 C 2.453125 -2.796875 2.375 -2.796875 2.375 -2.875 C 2.375 -2.890625 2.390625 -2.921875 2.40625 -2.953125 L 3.296875 -5.375 C 3.34375 -5.484375 3.359375 -5.546875 3.390625 -5.546875 C 3.40625 -5.546875 3.4375 -5.484375 3.46875 -5.375 L 4.25 -2.953125 C 4.25 -2.90625 4.265625 -2.875 4.265625 -2.84375 C 4.265625 -2.796875 4.234375 -2.796875 4.125 -2.796875 Z M 2.59375 -2.796875 "/>
</g>
<g id="glyph-0-4">
<path d="M 2.34375 2.125 C 2.484375 2.125 2.625 2.046875 2.625 1.90625 C 2.625 1.890625 2.484375 1.734375 2.46875 1.71875 C 1.859375 1.015625 1.21875 -1.09375 1.21875 -2.78125 C 1.21875 -4.46875 1.890625 -5.9375 2.5 -6.640625 C 2.515625 -6.671875 2.625 -6.8125 2.625 -6.84375 C 2.625 -6.921875 2.484375 -7 2.40625 -7 C 2.3125 -7 2.203125 -6.9375 2.140625 -6.890625 C 1.4375 -6.1875 0.390625 -4.359375 0.390625 -2.671875 C 0.390625 -0.984375 1.484375 1.34375 2.1875 2.046875 C 2.234375 2.109375 2.296875 2.125 2.34375 2.125 Z M 2.34375 2.125 "/>
</g>
<g id="glyph-0-5">
<path d="M 0.4375 0.03125 C 0.828125 0.03125 0.890625 -0.015625 1.234375 -0.015625 C 1.59375 -0.015625 1.640625 0.03125 2.046875 0.03125 C 2.15625 0.03125 2.25 0 2.25 -0.078125 C 2.25 -0.171875 2.125 -0.203125 2.015625 -0.234375 C 1.8125 -0.296875 1.59375 -0.34375 1.59375 -0.609375 L 1.59375 -2.65625 C 1.59375 -3 1.671875 -3.234375 1.859375 -3.375 C 2.109375 -3.578125 2.375 -3.640625 2.71875 -3.640625 C 3.140625 -3.640625 3.515625 -3.171875 3.515625 -2.703125 L 3.515625 -0.609375 C 3.515625 -0.34375 3.28125 -0.296875 3.078125 -0.234375 C 2.96875 -0.203125 2.84375 -0.171875 2.84375 -0.078125 C 2.84375 0 2.9375 0.03125 3.046875 0.03125 C 3.4375 0.03125 3.515625 -0.015625 3.875 -0.015625 C 4.21875 -0.015625 4.28125 0.03125 4.6875 0.03125 C 4.8125 0.03125 4.875 0 4.875 -0.078125 C 4.875 -0.171875 4.78125 -0.203125 4.65625 -0.234375 C 4.453125 -0.28125 4.203125 -0.34375 4.203125 -0.609375 L 4.203125 -2.65625 C 4.203125 -3 4.3125 -3.234375 4.484375 -3.375 C 4.734375 -3.578125 5.015625 -3.640625 5.34375 -3.640625 C 5.78125 -3.640625 6.140625 -3.171875 6.140625 -2.703125 L 6.140625 -0.609375 C 6.140625 -0.34375 5.921875 -0.28125 5.71875 -0.234375 C 5.59375 -0.203125 5.484375 -0.171875 5.484375 -0.078125 C 5.484375 0 5.5625 0.03125 5.6875 0.03125 C 6.078125 0.03125 6.15625 -0.015625 6.515625 -0.015625 C 6.859375 -0.015625 6.890625 0.03125 7.296875 0.03125 C 7.4375 0.03125 7.484375 0 7.484375 -0.078125 C 7.484375 -0.171875 7.390625 -0.203125 7.265625 -0.234375 C 7.0625 -0.296875 6.84375 -0.34375 6.84375 -0.609375 L 6.84375 -2.734375 C 6.84375 -3.421875 6.484375 -4.109375 5.84375 -4.109375 C 5.203125 -4.109375 4.65625 -3.796875 4.234375 -3.421875 L 4.203125 -3.421875 C 3.984375 -3.921875 3.6875 -4.109375 3.203125 -4.109375 C 2.4375 -4.109375 1.953125 -3.734375 1.65625 -3.4375 L 1.640625 -3.4375 C 1.625 -3.453125 1.625 -3.5 1.625 -3.5625 C 1.625 -3.75 1.671875 -4.109375 1.671875 -4.203125 C 1.671875 -4.234375 1.640625 -4.265625 1.609375 -4.265625 C 1.5625 -4.265625 1.53125 -4.234375 1.515625 -4.234375 C 1.15625 -4 1.046875 -3.84375 0.5 -3.703125 C 0.453125 -3.703125 0.421875 -3.671875 0.421875 -3.59375 C 0.421875 -3.515625 0.453125 -3.46875 0.515625 -3.46875 C 0.859375 -3.40625 0.890625 -3.109375 0.890625 -2.75 L 0.890625 -0.609375 C 0.890625 -0.34375 0.65625 -0.296875 0.46875 -0.234375 C 0.34375 -0.203125 0.234375 -0.171875 0.234375 -0.078125 C 0.234375 0.015625 0.328125 0.03125 0.4375 0.03125 Z M 0.4375 0.03125 "/>
</g>
<g id="glyph-0-6">
<path d="M 1.15625 0.140625 C 1.59375 0.140625 1.96875 -0.015625 2.40625 -0.375 L 2.4375 -0.375 C 2.609375 -0.03125 2.84375 0.140625 3.15625 0.140625 C 3.359375 0.140625 3.625 0 3.84375 -0.203125 C 3.90625 -0.265625 3.953125 -0.359375 3.953125 -0.421875 C 3.953125 -0.484375 3.90625 -0.53125 3.84375 -0.53125 C 3.8125 -0.53125 3.796875 -0.53125 3.765625 -0.484375 C 3.671875 -0.40625 3.5625 -0.375 3.390625 -0.375 C 3.171875 -0.375 3.03125 -0.5625 3.03125 -0.84375 L 3.078125 -3.21875 C 3.09375 -3.734375 2.75 -4.109375 2.265625 -4.109375 C 1.875 -4.109375 1.234375 -3.8125 0.796875 -3.40625 C 0.546875 -3.1875 0.390625 -2.921875 0.390625 -2.71875 C 0.390625 -2.671875 0.4375 -2.625 0.5 -2.625 C 0.703125 -2.625 1.15625 -2.875 1.15625 -2.96875 C 1.15625 -3.03125 1.15625 -3.109375 1.15625 -3.15625 C 1.15625 -3.28125 1.171875 -3.390625 1.25 -3.4375 C 1.375 -3.546875 1.59375 -3.625 1.796875 -3.625 C 2.171875 -3.625 2.390625 -3.328125 2.375 -2.984375 L 2.359375 -2.34375 C 2.34375 -2.078125 2.34375 -2.0625 2.078125 -1.953125 L 1.078125 -1.53125 C 0.578125 -1.34375 0.359375 -1.125 0.359375 -0.71875 C 0.359375 -0.34375 0.796875 0.140625 1.15625 0.140625 Z M 1.625 -0.34375 C 1.390625 -0.34375 1.140625 -0.515625 1.140625 -0.859375 C 1.140625 -1.09375 1.375 -1.375 2.078125 -1.625 C 2.1875 -1.671875 2.25 -1.671875 2.265625 -1.671875 C 2.34375 -1.671875 2.375 -1.625 2.359375 -1.46875 L 2.34375 -0.984375 C 2.328125 -0.734375 2.28125 -0.640625 2.21875 -0.578125 C 2.0625 -0.421875 1.890625 -0.34375 1.625 -0.34375 Z M 1.625 -0.34375 "/>
</g>
<g id="glyph-0-7">
<path d="M 1.875 0.140625 C 2.484375 0.140625 3.03125 -0.359375 3.03125 -0.46875 C 3.03125 -0.53125 3.015625 -0.609375 2.96875 -0.609375 C 2.953125 -0.609375 2.9375 -0.59375 2.921875 -0.578125 C 2.765625 -0.46875 2.578125 -0.40625 2.1875 -0.40625 C 1.765625 -0.40625 1.53125 -0.71875 1.53125 -1.265625 L 1.53125 -3.21875 C 1.53125 -3.484375 1.59375 -3.5 1.9375 -3.5 L 2.921875 -3.5 C 2.96875 -3.5 3.015625 -3.625 3.015625 -3.75 C 3.015625 -3.875 2.96875 -3.96875 2.921875 -3.96875 L 1.78125 -3.96875 C 1.625 -3.96875 1.53125 -4.015625 1.546875 -4.15625 L 1.59375 -4.609375 C 1.609375 -4.6875 1.53125 -4.71875 1.46875 -4.71875 C 1.40625 -4.71875 1.359375 -4.65625 1.296875 -4.59375 C 1.125 -4.375 0.796875 -4.0625 0.421875 -3.796875 C 0.390625 -3.796875 0.34375 -3.71875 0.34375 -3.6875 C 0.34375 -3.59375 0.390625 -3.5 0.46875 -3.5 L 0.53125 -3.5 C 0.78125 -3.5 0.84375 -3.453125 0.84375 -3.34375 L 0.84375 -1.046875 C 0.84375 -0.265625 1.234375 0.140625 1.875 0.140625 Z M 1.875 0.140625 "/>
</g>
<g id="glyph-0-8">
<path d="M 0.390625 0.03125 C 0.78125 0.03125 0.84375 -0.015625 1.1875 -0.015625 C 1.53125 -0.015625 1.546875 0.03125 1.9375 0.03125 C 2.09375 0.03125 2.140625 0 2.140625 -0.078125 C 2.140625 -0.15625 2.0625 -0.203125 1.921875 -0.234375 C 1.71875 -0.296875 1.546875 -0.375 1.53125 -0.640625 L 1.53125 -2.65625 C 1.53125 -3.0625 1.59375 -3.203125 1.8125 -3.375 C 2 -3.515625 2.375 -3.59375 2.625 -3.59375 C 3.0625 -3.59375 3.546875 -3.1875 3.546875 -2.703125 L 3.546875 -0.671875 C 3.546875 -0.40625 3.359375 -0.3125 3.171875 -0.234375 C 3.015625 -0.1875 2.9375 -0.171875 2.9375 -0.078125 C 2.9375 0 3 0.03125 3.140625 0.03125 C 3.53125 0.03125 3.5625 -0.015625 3.90625 -0.015625 C 4.25 -0.015625 4.28125 0.03125 4.6875 0.03125 C 4.828125 0.03125 4.875 0 4.875 -0.078125 C 4.875 -0.15625 4.796875 -0.203125 4.65625 -0.234375 C 4.453125 -0.296875 4.25 -0.40625 4.25 -0.671875 L 4.25 -2.765625 C 4.25 -3.53125 3.765625 -4.109375 3.109375 -4.109375 C 2.484375 -4.109375 1.921875 -3.703125 1.609375 -3.484375 C 1.5625 -3.578125 1.53125 -3.640625 1.53125 -3.84375 L 1.53125 -5.578125 C 1.53125 -6.640625 1.625 -6.8125 1.625 -6.921875 C 1.625 -6.96875 1.59375 -7 1.5625 -7 C 1.53125 -7 1.515625 -6.984375 1.5 -6.96875 C 1.171875 -6.84375 0.671875 -6.671875 0.390625 -6.59375 C 0.34375 -6.5625 0.3125 -6.53125 0.3125 -6.46875 C 0.3125 -6.390625 0.34375 -6.34375 0.40625 -6.328125 C 0.75 -6.265625 0.84375 -5.96875 0.84375 -5.609375 L 0.84375 -0.640625 C 0.828125 -0.375 0.609375 -0.296875 0.421875 -0.234375 C 0.25 -0.1875 0.1875 -0.15625 0.1875 -0.078125 C 0.1875 0 0.265625 0.03125 0.390625 0.03125 Z M 0.390625 0.03125 "/>
</g>
<g id="glyph-0-9">
<path d="M 1.421875 0.140625 C 2.296875 0.140625 2.890625 -0.359375 2.890625 -1.078125 C 2.890625 -1.6875 2.515625 -2 1.75 -2.4375 C 1.203125 -2.734375 1.0625 -2.9375 1.0625 -3.25 C 1.0625 -3.625 1.375 -3.828125 1.703125 -3.828125 C 2.078125 -3.828125 2.328125 -3.59375 2.5 -3.15625 C 2.515625 -3.109375 2.609375 -3.0625 2.6875 -3.0625 C 2.734375 -3.0625 2.78125 -3.078125 2.78125 -3.140625 C 2.78125 -3.40625 2.703125 -3.765625 2.59375 -3.921875 C 2.46875 -4.015625 2.203125 -4.109375 1.8125 -4.109375 C 0.90625 -4.109375 0.46875 -3.609375 0.46875 -2.96875 C 0.46875 -2.46875 0.734375 -2.15625 1.40625 -1.734375 C 2 -1.375 2.21875 -1.15625 2.21875 -0.796875 C 2.21875 -0.421875 1.90625 -0.125 1.515625 -0.125 C 1.125 -0.125 0.703125 -0.375 0.53125 -1.03125 C 0.53125 -1.078125 0.46875 -1.09375 0.421875 -1.09375 C 0.34375 -1.09375 0.28125 -1.078125 0.28125 -1.015625 C 0.296875 -0.78125 0.328125 -0.359375 0.390625 -0.21875 C 0.640625 0.015625 1.015625 0.140625 1.421875 0.140625 Z M 1.421875 0.140625 "/>
</g>
<g id="glyph-0-10">
<path d="M 0.390625 0.03125 C 0.78125 0.03125 0.84375 -0.015625 1.1875 -0.015625 C 1.53125 -0.015625 1.609375 0.03125 2 0.03125 C 2.0625 0.03125 2.1875 0.015625 2.1875 -0.0625 C 2.1875 -0.15625 2.078125 -0.203125 1.96875 -0.234375 C 1.765625 -0.296875 1.53125 -0.34375 1.53125 -0.609375 L 1.53125 -5.578125 C 1.53125 -6.46875 1.609375 -6.8125 1.609375 -6.921875 C 1.609375 -6.953125 1.59375 -7 1.5625 -7 C 1.53125 -7 1.515625 -6.984375 1.5 -6.96875 C 1.1875 -6.859375 0.890625 -6.703125 0.375 -6.59375 C 0.34375 -6.578125 0.3125 -6.53125 0.3125 -6.46875 C 0.3125 -6.40625 0.34375 -6.34375 0.390625 -6.34375 C 0.71875 -6.265625 0.84375 -6 0.84375 -5.609375 L 0.84375 -0.609375 C 0.84375 -0.34375 0.609375 -0.296875 0.421875 -0.234375 C 0.3125 -0.203125 0.1875 -0.15625 0.1875 -0.0625 C 0.1875 0.015625 0.3125 0.03125 0.390625 0.03125 Z M 0.390625 0.03125 "/>
</g>
<g id="glyph-0-11">
<path d="M 2.5625 0.140625 C 3.875 0.140625 4.765625 -0.796875 4.765625 -2.15625 C 4.765625 -3.25 3.984375 -4.109375 2.96875 -4.109375 C 2.546875 -4.109375 1.9375 -3.859375 1.53125 -3.515625 C 1.453125 -3.53125 1.4375 -3.59375 1.4375 -3.84375 L 1.4375 -5.890625 C 1.4375 -6.4375 1.46875 -6.875 1.46875 -6.921875 C 1.46875 -6.96875 1.4375 -7 1.40625 -7 C 1.390625 -7 1.359375 -6.984375 1.3125 -6.96875 C 1.1875 -6.90625 0.53125 -6.640625 0.28125 -6.59375 C 0.234375 -6.578125 0.15625 -6.5625 0.15625 -6.484375 C 0.15625 -6.40625 0.234375 -6.375 0.28125 -6.34375 C 0.5625 -6.21875 0.75 -5.96875 0.75 -5.609375 L 0.75 -0.796875 C 0.75 -0.5625 0.671875 -0.203125 0.671875 -0.09375 C 0.671875 -0.015625 0.75 0.03125 0.8125 0.03125 C 0.84375 0.03125 0.875 0.015625 0.90625 -0.015625 C 0.96875 -0.078125 1.046875 -0.15625 1.125 -0.15625 C 1.1875 -0.15625 1.421875 -0.0625 1.71875 0.015625 C 1.96875 0.078125 2.28125 0.140625 2.5625 0.140625 Z M 2.796875 -0.171875 C 2.109375 -0.171875 1.4375 -0.609375 1.4375 -1.3125 L 1.4375 -3.234375 C 1.71875 -3.5 2.125 -3.6875 2.65625 -3.6875 C 3.59375 -3.6875 4.015625 -2.703125 4.015625 -1.9375 C 4.015625 -0.9375 3.546875 -0.171875 2.796875 -0.171875 Z M 2.796875 -0.171875 "/>
</g>
<g id="glyph-0-12">
<path d="M 2.109375 0.15625 C 2.640625 0.15625 3.140625 -0.078125 3.4375 -0.46875 C 3.5625 -0.609375 3.625 -0.75 3.625 -0.890625 C 3.625 -0.9375 3.59375 -0.984375 3.546875 -0.984375 C 3.5 -0.984375 3.484375 -0.96875 3.4375 -0.90625 C 3.1875 -0.609375 2.859375 -0.453125 2.453125 -0.453125 C 1.625 -0.453125 0.9375 -1.234375 0.9375 -2.1875 C 0.9375 -2.46875 0.984375 -2.546875 1.1875 -2.546875 L 3.28125 -2.546875 C 3.484375 -2.546875 3.578125 -2.65625 3.578125 -2.859375 C 3.578125 -3.59375 3 -4.109375 2.21875 -4.109375 C 1.171875 -4.109375 0.296875 -3.15625 0.296875 -2.015625 C 0.296875 -0.71875 1.015625 0.15625 2.109375 0.15625 Z M 1.203125 -2.859375 C 1.125 -2.859375 1.078125 -2.890625 1.078125 -2.953125 C 1.078125 -3.359375 1.609375 -3.8125 2.0625 -3.8125 C 2.53125 -3.8125 2.921875 -3.5 2.921875 -3.125 C 2.921875 -2.984375 2.890625 -2.921875 2.84375 -2.90625 C 2.625 -2.875 2.421875 -2.859375 2.109375 -2.859375 Z M 1.203125 -2.859375 "/>
</g>
<g id="glyph-0-13">
<path d="M 0.78125 2.125 C 0.828125 2.125 0.890625 2.109375 0.9375 2.046875 C 1.640625 1.34375 2.734375 -0.984375 2.734375 -2.671875 C 2.734375 -4.359375 1.6875 -6.1875 0.984375 -6.890625 C 0.921875 -6.9375 0.8125 -7 0.71875 -7 C 0.640625 -7 0.5 -6.921875 0.5 -6.84375 C 0.5 -6.8125 0.609375 -6.671875 0.625 -6.640625 C 1.234375 -5.9375 1.90625 -4.46875 1.90625 -2.78125 C 1.90625 -1.09375 1.265625 1.015625 0.65625 1.71875 C 0.640625 1.734375 0.5 1.890625 0.5 1.90625 C 0.5 2.046875 0.640625 2.125 0.78125 2.125 Z M 0.78125 2.125 "/>
</g>
<g id="glyph-0-14">
<path d="M 0.421875 0.03125 C 0.796875 0.03125 0.84375 -0.015625 1.1875 -0.015625 C 1.53125 -0.015625 1.5 0.03125 1.890625 0.03125 C 1.9375 0.03125 2.109375 0.015625 2.109375 -0.078125 C 2.109375 -0.171875 2 -0.203125 1.890625 -0.234375 C 1.6875 -0.296875 1.53125 -0.375 1.53125 -0.640625 C 1.53125 -0.875 1.53125 -1.109375 1.53125 -1.34375 C 1.53125 -1.5625 1.53125 -1.78125 1.53125 -1.96875 C 1.53125 -2.03125 1.5625 -2.046875 1.59375 -2.046875 C 1.625 -2.046875 1.640625 -2.03125 1.6875 -1.96875 L 2.890625 -0.609375 C 2.921875 -0.5625 2.953125 -0.515625 2.953125 -0.46875 C 2.953125 -0.359375 2.84375 -0.296875 2.6875 -0.25 C 2.59375 -0.21875 2.515625 -0.171875 2.515625 -0.09375 C 2.515625 -0.046875 2.5625 0 2.703125 0 C 3.375 0 4.03125 0.03125 4.546875 0.03125 C 4.671875 0.03125 4.75 0.015625 4.75 -0.078125 C 4.75 -0.171875 4.59375 -0.203125 4.453125 -0.265625 C 4.25 -0.328125 3.921875 -0.5 3.703125 -0.71875 C 3.5 -0.90625 2.765625 -1.640625 2.25 -2.28125 C 2.234375 -2.296875 2.21875 -2.328125 2.21875 -2.34375 C 2.21875 -2.375 2.25 -2.40625 2.28125 -2.453125 C 2.765625 -2.875 3.421875 -3.421875 3.546875 -3.5 C 3.734375 -3.609375 3.953125 -3.734375 4.203125 -3.8125 C 4.34375 -3.84375 4.453125 -3.90625 4.453125 -3.984375 C 4.453125 -4.046875 4.40625 -4.09375 4.3125 -4.09375 C 4.125 -4.09375 3.71875 -3.96875 3.40625 -3.96875 L 2.921875 -3.96875 C 2.78125 -3.96875 2.703125 -3.921875 2.703125 -3.84375 C 2.703125 -3.796875 2.734375 -3.765625 2.828125 -3.75 C 2.953125 -3.71875 3.078125 -3.671875 3.078125 -3.609375 C 3.078125 -3.578125 3.0625 -3.53125 3 -3.453125 C 2.875 -3.296875 2.484375 -2.890625 1.9375 -2.4375 C 1.796875 -2.296875 1.671875 -2.234375 1.59375 -2.234375 C 1.5625 -2.234375 1.53125 -2.265625 1.53125 -2.328125 L 1.53125 -5.578125 C 1.53125 -6.421875 1.625 -6.765625 1.625 -6.90625 C 1.625 -6.96875 1.609375 -7 1.5625 -7 C 1.53125 -7 1.515625 -6.984375 1.484375 -6.96875 C 1.1875 -6.84375 0.890625 -6.703125 0.390625 -6.59375 C 0.34375 -6.578125 0.3125 -6.53125 0.3125 -6.46875 C 0.3125 -6.40625 0.34375 -6.34375 0.390625 -6.34375 C 0.71875 -6.265625 0.84375 -6.078125 0.84375 -5.609375 L 0.84375 -0.640625 C 0.84375 -0.375 0.609375 -0.296875 0.421875 -0.234375 C 0.3125 -0.203125 0.1875 -0.171875 0.1875 -0.078125 C 0.1875 0 0.265625 0.03125 0.421875 0.03125 Z M 0.421875 0.03125 "/>
</g>
<g id="glyph-0-15">
<path d="M 2.359375 1.453125 C 2.390625 1.453125 2.4375 1.4375 2.453125 1.328125 C 2.546875 0.875 2.734375 0.421875 2.734375 0.390625 C 2.734375 0.359375 2.734375 0.3125 2.6875 0.3125 C 2.609375 0.3125 2.59375 0.34375 2.546875 0.421875 C 2.328125 0.703125 2.140625 0.90625 1.84375 0.90625 L 1.125 0.90625 C 1.078125 0.90625 0.984375 0.90625 1.015625 0.859375 C 1.203125 0.71875 1.59375 0.3125 1.921875 -0.09375 C 2.15625 -0.390625 2.328125 -0.71875 2.328125 -0.984375 C 2.328125 -1.5 2.03125 -1.921875 1.421875 -1.921875 C 0.671875 -1.921875 0.265625 -1.25 0.265625 -1.078125 C 0.265625 -1.015625 0.28125 -0.9375 0.328125 -0.9375 C 0.359375 -0.9375 0.390625 -0.96875 0.421875 -1 C 0.6875 -1.296875 0.859375 -1.40625 1.203125 -1.40625 C 1.53125 -1.40625 1.765625 -1.1875 1.765625 -0.75 C 1.765625 -0.203125 1.078125 0.53125 0.671875 0.890625 L 0.28125 1.234375 C 0.203125 1.296875 0.203125 1.3125 0.203125 1.34375 C 0.203125 1.375 0.265625 1.4375 0.3125 1.4375 C 0.515625 1.4375 0.96875 1.421875 1.28125 1.421875 C 1.609375 1.421875 1.9375 1.453125 2.359375 1.453125 Z M 2.359375 1.453125 "/>
</g>
<g id="glyph-0-16">
<path d="M 0.46875 1.453125 C 1.015625 1.453125 0.96875 1.421875 1.296875 1.421875 C 1.609375 1.421875 1.53125 1.453125 2.109375 1.453125 C 2.1875 1.453125 2.21875 1.375 2.21875 1.296875 C 2.21875 1.234375 2.1875 1.15625 2.109375 1.140625 C 1.671875 1.078125 1.5625 1.0625 1.5625 0.71875 L 1.5625 -1.125 C 1.5625 -1.453125 1.609375 -1.6875 1.625 -1.828125 C 1.640625 -1.90625 1.59375 -1.96875 1.53125 -1.96875 C 1.515625 -1.96875 1.46875 -1.9375 1.453125 -1.921875 C 1.34375 -1.8125 0.984375 -1.546875 0.484375 -1.5 C 0.4375 -1.484375 0.390625 -1.421875 0.390625 -1.359375 C 0.390625 -1.3125 0.453125 -1.234375 0.53125 -1.234375 C 0.78125 -1.1875 1.046875 -1.046875 1.046875 -0.78125 L 1.046875 0.71875 C 1.046875 1.125 0.75 1.125 0.46875 1.140625 C 0.390625 1.140625 0.34375 1.234375 0.34375 1.296875 C 0.34375 1.375 0.40625 1.453125 0.46875 1.453125 Z M 0.46875 1.453125 "/>
</g>
<g id="glyph-0-17">
<path d="M 3.6875 0.140625 C 5.15625 0.140625 6.25 -0.9375 6.296875 -2.484375 C 6.328125 -3.390625 6.328125 -4.28125 6.40625 -5.421875 C 6.421875 -5.828125 6.546875 -6.109375 6.890625 -6.171875 C 7.125 -6.21875 7.21875 -6.28125 7.21875 -6.375 C 7.21875 -6.453125 7.109375 -6.484375 6.9375 -6.484375 C 6.703125 -6.484375 6.453125 -6.453125 6.125 -6.453125 C 5.84375 -6.453125 5.6875 -6.453125 5.390625 -6.453125 C 5.21875 -6.453125 5.09375 -6.421875 5.09375 -6.34375 C 5.09375 -6.265625 5.28125 -6.1875 5.421875 -6.15625 C 5.703125 -6.078125 5.828125 -5.578125 5.828125 -5.0625 C 5.859375 -4.3125 5.875 -3.375 5.875 -2.9375 C 5.875 -1.390625 5.265625 -0.359375 3.90625 -0.359375 C 2.6875 -0.359375 1.8125 -1.078125 1.8125 -2.65625 L 1.8125 -5.453125 C 1.8125 -5.84375 2.078125 -6.109375 2.234375 -6.15625 C 2.453125 -6.234375 2.5625 -6.265625 2.5625 -6.359375 C 2.5625 -6.4375 2.4375 -6.46875 2.265625 -6.46875 C 2.0625 -6.46875 1.78125 -6.453125 1.484375 -6.453125 C 1.109375 -6.453125 0.828125 -6.484375 0.53125 -6.484375 C 0.359375 -6.484375 0.234375 -6.453125 0.234375 -6.375 C 0.234375 -6.28125 0.34375 -6.21875 0.5625 -6.15625 C 0.78125 -6.09375 1.015625 -5.90625 1.015625 -5.421875 L 1.015625 -2.375 C 1.015625 -0.859375 1.921875 0.140625 3.6875 0.140625 Z M 3.6875 0.140625 "/>
</g>
<g id="glyph-0-18">
<path d="M 0.4375 0.03125 C 0.828125 0.03125 0.890625 -0.015625 1.234375 -0.015625 C 1.59375 -0.015625 1.640625 0.03125 2.046875 0.03125 C 2.171875 0.03125 2.25 0 2.25 -0.078125 C 2.25 -0.15625 2.171875 -0.203125 2.015625 -0.234375 C 1.8125 -0.28125 1.59375 -0.34375 1.59375 -0.609375 L 1.59375 -3 C 1.59375 -3.078125 1.625 -3.1875 1.671875 -3.234375 C 1.9375 -3.46875 2.296875 -3.625 2.765625 -3.625 C 3.296875 -3.625 3.65625 -3.28125 3.65625 -2.703125 L 3.65625 -0.609375 C 3.65625 -0.34375 3.4375 -0.296875 3.234375 -0.234375 C 3.125 -0.203125 3 -0.15625 3 -0.0625 C 3 0.015625 3.140625 0.03125 3.203125 0.03125 C 3.609375 0.03125 3.671875 -0.015625 4.015625 -0.015625 C 4.359375 -0.015625 4.421875 0.03125 4.8125 0.03125 C 4.890625 0.03125 5.015625 0.015625 5.015625 -0.0625 C 5.015625 -0.15625 4.890625 -0.203125 4.78125 -0.234375 C 4.578125 -0.296875 4.359375 -0.34375 4.359375 -0.609375 L 4.359375 -2.734375 C 4.359375 -3.5 3.875 -4.109375 3.234375 -4.109375 C 2.609375 -4.109375 2.109375 -3.890625 1.640625 -3.4375 C 1.625 -3.453125 1.625 -3.5 1.625 -3.5625 C 1.625 -3.75 1.671875 -4.109375 1.671875 -4.203125 C 1.671875 -4.234375 1.640625 -4.265625 1.625 -4.265625 C 1.578125 -4.265625 1.546875 -4.25 1.515625 -4.21875 C 1.234375 -4.015625 0.96875 -3.828125 0.515625 -3.703125 C 0.453125 -3.703125 0.421875 -3.65625 0.421875 -3.59375 C 0.421875 -3.515625 0.46875 -3.484375 0.53125 -3.46875 C 0.859375 -3.375 0.890625 -3.109375 0.890625 -2.75 L 0.890625 -0.609375 C 0.890625 -0.34375 0.671875 -0.28125 0.46875 -0.234375 C 0.3125 -0.203125 0.234375 -0.171875 0.234375 -0.078125 C 0.234375 0 0.3125 0.03125 0.4375 0.03125 Z M 0.4375 0.03125 "/>
</g>
<g id="glyph-0-19">
<path d="M 1.234375 -5.125 C 1.515625 -5.125 1.734375 -5.34375 1.734375 -5.609375 C 1.734375 -5.90625 1.515625 -6.125 1.234375 -6.125 C 0.953125 -6.125 0.734375 -5.90625 0.734375 -5.609375 C 0.734375 -5.34375 0.953125 -5.125 1.234375 -5.125 Z M 0.4375 0.03125 C 0.828125 0.03125 0.890625 -0.015625 1.234375 -0.015625 C 1.59375 -0.015625 1.671875 0.03125 2.046875 0.03125 C 2.171875 0.03125 2.25 0 2.25 -0.078125 C 2.25 -0.171875 2.125 -0.203125 2.015625 -0.234375 C 1.75 -0.3125 1.59375 -0.390625 1.59375 -0.609375 L 1.59375 -2.921875 C 1.59375 -3.359375 1.671875 -4.09375 1.671875 -4.25 C 1.671875 -4.28125 1.65625 -4.3125 1.625 -4.3125 C 1.578125 -4.3125 1.53125 -4.28125 1.484375 -4.234375 C 1.3125 -4.09375 0.96875 -3.859375 0.4375 -3.734375 C 0.375 -3.734375 0.34375 -3.6875 0.34375 -3.625 C 0.34375 -3.546875 0.375 -3.5 0.453125 -3.5 C 0.78125 -3.4375 0.890625 -3.125 0.890625 -2.765625 L 0.890625 -0.609375 C 0.890625 -0.375 0.75 -0.3125 0.46875 -0.234375 C 0.359375 -0.203125 0.234375 -0.171875 0.234375 -0.078125 C 0.234375 0 0.3125 0.03125 0.4375 0.03125 Z M 0.4375 0.03125 "/>
</g>
<g id="glyph-0-20">
<path d="M 2.109375 0.15625 C 2.71875 0.15625 3.21875 -0.0625 3.546875 -0.46875 C 3.640625 -0.609375 3.6875 -0.703125 3.6875 -0.78125 C 3.6875 -0.859375 3.640625 -0.921875 3.578125 -0.921875 C 3.546875 -0.921875 3.515625 -0.90625 3.484375 -0.875 C 3.171875 -0.5625 2.921875 -0.453125 2.546875 -0.453125 C 1.703125 -0.453125 1.03125 -1.171875 1.03125 -2.109375 C 1.03125 -3.078125 1.484375 -3.734375 2.125 -3.734375 C 2.359375 -3.734375 2.765625 -3.5 3.0625 -3.28125 C 3.140625 -3.21875 3.1875 -3.171875 3.265625 -3.171875 C 3.4375 -3.171875 3.6875 -3.40625 3.6875 -3.578125 C 3.6875 -3.640625 3.65625 -3.703125 3.578125 -3.765625 C 3.25 -3.984375 2.875 -4.109375 2.4375 -4.109375 C 1.28125 -4.109375 0.34375 -3.078125 0.34375 -1.78125 C 0.34375 -0.6875 1.109375 0.15625 2.109375 0.15625 Z M 2.109375 0.15625 "/>
</g>
<g id="glyph-0-21">
<path d="M 3.546875 0.1875 C 3.578125 0.1875 3.59375 0.1875 3.703125 0.125 C 4.171875 -0.0625 4.5 -0.15625 4.859375 -0.203125 C 4.9375 -0.203125 5 -0.296875 5 -0.390625 C 5 -0.46875 4.953125 -0.484375 4.828125 -0.46875 C 4.65625 -0.453125 4.46875 -0.453125 4.390625 -0.453125 C 4.25 -0.453125 4.1875 -0.640625 4.1875 -1.09375 L 4.1875 -5.578125 C 4.1875 -6.46875 4.25 -6.8125 4.25 -6.921875 C 4.25 -6.96875 4.234375 -6.984375 4.1875 -6.984375 C 4.15625 -6.984375 4.109375 -6.96875 4.0625 -6.953125 C 3.875 -6.875 3.578125 -6.734375 2.984375 -6.59375 C 2.921875 -6.5625 2.90625 -6.515625 2.90625 -6.46875 C 2.90625 -6.40625 2.9375 -6.34375 3 -6.34375 C 3.3125 -6.28125 3.5 -6.15625 3.5 -5.609375 L 3.5 -4.203125 C 3.5 -4.03125 3.453125 -3.96875 3.421875 -3.96875 C 3.390625 -3.96875 3.359375 -3.984375 3.296875 -4 C 3.140625 -4.046875 2.84375 -4.109375 2.578125 -4.109375 C 1.1875 -4.109375 0.34375 -3.03125 0.34375 -1.890625 C 0.34375 -0.890625 1.046875 0.140625 2.1875 0.140625 C 2.84375 0.140625 3.28125 -0.265625 3.484375 -0.5625 L 3.484375 -0.5 C 3.484375 -0.34375 3.4375 -0.046875 3.4375 0.09375 C 3.4375 0.125 3.515625 0.1875 3.546875 0.1875 Z M 2.546875 -0.375 C 2.109375 -0.375 1.046875 -0.609375 1.046875 -2.109375 C 1.046875 -3.4375 1.8125 -3.765625 2.265625 -3.765625 C 3 -3.765625 3.5 -3.1875 3.5 -2.65625 L 3.484375 -0.859375 C 3.234375 -0.578125 2.890625 -0.375 2.546875 -0.375 Z M 2.546875 -0.375 "/>
</g>
<g id="glyph-0-22">
<path d="M 0.546875 0.046875 C 0.546875 0.046875 1.390625 0 1.890625 0 C 2.875 0 3.953125 0.046875 5.28125 0.046875 C 5.390625 0.046875 5.421875 -0.03125 5.421875 -0.125 C 5.46875 -0.53125 5.5625 -0.859375 5.6875 -1.375 C 5.6875 -1.390625 5.703125 -1.40625 5.703125 -1.421875 C 5.703125 -1.515625 5.671875 -1.609375 5.59375 -1.609375 C 5.5 -1.609375 5.390625 -1.390625 5.375 -1.3125 C 5.203125 -0.953125 5.109375 -0.828125 4.859375 -0.609375 C 4.71875 -0.484375 4.4375 -0.34375 4.078125 -0.34375 L 2.84375 -0.34375 C 2.1875 -0.34375 2.078125 -0.546875 2.078125 -0.953125 L 2.078125 -5.625 C 2.078125 -6.015625 2.46875 -6.078125 2.96875 -6.171875 C 3.1875 -6.21875 3.296875 -6.28125 3.296875 -6.375 C 3.296875 -6.453125 3.171875 -6.484375 3 -6.484375 C 2.46875 -6.484375 2.25 -6.453125 1.75 -6.453125 C 1.3125 -6.453125 1.1875 -6.484375 0.640625 -6.484375 C 0.46875 -6.484375 0.359375 -6.453125 0.359375 -6.375 C 0.359375 -6.28125 0.453125 -6.21875 0.6875 -6.171875 C 1.1875 -6.078125 1.296875 -6.03125 1.296875 -5.5625 L 1.296875 -0.953125 C 1.296875 -0.515625 1 -0.34375 0.484375 -0.234375 C 0.453125 -0.234375 0.265625 -0.1875 0.265625 -0.0625 C 0.265625 0 0.359375 0.046875 0.546875 0.046875 Z M 0.546875 0.046875 "/>
</g>
<g id="glyph-0-23">
<path d="M 0.4375 0.03125 C 0.828125 0.03125 0.90625 -0.015625 1.265625 -0.015625 C 1.609375 -0.015625 1.875 0.03125 2.265625 0.03125 C 2.40625 0.03125 2.46875 0 2.46875 -0.078125 C 2.46875 -0.171875 2.375 -0.21875 2.25 -0.234375 C 1.703125 -0.296875 1.59375 -0.40625 1.59375 -0.671875 L 1.59375 -3.359375 C 1.59375 -3.4375 1.625 -3.5 1.78125 -3.5 L 2.921875 -3.5 C 2.953125 -3.5 2.984375 -3.515625 3 -3.578125 C 3.046875 -3.65625 3.0625 -3.765625 3.0625 -3.859375 C 3.0625 -3.921875 3 -3.96875 2.9375 -3.96875 L 1.703125 -3.96875 C 1.640625 -3.96875 1.59375 -3.984375 1.59375 -4.0625 L 1.59375 -4.9375 C 1.59375 -6.0625 2.03125 -6.59375 2.65625 -6.59375 C 3.09375 -6.59375 3.328125 -6.40625 3.5 -6.234375 C 3.625 -6.125 3.703125 -6.015625 3.828125 -6.015625 C 4.015625 -6.015625 4.171875 -6.140625 4.171875 -6.40625 C 4.171875 -6.75 3.8125 -7 3.078125 -7 C 2.21875 -7 0.890625 -6.3125 0.890625 -4.03125 C 0.6875 -3.921875 0.546875 -3.84375 0.3125 -3.734375 C 0.28125 -3.71875 0.234375 -3.703125 0.234375 -3.671875 C 0.234375 -3.609375 0.34375 -3.5 0.375 -3.5 C 0.578125 -3.46875 0.765625 -3.46875 0.890625 -3.46875 L 0.890625 -0.671875 C 0.890625 -0.40625 0.78125 -0.3125 0.46875 -0.234375 C 0.328125 -0.203125 0.234375 -0.171875 0.234375 -0.078125 C 0.234375 0 0.3125 0.03125 0.4375 0.03125 Z M 0.4375 0.03125 "/>
</g>
<g id="glyph-0-24">
<path d="M 0.34375 -1.6875 C 1.015625 -1.75 1.625 -1.84375 2.21875 -1.9375 C 2.375 -1.953125 2.4375 -2.21875 2.4375 -2.46875 C 2.4375 -2.515625 2.390625 -2.53125 2.34375 -2.53125 C 1.71875 -2.453125 1.078125 -2.375 0.453125 -2.28125 C 0.34375 -2.265625 0.28125 -1.96875 0.28125 -1.75 C 0.28125 -1.703125 0.296875 -1.6875 0.34375 -1.6875 Z M 0.34375 -1.6875 "/>
</g>
<g id="glyph-0-25">
<path d="M 2 -1.046875 C 2.84375 -1.046875 3.578125 -1.921875 3.578125 -2.921875 C 3.578125 -3.109375 3.609375 -3.296875 3.625 -3.390625 C 3.65625 -3.4375 3.75 -3.46875 3.921875 -3.46875 L 4.203125 -3.46875 C 4.21875 -3.46875 4.25 -3.484375 4.28125 -3.515625 C 4.328125 -3.578125 4.375 -3.65625 4.375 -3.703125 C 4.375 -3.796875 4.3125 -3.84375 4.25 -3.84375 C 4.140625 -3.84375 3.859375 -3.8125 3.703125 -3.8125 C 3.5 -3.8125 3.359375 -3.828125 3.03125 -3.921875 C 2.765625 -4 2.5 -4.125 2.109375 -4.125 C 1.203125 -4.125 0.390625 -3.484375 0.390625 -2.5625 C 0.390625 -2.03125 0.71875 -1.546875 1.1875 -1.28125 C 1.09375 -1.15625 1.015625 -1.09375 0.625 -0.796875 C 0.46875 -0.671875 0.390625 -0.5625 0.390625 -0.4375 C 0.390625 -0.0625 0.640625 0.15625 1.265625 0.28125 C 0.96875 0.53125 0.625 0.78125 0.4375 0.9375 C 0.203125 1.125 0.109375 1.34375 0.109375 1.6875 C 0.109375 2.421875 0.796875 2.875 1.9375 2.875 C 3 2.875 4.140625 1.78125 4.140625 0.765625 C 4.140625 0.15625 3.5625 -0.171875 2.34375 -0.234375 C 1.5 -0.28125 1.046875 -0.453125 1.046875 -0.734375 C 1.046875 -0.859375 1.234375 -1.03125 1.46875 -1.15625 C 1.640625 -1.078125 1.8125 -1.046875 2 -1.046875 Z M 2.046875 -1.40625 C 1.53125 -1.40625 1.09375 -1.984375 1.09375 -2.671875 C 1.09375 -3.28125 1.515625 -3.828125 1.984375 -3.828125 C 2.46875 -3.828125 2.921875 -3.296875 2.921875 -2.734375 C 2.921875 -1.96875 2.546875 -1.40625 2.046875 -1.40625 Z M 0.859375 1.53125 C 0.859375 1.03125 1.046875 0.71875 1.625 0.328125 C 1.75 0.34375 1.90625 0.359375 2.046875 0.359375 C 3.109375 0.4375 3.546875 0.640625 3.546875 1.078125 C 3.546875 1.53125 3.34375 1.96875 3.015625 2.21875 C 2.78125 2.390625 2.46875 2.484375 2.078125 2.484375 C 1.390625 2.484375 0.859375 2.0625 0.859375 1.53125 Z M 0.859375 1.53125 "/>
</g>
<g id="glyph-0-26">
<path d="M 0.390625 2.828125 C 0.78125 2.828125 0.84375 2.78125 1.1875 2.78125 C 1.53125 2.78125 1.734375 2.828125 2.125 2.828125 C 2.203125 2.828125 2.34375 2.8125 2.34375 2.734375 C 2.34375 2.640625 2.21875 2.59375 2.109375 2.5625 C 1.921875 2.5 1.53125 2.453125 1.53125 2.1875 L 1.53125 0.328125 C 1.53125 0.265625 1.546875 -0.171875 1.578125 -0.171875 C 1.78125 0 2.296875 0.140625 2.5625 0.140625 C 3.8125 0.140625 4.796875 -1.046875 4.796875 -2.234375 C 4.796875 -3.171875 4.203125 -4.109375 3.171875 -4.109375 C 2.546875 -4.109375 1.75 -3.640625 1.5625 -3.453125 C 1.5625 -3.46875 1.5625 -3.5 1.5625 -3.546875 C 1.5625 -3.703125 1.609375 -4.015625 1.609375 -4.140625 C 1.609375 -4.171875 1.578125 -4.234375 1.546875 -4.234375 C 1.53125 -4.234375 1.53125 -4.21875 1.53125 -4.21875 C 1.203125 -4.09375 0.890625 -3.9375 0.375 -3.8125 C 0.34375 -3.8125 0.3125 -3.765625 0.3125 -3.703125 C 0.3125 -3.640625 0.34375 -3.578125 0.390625 -3.578125 C 0.71875 -3.5 0.84375 -3 0.84375 -2.84375 L 0.84375 2.1875 C 0.84375 2.453125 0.609375 2.5 0.421875 2.5625 C 0.3125 2.59375 0.1875 2.640625 0.1875 2.734375 C 0.1875 2.8125 0.328125 2.828125 0.390625 2.828125 Z M 2.71875 -0.171875 C 2.1875 -0.171875 1.53125 -0.84375 1.53125 -1.640625 C 1.53125 -1.890625 1.5625 -2.5625 1.5625 -3.140625 C 1.5625 -3.28125 2.1875 -3.65625 2.65625 -3.65625 C 3.078125 -3.65625 4.015625 -3.4375 4.015625 -1.921875 C 4.015625 -0.578125 3.109375 -0.171875 2.71875 -0.171875 Z M 2.71875 -0.171875 "/>
</g>
<g id="glyph-0-27">
<path d="M 0.484375 0.03125 C 0.890625 0.03125 0.9375 -0.015625 1.296875 -0.015625 C 1.640625 -0.015625 1.75 0.03125 2.15625 0.03125 C 2.296875 0.03125 2.34375 0 2.34375 -0.078125 C 2.34375 -0.171875 2.265625 -0.203125 2.125 -0.234375 C 1.796875 -0.34375 1.59375 -0.4375 1.59375 -0.609375 L 1.59375 -2.625 C 1.59375 -3.28125 1.96875 -3.453125 2.28125 -3.453125 C 2.375 -3.453125 2.484375 -3.40625 2.59375 -3.359375 C 2.703125 -3.3125 2.796875 -3.28125 2.875 -3.28125 C 3.078125 -3.28125 3.265625 -3.59375 3.265625 -3.796875 C 3.265625 -3.96875 3.0625 -4.109375 2.78125 -4.109375 C 2.40625 -4.109375 1.96875 -3.8125 1.640625 -3.4375 C 1.640625 -3.4375 1.625 -3.4375 1.625 -3.453125 C 1.640625 -3.765625 1.65625 -4.125 1.65625 -4.203125 C 1.65625 -4.234375 1.640625 -4.265625 1.609375 -4.265625 C 1.578125 -4.265625 1.53125 -4.25 1.453125 -4.203125 C 1.25 -4.0625 0.828125 -3.8125 0.46875 -3.703125 C 0.4375 -3.703125 0.390625 -3.65625 0.390625 -3.59375 C 0.390625 -3.53125 0.4375 -3.46875 0.484375 -3.46875 C 0.8125 -3.390625 0.890625 -3.109375 0.890625 -2.75 L 0.890625 -0.609375 C 0.890625 -0.421875 0.765625 -0.296875 0.515625 -0.234375 C 0.359375 -0.203125 0.28125 -0.171875 0.28125 -0.078125 C 0.28125 0 0.34375 0.03125 0.484375 0.03125 Z M 0.484375 0.03125 "/>
</g>
<g id="glyph-1-0">
<path d="M 2.984375 0.203125 C 3.296875 0.203125 4.109375 -0.5625 4.109375 -0.96875 C 4.109375 -1.015625 4.0625 -1.09375 4.046875 -1.09375 C 4 -1.09375 3.953125 -1.078125 3.890625 -0.96875 C 3.703125 -0.671875 3.4375 -0.390625 3.1875 -0.390625 C 3.046875 -0.390625 2.921875 -0.53125 2.875 -0.671875 L 2.40625 -1.75 C 2.375 -1.828125 2.390625 -1.84375 2.453125 -1.859375 C 3.140625 -2.046875 4.484375 -2.96875 4.484375 -3.671875 C 4.484375 -3.96875 4.171875 -4.125 3.90625 -4.125 C 3.234375 -4.125 2.375 -3.5 1.703125 -2.5625 C 1.640625 -2.484375 1.5625 -2.453125 1.609375 -2.59375 L 2.953125 -6.671875 C 2.96875 -6.765625 2.96875 -6.796875 2.96875 -6.90625 C 2.96875 -7 2.875 -7 2.8125 -7 C 2.65625 -7 2 -6.78125 1.703125 -6.640625 C 1.65625 -6.625 1.640625 -6.578125 1.640625 -6.53125 C 1.640625 -6.484375 1.765625 -6.4375 1.890625 -6.390625 C 2.03125 -6.34375 2.109375 -6.265625 2.109375 -6.1875 C 2.109375 -6.03125 2.09375 -5.875 2.015625 -5.625 L 0.359375 -0.484375 C 0.296875 -0.28125 0.28125 -0.125 0.28125 -0.0625 C 0.28125 0.046875 0.4375 0.15625 0.53125 0.15625 C 0.6875 0.15625 0.71875 0.0625 0.796875 -0.15625 C 0.859375 -0.34375 1.1875 -1.15625 1.265625 -1.34375 C 1.3125 -1.484375 1.4375 -1.765625 1.53125 -1.765625 C 1.75 -1.765625 1.90625 -1.546875 1.984375 -1.328125 L 2.359375 -0.28125 C 2.5 0.046875 2.671875 0.203125 2.984375 0.203125 Z M 1.9375 -2.015625 C 1.859375 -2.015625 1.828125 -2.109375 1.828125 -2.1875 C 1.828125 -2.453125 2.875 -3.6875 3.4375 -3.6875 C 3.671875 -3.6875 3.796875 -3.578125 3.796875 -3.375 C 3.796875 -2.9375 2.765625 -2.015625 1.9375 -2.015625 Z M 1.9375 -2.015625 "/>
</g>
<g id="glyph-2-0">
<path d="M 0.703125 0.015625 C 1.078125 0.015625 1.40625 -0.015625 1.765625 -0.015625 C 2.125 -0.015625 2.421875 0.015625 2.8125 0.015625 C 2.859375 0.015625 2.90625 -0.015625 2.90625 -0.0625 C 2.90625 -0.109375 2.84375 -0.140625 2.78125 -0.15625 C 2.234375 -0.28125 2.0625 -0.328125 2.0625 -0.671875 L 2.0625 -3.859375 C 2.0625 -4.0625 2.078125 -4.234375 2.09375 -4.359375 C 2.09375 -4.40625 2.046875 -4.421875 2 -4.421875 C 1.984375 -4.421875 1.96875 -4.421875 1.953125 -4.421875 C 1.640625 -4.109375 1.296875 -4.046875 0.875 -3.984375 C 0.765625 -3.984375 0.703125 -3.921875 0.703125 -3.859375 C 0.703125 -3.78125 0.78125 -3.734375 0.875 -3.734375 C 1.171875 -3.703125 1.453125 -3.65625 1.453125 -3.390625 L 1.453125 -0.75 C 1.453125 -0.359375 1.21875 -0.28125 0.703125 -0.15625 C 0.65625 -0.140625 0.609375 -0.109375 0.609375 -0.0625 C 0.609375 -0.015625 0.640625 0.015625 0.703125 0.015625 Z M 0.703125 0.015625 "/>
</g>
<g id="glyph-2-1">
<path d="M 2.796875 0.015625 C 2.84375 0.015625 2.921875 0 2.953125 -0.140625 C 3.015625 -0.46875 3.15625 -0.78125 3.171875 -0.890625 C 3.171875 -0.9375 3.171875 -0.984375 3.125 -0.984375 C 3.046875 -0.984375 2.96875 -0.875 2.9375 -0.828125 C 2.78125 -0.546875 2.671875 -0.5 2.28125 -0.484375 C 2.046875 -0.46875 1.765625 -0.453125 1.515625 -0.453125 C 1.265625 -0.453125 1.0625 -0.46875 0.90625 -0.484375 C 0.84375 -0.484375 0.8125 -0.5 0.8125 -0.53125 C 0.8125 -0.5625 1.921875 -1.640625 2.234375 -2.015625 C 2.53125 -2.359375 2.75 -2.859375 2.75 -3.234375 C 2.75 -3.90625 2.328125 -4.375 1.640625 -4.375 C 0.84375 -4.375 0.265625 -3.6875 0.265625 -3.46875 C 0.265625 -3.34375 0.328125 -3.265625 0.375 -3.265625 C 0.421875 -3.265625 0.46875 -3.3125 0.5 -3.359375 C 0.703125 -3.6875 1.03125 -3.921875 1.40625 -3.921875 C 1.796875 -3.921875 2.125 -3.609375 2.125 -3.140625 C 2.125 -2.515625 1.796875 -1.90625 1.328125 -1.421875 L 0.171875 -0.203125 C 0.125 -0.15625 0.109375 -0.15625 0.109375 -0.109375 C 0.109375 -0.0625 0.203125 0.015625 0.25 0.015625 C 0.375 0.015625 1.4375 -0.015625 1.796875 -0.015625 C 2.15625 -0.015625 2.65625 0.015625 2.796875 0.015625 Z M 2.796875 0.015625 "/>
</g>
</g>
<clipPath id="clip-0">
<path clip-rule="nonzero" d="M 0.0429688 1 L 91 1 L 91 58 L 0.0429688 58 Z M 0.0429688 1 "/>
</clipPath>
<clipPath id="clip-1">
<path clip-rule="nonzero" d="M 0.0429688 0.816406 L 96 0.816406 L 96 63 L 0.0429688 63 Z M 0.0429688 0.816406 "/>
</clipPath>
<clipPath id="clip-2">
<rect x="0" y="0" width="312" height="92"/>
</clipPath>
<g id="source-5" clip-path="url(#clip-2)">
<g clip-path="url(#clip-0)">
<path fill-rule="nonzero" fill="rgb(86.665344%, 90.586853%, 93.331909%)" fill-opacity="1" d="M 2.132812 1.210938 L 89.128906 1.210938 C 90.070312 1.210938 90.824219 1.96875 90.824219 2.90625 L 90.824219 56.007812 C 90.824219 56.945312 90.070312 57.703125 89.128906 57.703125 L 2.132812 57.703125 C 1.195312 57.703125 0.4375 56.945312 0.4375 56.007812 L 0.4375 2.90625 C 0.4375 1.96875 1.195312 1.210938 2.132812 1.210938 Z M 2.132812 1.210938 "/>
</g>
<g clip-path="url(#clip-1)">
<path fill="none" stroke-width="0.793701" stroke-linecap="butt" stroke-linejoin="miter" stroke="rgb(8.235168%, 12.548828%, 23.136902%)" stroke-opacity="1" stroke-miterlimit="4" d="M 2.098149 0.397285 L 89.405009 0.397285 C 90.349778 0.397285 91.106377 1.157804 91.106377 2.098653 L 91.106377 55.389904 C 91.106377 56.330753 90.349778 57.091273 89.405009 57.091273 L 2.098149 57.091273 C 1.1573 57.091273 0.396781 56.330753 0.396781 55.389904 L 0.396781 2.098653 C 0.396781 1.157804 1.1573 0.397285 2.098149 0.397285 Z M 2.098149 0.397285 " transform="matrix(0.996441, 0, 0, 0.996441, 0.0421314, 0.815067)"/>
</g>
</g>
<clipPath id="clip-3">
<path clip-rule="nonzero" d="M 220 1 L 311.535156 1 L 311.535156 58 L 220 58 Z M 220 1 "/>
</clipPath>
<clipPath id="clip-4">
<path clip-rule="nonzero" d="M 216 0.816406 L 311.535156 0.816406 L 311.535156 63 L 216 63 Z M 216 0.816406 "/>
</clipPath>
<clipPath id="clip-5">
<rect x="0" y="0" width="312" height="92"/>
</clipPath>
<g id="source-8" clip-path="url(#clip-5)">
<g clip-path="url(#clip-3)">
<path fill-rule="nonzero" fill="rgb(95.292664%, 87.449646%, 89.01825%)" fill-opacity="1" d="M 222.445312 1.210938 L 309.445312 1.210938 C 310.382812 1.210938 311.136719 1.96875 311.136719 2.90625 L 311.136719 56.007812 C 311.136719 56.945312 310.382812 57.703125 309.445312 57.703125 L 222.445312 57.703125 C 221.507812 57.703125 220.753906 56.945312 220.753906 56.007812 L 220.753906 2.90625 C 220.753906 1.96875 221.507812 1.210938 222.445312 1.210938 Z M 222.445312 1.210938 "/>
</g>
<g clip-path="url(#clip-4)">
<path fill="none" stroke-width="0.793701" stroke-linecap="butt" stroke-linejoin="miter" stroke="rgb(61.959839%, 10.588074%, 21.568298%)" stroke-opacity="1" stroke-miterlimit="4" d="M 223.197646 0.397285 L 310.508425 0.397285 C 311.449274 0.397285 312.205874 1.157804 312.205874 2.098653 L 312.205874 55.389904 C 312.205874 56.330753 311.449274 57.091273 310.508425 57.091273 L 223.197646 57.091273 C 222.256797 57.091273 221.500197 56.330753 221.500197 55.389904 L 221.500197 2.098653 C 221.500197 1.157804 222.256797 0.397285 223.197646 0.397285 Z M 223.197646 0.397285 " transform="matrix(0.996441, 0, 0, 0.996441, 0.0421314, 0.815067)"/>
</g>
</g>
<clipPath id="clip-6">
<rect x="0" y="0" width="312" height="92"/>
</clipPath>
<g id="source-11" clip-path="url(#clip-6)">
<path fill="none" stroke-width="0.793701" stroke-linecap="butt" stroke-linejoin="miter" stroke="rgb(8.235168%, 12.548828%, 23.136902%)" stroke-opacity="1" stroke-miterlimit="4" d="M 93.940685 17.407049 L 218.66589 17.407049 " transform="matrix(0.996441, 0, 0, 0.996441, 0.0421314, 0.815067)"/>
<path fill-rule="nonzero" fill="rgb(8.235168%, 12.548828%, 23.136902%)" fill-opacity="1" d="M 212.390625 15.785156 L 218.71875 18.160156 L 212.390625 20.53125 L 213.972656 18.160156 Z M 212.390625 15.785156 "/>
<path fill="none" stroke-width="0.793701" stroke-linecap="butt" stroke-linejoin="miter" stroke="rgb(8.235168%, 12.548828%, 23.136902%)" stroke-opacity="1" stroke-miterlimit="4" d="M 218.66589 40.081508 L 93.940685 40.081508 " transform="matrix(0.996441, 0, 0, 0.996441, 0.0421314, 0.815067)"/>
<path fill-rule="nonzero" fill="rgb(8.235168%, 12.548828%, 23.136902%)" fill-opacity="1" d="M 99.183594 43.128906 L 92.855469 40.753906 L 99.183594 38.378906 L 97.605469 40.753906 Z M 99.183594 43.128906 "/>
</g>
<clipPath id="clip-7">
<rect x="0" y="0" width="312" height="92"/>
</clipPath>
<g id="source-14" clip-path="url(#clip-7)">
<path fill="none" stroke-width="1.190551" stroke-linecap="butt" stroke-linejoin="miter" stroke="rgb(24.705505%, 43.136597%, 54.901123%)" stroke-opacity="1" stroke-dasharray="3.401575 2.267717" stroke-miterlimit="4" d="M 45.749619 85.438267 L 45.749619 59.92558 " transform="matrix(0.996441, 0, 0, 0.996441, 0.0421314, 0.815067)"/>
<path fill-rule="nonzero" fill="rgb(24.705505%, 43.136597%, 54.901123%)" fill-opacity="1" d="M 42.070312 68.832031 L 45.628906 59.339844 L 49.191406 68.832031 L 45.628906 66.460938 Z M 42.070312 68.832031 "/>
</g>
</defs>
<use xlink:href="#source-5" transform="matrix(1, 0, 0, 1, 3, 2)"/>
<g fill="rgb(8.235168%, 12.548828%, 23.136902%)" fill-opacity="1">
<use xlink:href="#glyph-0-0" x="36.870574" y="34.852702"/>
<use xlink:href="#glyph-0-1" x="42.697362" y="34.852702"/>
</g>
<g fill="rgb(8.235168%, 12.548828%, 23.136902%)" fill-opacity="1">
<use xlink:href="#glyph-0-2" x="47.263498" y="34.852702"/>
</g>
<g fill="rgb(8.235168%, 12.548828%, 23.136902%)" fill-opacity="1">
<use xlink:href="#glyph-0-3" x="53.51712" y="34.852702"/>
</g>
<use xlink:href="#source-8" transform="matrix(1, 0, 0, 1, 3, 2)"/>
<g fill="rgb(8.235168%, 12.548828%, 23.136902%)" fill-opacity="1">
<use xlink:href="#glyph-0-0" x="257.685056" y="34.852702"/>
<use xlink:href="#glyph-0-1" x="263.511844" y="34.852702"/>
</g>
<g fill="rgb(8.235168%, 12.548828%, 23.136902%)" fill-opacity="1">
<use xlink:href="#glyph-0-2" x="268.077981" y="34.852702"/>
</g>
<g fill="rgb(8.235168%, 12.548828%, 23.136902%)" fill-opacity="1">
<use xlink:href="#glyph-0-0" x="274.331603" y="34.852702"/>
</g>
<use xlink:href="#source-11" transform="matrix(1, 0, 0, 1, 3, 2)"/>
<g fill="rgb(8.235168%, 12.548828%, 23.136902%)" fill-opacity="1">
<use xlink:href="#glyph-1-0" x="127.494573" y="13.104138"/>
</g>
<g fill="rgb(8.235168%, 12.548828%, 23.136902%)" fill-opacity="1">
<use xlink:href="#glyph-2-0" x="131.713165" y="15.586072"/>
<use xlink:href="#glyph-2-1" x="135.110967" y="15.586072"/>
</g>
<g fill="rgb(8.235168%, 12.548828%, 23.136902%)" fill-opacity="1">
<use xlink:href="#glyph-0-4" x="140.99028" y="13.104138"/>
<use xlink:href="#glyph-0-5" x="144.117091" y="13.104138"/>
<use xlink:href="#glyph-0-6" x="151.839818" y="13.104138"/>
<use xlink:href="#glyph-0-7" x="155.800446" y="13.104138"/>
<use xlink:href="#glyph-0-8" x="158.91733" y="13.104138"/>
<use xlink:href="#glyph-0-9" x="164.029418" y="13.104138"/>
</g>
<g fill="rgb(8.235168%, 12.548828%, 23.136902%)" fill-opacity="1">
<use xlink:href="#glyph-0-10" x="169.220917" y="13.104138"/>
<use xlink:href="#glyph-0-6" x="171.603249" y="13.104138"/>
<use xlink:href="#glyph-0-11" x="175.563876" y="13.104138"/>
<use xlink:href="#glyph-0-12" x="180.675964" y="13.104138"/>
<use xlink:href="#glyph-0-10" x="184.547254" y="13.104138"/>
<use xlink:href="#glyph-0-13" x="186.929586" y="13.104138"/>
</g>
<g fill="rgb(8.235168%, 12.548828%, 23.136902%)" fill-opacity="1">
<use xlink:href="#glyph-0-14" x="123.382592" y="58.29209"/>
<use xlink:href="#glyph-0-15" x="128.038066" y="58.29209"/>
<use xlink:href="#glyph-0-16" x="131.015981" y="58.29209"/>
</g>
<g fill="rgb(8.235168%, 12.548828%, 23.136902%)" fill-opacity="1">
<use xlink:href="#glyph-0-4" x="135.572192" y="58.29209"/>
<use xlink:href="#glyph-0-17" x="138.699003" y="58.29209"/>
<use xlink:href="#glyph-0-18" x="146.024674" y="58.29209"/>
<use xlink:href="#glyph-0-19" x="151.265805" y="58.29209"/>
<use xlink:href="#glyph-0-20" x="153.697769" y="58.29209"/>
</g>
<g fill="rgb(8.235168%, 12.548828%, 23.136902%)" fill-opacity="1">
<use xlink:href="#glyph-0-1" x="157.53928" y="58.29209"/>
<use xlink:href="#glyph-0-21" x="162.45284" y="58.29209"/>
<use xlink:href="#glyph-0-12" x="167.47559" y="58.29209"/>
</g>
<g fill="rgb(8.235168%, 12.548828%, 23.136902%)" fill-opacity="1">
<use xlink:href="#glyph-0-10" x="173.332157" y="58.29209"/>
<use xlink:href="#glyph-0-6" x="175.714489" y="58.29209"/>
<use xlink:href="#glyph-0-11" x="179.675117" y="58.29209"/>
<use xlink:href="#glyph-0-12" x="184.787205" y="58.29209"/>
<use xlink:href="#glyph-0-10" x="188.658494" y="58.29209"/>
<use xlink:href="#glyph-0-13" x="191.040827" y="58.29209"/>
</g>
<use xlink:href="#source-14" transform="matrix(1, 0, 0, 1, 3, 2)"/>
<g fill="rgb(8.235168%, 12.548828%, 23.136902%)" fill-opacity="1">
<use xlink:href="#glyph-0-22" x="54.275005" y="90.77146"/>
<use xlink:href="#glyph-0-12" x="60.072013" y="90.77146"/>
<use xlink:href="#glyph-0-23" x="63.943303" y="90.77146"/>
<use xlink:href="#glyph-0-7" x="67.099893" y="90.77146"/>
<use xlink:href="#glyph-0-24" x="70.216778" y="90.77146"/>
<use xlink:href="#glyph-0-6" x="72.936607" y="90.77146"/>
<use xlink:href="#glyph-0-10" x="76.897235" y="90.77146"/>
<use xlink:href="#glyph-0-19" x="79.279567" y="90.77146"/>
<use xlink:href="#glyph-0-25" x="81.711531" y="90.77146"/>
<use xlink:href="#glyph-0-18" x="86.029508" y="90.77146"/>
<use xlink:href="#glyph-0-12" x="91.270639" y="90.77146"/>
</g>
<g fill="rgb(8.235168%, 12.548828%, 23.136902%)" fill-opacity="1">
<use xlink:href="#glyph-0-21" x="95.042665" y="90.77146"/>
</g>
<g fill="rgb(8.235168%, 12.548828%, 23.136902%)" fill-opacity="1">
<use xlink:href="#glyph-0-26" x="102.050692" y="90.77146"/>
</g>
<g fill="rgb(8.235168%, 12.548828%, 23.136902%)" fill-opacity="1">
<use xlink:href="#glyph-0-10" x="107.05359" y="90.77146"/>
<use xlink:href="#glyph-0-6" x="109.435922" y="90.77146"/>
<use xlink:href="#glyph-0-20" x="113.396549" y="90.77146"/>
</g>
<g fill="rgb(8.235168%, 12.548828%, 23.136902%)" fill-opacity="1">
<use xlink:href="#glyph-0-12" x="117.23806" y="90.77146"/>
<use xlink:href="#glyph-0-8" x="121.10935" y="90.77146"/>
<use xlink:href="#glyph-0-1" x="126.221438" y="90.77146"/>
</g>
<g fill="rgb(8.235168%, 12.548828%, 23.136902%)" fill-opacity="1">
<use xlink:href="#glyph-0-10" x="130.986102" y="90.77146"/>
<use xlink:href="#glyph-0-21" x="133.368434" y="90.77146"/>
<use xlink:href="#glyph-0-12" x="138.391185" y="90.77146"/>
<use xlink:href="#glyph-0-27" x="142.262475" y="90.77146"/>
</g>
<g fill="rgb(8.235168%, 12.548828%, 23.136902%)" fill-opacity="1">
<use xlink:href="#glyph-0-10" x="147.563164" y="90.77146"/>
<use xlink:href="#glyph-0-6" x="149.945496" y="90.77146"/>
<use xlink:href="#glyph-0-11" x="153.906123" y="90.77146"/>
<use xlink:href="#glyph-0-12" x="159.018211" y="90.77146"/>
<use xlink:href="#glyph-0-10" x="162.889501" y="90.77146"/>
</g>
</svg>
