<?xml version="1.0" encoding="UTF-8" standalone="no"?>
<!--
  Cormack and Lehane grades of laryngoscopic view.
  Each panel is the same larynx; the epiglottis and tongue base descend over it:
    Grade I    whole glottis
    Grade II   posterior glottis only
    Grade III  epiglottis only
    Grade IV   neither glottis nor epiglottis
  Edit in Inkscape; `make figures` writes the .svg that notes embed.
-->
<svg width="150mm" height="50mm" viewBox="0 0 150 50" version="1.1"
   xmlns="http://www.w3.org/2000/svg" xmlns:svg="http://www.w3.org/2000/svg"
   xmlns:inkscape="http://www.inkscape.org/namespaces/inkscape"
   xmlns:sodipodi="http://sodipodi.sourceforge.net/DTD/sodipodi-0.dtd">
  <sodipodi:namedview id="namedview" pagecolor="#ffffff" bordercolor="#15203b"
     inkscape:document-units="mm" inkscape:current-layer="layer-figure" />
  <defs id="defs">
    <clipPath id="clip-field" clipPathUnits="userSpaceOnUse"><path d="M 0,0 C 8.4,0 15,5.8 15,13 C 15,20.2 8.4,26 0,26 C -8.4,26 -15,20.2 -15,13 C -15,5.8 -8.4,0 0,0 Z" /></clipPath>
  </defs>
  <g inkscape:label="Figure" inkscape:groupmode="layer" id="layer-figure">

    <g id="panel-1" inkscape:label="Grade I" transform="translate(19,14)">
      <path d="M 0,0 C 8.4,0 15,5.8 15,13 C 15,20.2 8.4,26 0,26 C -8.4,26 -15,20.2 -15,13 C -15,5.8 -8.4,0 0,0 Z" style="fill:#f9f0f1;stroke:#15203b;stroke-width:0.28" />
      <g clip-path="url(#clip-field)">
        <!-- aryepiglottic folds -->
        <path d="M -6.6,8.5 C -8.4,13 -8.2,17.5 -6.6,21.4 L -3.2,21.4 C -4.6,17 -4.6,12.5 -3.4,8.6 Z"
              style="fill:#f3dfe3;stroke:#15203b;stroke-width:0.14" />
        <path d="M 6.6,8.5 C 8.4,13 8.2,17.5 6.6,21.4 L 3.2,21.4 C 4.6,17 4.6,12.5 3.4,8.6 Z"
              style="fill:#f3dfe3;stroke:#15203b;stroke-width:0.14" />
        <!-- glottic aperture -->
        <path id="glottis" d="M 0,7.2 L 3.5,19.6 C 2.2,21.4 -2.2,21.4 -3.5,19.6 Z"
              style="fill:#2b3242;stroke:none" />
        <!-- vocal cords -->
        <path d="M 0,7.2 L 3.5,19.6 L 5.9,19.2 C 4.6,14.6 2.6,10.4 0.9,7.1 Z"
              style="fill:#fdfbfb;stroke:#15203b;stroke-width:0.28" />
        <path d="M 0,7.2 L -3.5,19.6 L -5.9,19.2 C -4.6,14.6 -2.6,10.4 -0.9,7.1 Z"
              style="fill:#fdfbfb;stroke:#15203b;stroke-width:0.28" />
        <!-- arytenoid and corniculate prominences -->
        <path d="M 3.4,19.8 C 5,20.4 5.6,22 4.6,23 C 3.4,24 1.6,23.2 1.5,21.4 Z"
              style="fill:#f3dfe3;stroke:#15203b;stroke-width:0.28" />
        <path d="M -3.4,19.8 C -5,20.4 -5.6,22 -4.6,23 C -3.4,24 -1.6,23.2 -1.5,21.4 Z"
              style="fill:#f3dfe3;stroke:#15203b;stroke-width:0.28" />
        <!-- interarytenoid notch -->
        <path d="M -1.5,21.6 C -0.6,22.4 0.6,22.4 1.5,21.6" style="fill:none;stroke:#15203b;stroke-width:0.14" />
        <path id="tongue-base" d="M -15.5,-1 H 15.5 V 3.2 C 8,4.6 -8,4.6 -15.5,3.2 Z" style="fill:#f9f0f1;stroke:#15203b;stroke-width:0.28" />
        <path id="epiglottis" d="M 0,1.6 C -8.8,1.6 -9.8,3.8 -9.8,6 C -9.8,4.2 -5.6,6.8 0,6.8 C 5.6,6.8 9.8,4.2 9.8,6 C 9.8,3.8 8.8,1.6 0,1.6 Z" style="fill:#f3dfe3;stroke:#15203b;stroke-width:0.28" />
      </g>
      <text x="0" y="-4" style="font-family:'EB Garamond';font-size:3.5px;fill:#15203b;text-anchor:middle">Grade I</text>
    </g>
    <g id="panel-2" inkscape:label="Grade II" transform="translate(56,14)">
      <path d="M 0,0 C 8.4,0 15,5.8 15,13 C 15,20.2 8.4,26 0,26 C -8.4,26 -15,20.2 -15,13 C -15,5.8 -8.4,0 0,0 Z" style="fill:#f9f0f1;stroke:#15203b;stroke-width:0.28" />
      <g clip-path="url(#clip-field)">
        <!-- aryepiglottic folds -->
        <path d="M -6.6,8.5 C -8.4,13 -8.2,17.5 -6.6,21.4 L -3.2,21.4 C -4.6,17 -4.6,12.5 -3.4,8.6 Z"
              style="fill:#f3dfe3;stroke:#15203b;stroke-width:0.14" />
        <path d="M 6.6,8.5 C 8.4,13 8.2,17.5 6.6,21.4 L 3.2,21.4 C 4.6,17 4.6,12.5 3.4,8.6 Z"
              style="fill:#f3dfe3;stroke:#15203b;stroke-width:0.14" />
        <!-- glottic aperture -->
        <path id="glottis" d="M 0,7.2 L 3.5,19.6 C 2.2,21.4 -2.2,21.4 -3.5,19.6 Z"
              style="fill:#2b3242;stroke:none" />
        <!-- vocal cords -->
        <path d="M 0,7.2 L 3.5,19.6 L 5.9,19.2 C 4.6,14.6 2.6,10.4 0.9,7.1 Z"
              style="fill:#fdfbfb;stroke:#15203b;stroke-width:0.28" />
        <path d="M 0,7.2 L -3.5,19.6 L -5.9,19.2 C -4.6,14.6 -2.6,10.4 -0.9,7.1 Z"
              style="fill:#fdfbfb;stroke:#15203b;stroke-width:0.28" />
        <!-- arytenoid and corniculate prominences -->
        <path d="M 3.4,19.8 C 5,20.4 5.6,22 4.6,23 C 3.4,24 1.6,23.2 1.5,21.4 Z"
              style="fill:#f3dfe3;stroke:#15203b;stroke-width:0.28" />
        <path d="M -3.4,19.8 C -5,20.4 -5.6,22 -4.6,23 C -3.4,24 -1.6,23.2 -1.5,21.4 Z"
              style="fill:#f3dfe3;stroke:#15203b;stroke-width:0.28" />
        <!-- interarytenoid notch -->
        <path d="M -1.5,21.6 C -0.6,22.4 0.6,22.4 1.5,21.6" style="fill:none;stroke:#15203b;stroke-width:0.14" />
        <path id="tongue-base" d="M -15.5,-1 H 15.5 V 3.2 C 8,4.6 -8,4.6 -15.5,3.2 Z" style="fill:#f9f0f1;stroke:#15203b;stroke-width:0.28" />
        <path id="epiglottis" d="M 0,1.6 C -8.8,1.6 -9.8,3.8 -9.8,6 C -9.8,12.4 -5.6,15.0 0,15.0 C 5.6,15.0 9.8,12.4 9.8,6 C 9.8,3.8 8.8,1.6 0,1.6 Z" style="fill:#f3dfe3;stroke:#15203b;stroke-width:0.28" />
      </g>
      <text x="0" y="-4" style="font-family:'EB Garamond';font-size:3.5px;fill:#15203b;text-anchor:middle">Grade II</text>
    </g>
    <g id="panel-3" inkscape:label="Grade III" transform="translate(94,14)">
      <path d="M 0,0 C 8.4,0 15,5.8 15,13 C 15,20.2 8.4,26 0,26 C -8.4,26 -15,20.2 -15,13 C -15,5.8 -8.4,0 0,0 Z" style="fill:#f9f0f1;stroke:#15203b;stroke-width:0.28" />
      <g clip-path="url(#clip-field)">
        <!-- aryepiglottic folds -->
        <path d="M -6.6,8.5 C -8.4,13 -8.2,17.5 -6.6,21.4 L -3.2,21.4 C -4.6,17 -4.6,12.5 -3.4,8.6 Z"
              style="fill:#f3dfe3;stroke:#15203b;stroke-width:0.14" />
        <path d="M 6.6,8.5 C 8.4,13 8.2,17.5 6.6,21.4 L 3.2,21.4 C 4.6,17 4.6,12.5 3.4,8.6 Z"
              style="fill:#f3dfe3;stroke:#15203b;stroke-width:0.14" />
        <!-- glottic aperture -->
        <path id="glottis" d="M 0,7.2 L 3.5,19.6 C 2.2,21.4 -2.2,21.4 -3.5,19.6 Z"
              style="fill:#2b3242;stroke:none" />
        <!-- vocal cords -->
        <path d="M 0,7.2 L 3.5,19.6 L 5.9,19.2 C 4.6,14.6 2.6,10.4 0.9,7.1 Z"
              style="fill:#fdfbfb;stroke:#15203b;stroke-width:0.28" />
        <path d="M 0,7.2 L -3.5,19.6 L -5.9,19.2 C -4.6,14.6 -2.6,10.4 -0.9,7.1 Z"
              style="fill:#fdfbfb;stroke:#15203b;stroke-width:0.28" />
        <!-- arytenoid and corniculate prominences -->
        <path d="M 3.4,19.8 C 5,20.4 5.6,22 4.6,23 C 3.4,24 1.6,23.2 1.5,21.4 Z"
              style="fill:#f3dfe3;stroke:#15203b;stroke-width:0.28" />
        <path d="M -3.4,19.8 C -5,20.4 -5.6,22 -4.6,23 C -3.4,24 -1.6,23.2 -1.5,21.4 Z"
              style="fill:#f3dfe3;stroke:#15203b;stroke-width:0.28" />
        <!-- interarytenoid notch -->
        <path d="M -1.5,21.6 C -0.6,22.4 0.6,22.4 1.5,21.6" style="fill:none;stroke:#15203b;stroke-width:0.14" />
        <path id="tongue-base" d="M -15.5,-1 H 15.5 V 3.2 C 8,4.6 -8,4.6 -15.5,3.2 Z" style="fill:#f9f0f1;stroke:#15203b;stroke-width:0.28" />
        <path id="epiglottis" d="M 0,1.6 C -8.8,1.6 -9.8,3.8 -9.8,6 C -9.8,19.2 -5.6,21.8 0,21.8 C 5.6,21.8 9.8,19.2 9.8,6 C 9.8,3.8 8.8,1.6 0,1.6 Z" style="fill:#f3dfe3;stroke:#15203b;stroke-width:0.28" />
      </g>
      <text x="0" y="-4" style="font-family:'EB Garamond';font-size:3.5px;fill:#15203b;text-anchor:middle">Grade III</text>
    </g>
    <g id="panel-4" inkscape:label="Grade IV" transform="translate(131,14)">
      <path d="M 0,0 C 8.4,0 15,5.8 15,13 C 15,20.2 8.4,26 0,26 C -8.4,26 -15,20.2 -15,13 C -15,5.8 -8.4,0 0,0 Z" style="fill:#f9f0f1;stroke:#15203b;stroke-width:0.28" />
      <g clip-path="url(#clip-field)">
        <!-- aryepiglottic folds -->
        <path d="M -6.6,8.5 C -8.4,13 -8.2,17.5 -6.6,21.4 L -3.2,21.4 C -4.6,17 -4.6,12.5 -3.4,8.6 Z"
              style="fill:#f3dfe3;stroke:#15203b;stroke-width:0.14" />
        <path d="M 6.6,8.5 C 8.4,13 8.2,17.5 6.6,21.4 L 3.2,21.4 C 4.6,17 4.6,12.5 3.4,8.6 Z"
              style="fill:#f3dfe3;stroke:#15203b;stroke-width:0.14" />
        <!-- glottic aperture -->
        <path id="glottis" d="M 0,7.2 L 3.5,19.6 C 2.2,21.4 -2.2,21.4 -3.5,19.6 Z"
              style="fill:#2b3242;stroke:none" />
        <!-- vocal cords -->
        <path d="M 0,7.2 L 3.5,19.6 L 5.9,19.2 C 4.6,14.6 2.6,10.4 0.9,7.1 Z"
              style="fill:#fdfbfb;stroke:#15203b;stroke-width:0.28" />
        <path d="M 0,7.2 L -3.5,19.6 L -5.9,19.2 C -4.6,14.6 -2.6,10.4 -0.9,7.1 Z"
              style="fill:#fdfbfb;stroke:#15203b;stroke-width:0.28" />
        <!-- arytenoid and corniculate prominences -->
        <path d="M 3.4,19.8 C 5,20.4 5.6,22 4.6,23 C 3.4,24 1.6,23.2 1.5,21.4 Z"
              style="fill:#f3dfe3;stroke:#15203b;stroke-width:0.28" />
        <path d="M -3.4,19.8 C -5,20.4 -5.6,22 -4.6,23 C -3.4,24 -1.6,23.2 -1.5,21.4 Z"
              style="fill:#f3dfe3;stroke:#15203b;stroke-width:0.28" />
        <!-- interarytenoid notch -->
        <path d="M -1.5,21.6 C -0.6,22.4 0.6,22.4 1.5,21.6" style="fill:none;stroke:#15203b;stroke-width:0.14" />
        <path id="tongue-base" d="M -15.5,-1 H 15.5 V 25.5 C 8,27.5 -8,27.5 -15.5,25.5 Z" style="fill:#f9f0f1;stroke:#15203b;stroke-width:0.28" /><path d="M -9.5,15.4 C -4,13.8 4,13.8 9.5,15.4" style="fill:none;stroke:#15203b;stroke-width:0.14" />
      </g>
      <text x="0" y="-4" style="font-family:'EB Garamond';font-size:3.5px;fill:#15203b;text-anchor:middle">Grade IV</text>
    </g>
  </g>
</svg>
