<svg version="1.1" xmlns="http://www.w3.org/2000/svg" viewBox="0 0 1024.5 400" width="1024.5" height="400" class="excalidraw-svg"><!-- svg-source:excalidraw --><metadata></metadata><defs><style class="style-fonts">
      </style></defs><rect x="0" y="0" width="1024.5" height="400" fill="transparent"></rect><g transform="translate(135.5 212) rotate(0 -1.75 36.25)" stroke="none"><path fill="#e03131" d="M 3.21,0.24 Q 3.21,0.24 3.09,2.11 2.97,3.98 3.21,9.91 3.44,15.84 3.19,26.14 2.94,36.45 2.08,45.92 1.21,55.40 0.52,61.70 -0.17,67.99 -0.25,71.08 -0.33,74.16 0.11,76.02 0.55,77.88 0.58,78.31 0.61,78.73 0.51,79.14 0.40,79.55 0.17,79.91 -0.05,80.27 -0.39,80.53 -0.72,80.79 -1.12,80.94 -1.52,81.08 -1.95,81.09 -2.37,81.09 -2.78,80.97 -3.18,80.84 -3.52,80.59 -3.87,80.34 -4.11,79.99 -4.36,79.64 -4.48,79.23 -4.60,78.83 -4.59,78.40 -4.57,77.98 -4.42,77.58 -4.27,77.18 -4.00,76.85 -3.73,76.53 -3.37,76.30 -3.01,76.07 -2.60,75.97 -2.19,75.88 -1.76,75.91 -1.34,75.95 -0.95,76.12 -0.56,76.29 -0.25,76.58 0.06,76.87 0.26,77.24 0.47,77.61 0.54,78.03 0.62,78.45 0.56,78.87 0.50,79.29 0.31,79.67 0.12,80.05 -0.18,80.34 -0.48,80.64 -0.86,80.83 -1.25,81.01 -1.67,81.07 -2.09,81.12 -2.51,81.04 -2.92,80.95 -3.29,80.74 -3.66,80.53 -3.94,80.21 -4.22,79.89 -4.38,79.50 -4.55,79.11 -4.55,79.11 -4.55,79.11 -5.14,76.67 -5.72,74.23 -5.85,70.82 -5.97,67.42 -5.41,61.15 -4.85,54.88 -4.11,45.61 -3.38,36.33 -3.24,26.21 -3.11,16.08 -3.33,9.78 -3.55,3.48 -3.38,1.62 -3.21,-0.24 -3.14,-0.62 -3.06,-1.01 -2.90,-1.36 -2.73,-1.71 -2.48,-2.01 -2.24,-2.31 -1.93,-2.55 -1.62,-2.78 -1.26,-2.94 -0.90,-3.09 -0.52,-3.16 -0.14,-3.22 0.24,-3.19 0.63,-3.16 1.00,-3.04 1.37,-2.92 1.70,-2.71 2.03,-2.50 2.30,-2.22 2.57,-1.94 2.76,-1.61 2.96,-1.27 3.07,-0.90 3.18,-0.52 3.20,-0.14 3.21,0.24 3.21,0.24 L 3.21,0.24 Z"></path></g><g transform="translate(137.5 214) rotate(0 34.5 -30)" stroke="none"><path fill="#e03131" d="M -2.19,-2.36 Q -2.19,-2.36 1.95,-6.25 6.11,-10.15 12.70,-16.34 19.30,-22.53 26.90,-29.30 34.51,-36.06 41.71,-41.93 48.91,-47.81 53.88,-51.67 58.86,-55.54 63.37,-58.80 67.88,-62.06 68.25,-62.27 68.62,-62.47 69.04,-62.55 69.46,-62.62 69.88,-62.56 70.30,-62.50 70.68,-62.30 71.06,-62.11 71.35,-61.80 71.65,-61.50 71.83,-61.12 72.02,-60.73 72.07,-60.31 72.12,-59.89 72.03,-59.47 71.95,-59.06 71.73,-58.69 71.52,-58.32 71.20,-58.04 70.88,-57.76 70.49,-57.60 70.10,-57.44 69.67,-57.41 69.25,-57.38 68.84,-57.49 68.43,-57.60 68.07,-57.83 67.72,-58.06 67.45,-58.40 67.19,-58.73 67.05,-59.13 66.91,-59.53 66.90,-59.96 66.90,-60.38 67.03,-60.79 67.16,-61.19 67.41,-61.53 67.66,-61.88 68.01,-62.12 68.36,-62.36 68.77,-62.48 69.17,-62.60 69.60,-62.58 70.02,-62.57 70.42,-62.42 70.82,-62.26 71.15,-61.99 71.47,-61.72 71.70,-61.36 71.92,-61.00 72.02,-60.59 72.12,-60.17 72.08,-59.75 72.04,-59.33 71.86,-58.94 71.69,-58.55 71.40,-58.24 71.11,-57.93 71.11,-57.93 71.11,-57.93 66.90,-54.36 62.68,-50.80 57.89,-46.78 53.09,-42.76 46.09,-36.85 39.09,-30.93 31.55,-24.17 24.00,-17.40 17.28,-11.39 10.56,-5.37 6.38,-1.50 2.19,2.36 1.88,2.59 1.57,2.82 1.21,2.96 0.84,3.11 0.46,3.17 0.07,3.22 -0.30,3.18 -0.69,3.15 -1.06,3.02 -1.42,2.89 -1.75,2.68 -2.08,2.46 -2.34,2.18 -2.61,1.89 -2.79,1.55 -2.98,1.21 -3.09,0.84 -3.19,0.46 -3.20,0.07 -3.21,-0.31 -3.12,-0.69 -3.04,-1.07 -2.87,-1.41 -2.70,-1.76 -2.45,-2.06 -2.19,-2.36 -2.19,-2.36 L -2.19,-2.36 Z"></path></g><g transform="translate(219 157.5) rotate(0 28 26.75)" stroke="none"><path fill="#e03131" d="M 2.28,-2.28 Q 2.28,-2.28 3.49,-1.19 4.70,-0.10 8.64,3.45 12.58,7.00 19.46,13.94 26.34,20.87 33.13,27.46 39.91,34.06 44.75,38.82 49.58,43.59 52.06,45.86 54.54,48.14 57.36,50.56 60.19,52.98 60.46,53.31 60.74,53.63 60.90,54.02 61.06,54.42 61.08,54.84 61.11,55.27 61.00,55.68 60.88,56.09 60.65,56.44 60.41,56.79 60.07,57.05 59.74,57.31 59.33,57.45 58.93,57.58 58.51,57.59 58.08,57.59 57.68,57.46 57.28,57.32 56.94,57.07 56.60,56.81 56.36,56.46 56.12,56.11 56.00,55.70 55.89,55.29 55.91,54.87 55.93,54.44 56.08,54.05 56.24,53.65 56.51,53.33 56.78,53.00 57.15,52.78 57.51,52.56 57.93,52.47 58.34,52.37 58.76,52.42 59.19,52.46 59.57,52.64 59.96,52.81 60.27,53.10 60.58,53.40 60.78,53.77 60.98,54.14 61.05,54.56 61.12,54.98 61.05,55.40 60.99,55.82 60.79,56.20 60.59,56.57 60.29,56.87 59.98,57.16 59.59,57.34 59.21,57.52 58.79,57.57 58.37,57.62 57.95,57.53 57.53,57.44 57.17,57.22 56.80,57.00 56.80,57.01 56.80,57.01 53.88,54.59 50.95,52.18 48.34,49.93 45.74,47.69 40.66,43.18 35.57,38.68 28.48,32.24 21.40,25.81 14.58,19.00 7.77,12.19 3.83,8.45 -0.10,4.70 -1.19,3.49 -2.28,2.28 -2.52,1.97 -2.76,1.67 -2.92,1.31 -3.08,0.96 -3.15,0.57 -3.22,0.19 -3.19,-0.19 -3.17,-0.58 -3.05,-0.95 -2.94,-1.32 -2.74,-1.65 -2.54,-1.99 -2.26,-2.26 -1.99,-2.54 -1.65,-2.74 -1.32,-2.94 -0.95,-3.05 -0.58,-3.17 -0.19,-3.19 0.19,-3.22 0.57,-3.15 0.96,-3.08 1.31,-2.92 1.67,-2.76 1.97,-2.52 2.28,-2.28 2.28,-2.28 L 2.28,-2.28 Z"></path></g><g transform="translate(141 293.5) rotate(0 27 21.5)" stroke="none"><path fill="#e03131" d="M 2.20,-2.35 Q 2.20,-2.35 4.52,-0.21 6.84,1.92 12.32,8.57 17.79,15.23 24.93,21.99 32.07,28.76 38.27,32.58 44.48,36.41 50.34,39.79 56.21,43.17 56.55,43.42 56.89,43.68 57.13,44.03 57.37,44.38 57.49,44.78 57.60,45.19 57.58,45.62 57.56,46.04 57.41,46.44 57.25,46.83 56.98,47.16 56.71,47.49 56.35,47.71 55.98,47.93 55.57,48.02 55.15,48.12 54.73,48.07 54.31,48.03 53.92,47.85 53.54,47.68 53.23,47.39 52.91,47.10 52.71,46.72 52.51,46.35 52.44,45.93 52.37,45.51 52.43,45.09 52.50,44.67 52.70,44.30 52.89,43.92 53.20,43.63 53.51,43.33 53.89,43.15 54.28,42.97 54.70,42.92 55.12,42.87 55.54,42.96 55.95,43.05 56.32,43.27 56.68,43.48 56.96,43.80 57.24,44.13 57.40,44.52 57.56,44.91 57.58,45.34 57.61,45.76 57.50,46.17 57.39,46.58 57.15,46.94 56.91,47.29 56.58,47.55 56.24,47.81 55.84,47.95 55.44,48.08 55.01,48.09 54.59,48.09 54.18,47.96 53.78,47.82 53.78,47.82 53.78,47.82 47.47,44.85 41.17,41.88 34.28,37.80 27.39,33.71 19.98,26.60 12.56,19.48 7.45,13.09 2.35,6.70 0.07,4.52 -2.20,2.35 -2.45,2.05 -2.70,1.75 -2.87,1.40 -3.04,1.05 -3.13,0.67 -3.21,0.29 -3.20,-0.09 -3.19,-0.47 -3.08,-0.85 -2.98,-1.22 -2.79,-1.56 -2.60,-1.90 -2.33,-2.19 -2.07,-2.47 -1.74,-2.68 -1.41,-2.89 -1.05,-3.02 -0.68,-3.15 -0.29,-3.19 0.09,-3.22 0.47,-3.16 0.86,-3.11 1.22,-2.96 1.58,-2.81 1.89,-2.58 2.20,-2.35 2.20,-2.35 L 2.20,-2.35 Z"></path></g><g transform="translate(279 211.5) rotate(0 3.75 31.25)" stroke="none"><path fill="#e03131" d="M 3.21,-0.26 Q 3.21,-0.26 3.62,5.05 4.03,10.37 4.96,19.36 5.88,28.34 6.61,36.20 7.35,44.06 7.93,48.93 8.52,53.80 9.30,58.15 10.08,62.51 10.09,62.93 10.10,63.36 9.97,63.77 9.84,64.17 9.59,64.52 9.35,64.86 9.00,65.11 8.65,65.35 8.25,65.48 7.84,65.60 7.41,65.59 6.99,65.57 6.59,65.42 6.19,65.28 5.86,65.01 5.53,64.74 5.31,64.38 5.08,64.02 4.98,63.61 4.88,63.20 4.91,62.77 4.95,62.35 5.12,61.96 5.29,61.57 5.57,61.26 5.86,60.94 6.23,60.73 6.60,60.53 7.02,60.45 7.43,60.37 7.86,60.43 8.28,60.49 8.66,60.68 9.04,60.87 9.34,61.17 9.63,61.47 9.82,61.85 10.01,62.23 10.06,62.66 10.12,63.08 10.04,63.49 9.96,63.91 9.75,64.28 9.54,64.65 9.22,64.93 8.90,65.21 8.51,65.38 8.12,65.55 7.69,65.58 7.27,65.61 6.86,65.51 6.45,65.40 6.09,65.17 5.73,64.94 5.47,64.61 5.20,64.28 5.06,63.88 4.91,63.48 4.91,63.48 4.91,63.48 4.04,59.06 3.17,54.64 2.20,49.67 1.24,44.70 0.34,36.84 -0.55,28.99 -1.43,19.94 -2.31,10.89 -2.76,5.57 -3.21,0.26 -3.20,-0.12 -3.18,-0.51 -3.07,-0.89 -2.97,-1.26 -2.77,-1.60 -2.58,-1.93 -2.31,-2.21 -2.04,-2.49 -1.71,-2.70 -1.38,-2.91 -1.01,-3.03 -0.64,-3.16 -0.25,-3.19 0.12,-3.22 0.51,-3.16 0.89,-3.10 1.25,-2.94 1.61,-2.79 1.92,-2.56 2.23,-2.32 2.48,-2.02 2.72,-1.72 2.89,-1.37 3.06,-1.02 3.13,-0.64 3.21,-0.26 3.21,-0.26 L 3.21,-0.26 Z"></path></g><g transform="translate(285 277) rotate(0 -41 34.5)" stroke="none"><path fill="#e03131" d="M 2.15,2.39 Q 2.15,2.39 -0.76,4.93 -3.68,7.46 -7.33,10.85 -10.98,14.23 -16.28,19.13 -21.57,24.02 -28.42,30.18 -35.26,36.34 -42.45,42.72 -49.65,49.11 -56.08,54.28 -62.52,59.45 -67.00,62.81 -71.49,66.16 -73.79,67.57 -76.10,68.99 -78.36,70.11 -80.62,71.23 -81.01,71.39 -81.40,71.55 -81.83,71.58 -82.25,71.61 -82.66,71.50 -83.07,71.39 -83.43,71.16 -83.78,70.92 -84.04,70.58 -84.30,70.25 -84.44,69.85 -84.58,69.45 -84.59,69.02 -84.59,68.60 -84.46,68.19 -84.33,67.79 -84.07,67.45 -83.82,67.11 -83.47,66.86 -83.12,66.62 -82.71,66.50 -82.31,66.39 -81.88,66.41 -81.46,66.42 -81.06,66.58 -80.66,66.73 -80.34,67.00 -80.01,67.27 -79.79,67.64 -79.56,68.00 -79.47,68.41 -79.37,68.83 -79.42,69.25 -79.46,69.67 -79.63,70.06 -79.81,70.45 -80.10,70.76 -80.38,71.07 -80.76,71.27 -81.13,71.48 -81.55,71.55 -81.97,71.62 -82.39,71.56 -82.81,71.49 -83.19,71.30 -83.56,71.10 -83.86,70.80 -84.15,70.49 -84.34,70.11 -84.52,69.72 -84.57,69.30 -84.62,68.88 -84.53,68.46 -84.44,68.05 -84.23,67.68 -84.01,67.31 -83.69,67.04 -83.37,66.76 -83.37,66.76 -83.37,66.76 -81.42,65.29 -79.47,63.82 -77.43,62.40 -75.39,60.97 -71.00,57.67 -66.62,54.36 -60.30,49.26 -53.98,44.16 -46.73,37.88 -39.48,31.60 -32.62,25.55 -25.76,19.50 -20.47,14.60 -15.17,9.71 -11.49,6.29 -7.81,2.88 -4.98,0.24 -2.15,-2.39 -1.84,-2.62 -1.52,-2.84 -1.15,-2.98 -0.79,-3.12 -0.41,-3.17 -0.02,-3.22 0.36,-3.18 0.74,-3.14 1.11,-3.00 1.47,-2.86 1.79,-2.65 2.12,-2.43 2.38,-2.14 2.64,-1.85 2.82,-1.51 3.00,-1.16 3.10,-0.79 3.20,-0.41 3.20,-0.02 3.20,0.36 3.11,0.74 3.02,1.12 2.84,1.46 2.67,1.81 2.41,2.10 2.15,2.39 2.15,2.39 L 2.15,2.39 Z"></path></g><g transform="translate(194.5 239.5) rotate(0 17.5 8.75)" stroke="none"><path fill="#e03131" d="M 1.50,2.85 Q 1.50,2.85 -1.16,4.10 -3.84,5.35 -4.86,7.73 -5.88,10.10 -6.22,14.08 -6.55,18.05 -5.07,22.67 -3.60,27.29 -0.49,31.44 2.61,35.59 6.36,37.69 10.11,39.79 14.33,39.63 18.54,39.47 22.44,37.63 26.33,35.79 29.97,32.48 33.60,29.17 36.10,24.82 38.60,20.47 38.95,13.54 39.30,6.61 38.29,1.53 37.28,-3.54 33.82,-8.66 30.35,-13.77 26.28,-17.21 22.20,-20.65 18.55,-20.43 14.89,-20.21 11.98,-17.54 9.07,-14.87 6.31,-11.65 3.55,-8.43 0.58,-4.68 -2.38,-0.93 -2.69,-0.64 -2.99,-0.34 -3.37,-0.16 -3.76,0.02 -4.18,0.07 -4.60,0.12 -5.02,0.03 -5.43,-0.04 -5.80,-0.26 -6.17,-0.47 -6.45,-0.79 -6.73,-1.11 -6.89,-1.50 -7.05,-1.90 -7.08,-2.32 -7.11,-2.74 -7.00,-3.15 -6.89,-3.57 -6.66,-3.92 -6.43,-4.28 -6.09,-4.54 -5.76,-4.80 -5.36,-4.94 -4.96,-5.08 -4.53,-5.09 -4.11,-5.09 -3.70,-4.96 -3.30,-4.83 -2.95,-4.58 -2.61,-4.33 -2.37,-3.98 -2.13,-3.63 -2.01,-3.22 -1.89,-2.81 -1.91,-2.39 -1.92,-1.97 -2.07,-1.57 -2.23,-1.17 -2.50,-0.84 -2.77,-0.52 -3.13,-0.29 -3.49,-0.07 -3.90,0.02 -4.32,0.12 -4.74,0.08 -5.16,0.04 -5.55,-0.13 -5.94,-0.30 -6.25,-0.59 -6.56,-0.88 -6.77,-1.25 -6.97,-1.62 -7.05,-2.04 -7.12,-2.46 -7.06,-2.88 -7.00,-3.30 -6.80,-3.68 -6.61,-4.06 -6.61,-4.06 -6.61,-4.06 -3.83,-8.09 -1.05,-12.13 1.93,-16.05 4.92,-19.98 9.45,-23.30 13.98,-26.62 19.71,-26.30 25.44,-25.97 30.61,-21.72 35.77,-17.47 39.83,-11.25 43.89,-5.03 45.04,0.99 46.18,7.01 45.51,15.40 44.84,23.79 41.56,29.08 38.28,34.38 33.72,38.21 29.16,42.05 23.92,44.17 18.68,46.28 12.91,45.96 7.14,45.64 2.28,42.62 -2.57,39.60 -6.19,34.40 -9.82,29.21 -11.34,23.36 -12.87,17.50 -12.13,12.39 -11.40,7.28 -9.24,3.84 -7.08,0.39 -4.29,-1.22 -1.50,-2.85 -1.13,-2.99 -0.77,-3.13 -0.38,-3.18 -0.00,-3.22 0.38,-3.18 0.76,-3.13 1.13,-2.99 1.49,-2.86 1.81,-2.63 2.13,-2.41 2.39,-2.12 2.65,-1.83 2.83,-1.49 3.01,-1.14 3.11,-0.77 3.20,-0.39 3.20,-0.00 3.20,0.38 3.11,0.76 3.01,1.14 2.83,1.48 2.65,1.83 2.40,2.12 2.14,2.41 1.82,2.63 1.50,2.85 1.50,2.85 L 1.50,2.85 Z"></path></g><g transform="translate(94 172.5) rotate(0 22.25 21.75)" stroke="none"><path fill="#e03131" d="M 2.40,-2.15 Q 2.40,-2.15 7.43,3.44 12.47,9.04 19.41,15.81 26.36,22.57 31.81,27.51 37.26,32.45 42.23,36.98 47.20,41.50 47.48,41.83 47.75,42.15 47.91,42.55 48.06,42.94 48.08,43.37 48.11,43.79 47.99,44.20 47.87,44.61 47.63,44.96 47.39,45.31 47.05,45.57 46.72,45.82 46.31,45.95 45.91,46.09 45.48,46.09 45.06,46.09 44.66,45.95 44.25,45.81 43.92,45.55 43.58,45.29 43.34,44.94 43.11,44.59 42.99,44.18 42.88,43.77 42.91,43.34 42.93,42.92 43.09,42.53 43.25,42.13 43.53,41.81 43.80,41.49 44.17,41.27 44.53,41.05 44.95,40.96 45.36,40.87 45.79,40.92 46.21,40.97 46.59,41.15 46.98,41.33 47.29,41.62 47.59,41.91 47.79,42.29 47.99,42.67 48.05,43.09 48.12,43.51 48.05,43.93 47.98,44.34 47.78,44.72 47.58,45.09 47.27,45.38 46.96,45.68 46.57,45.85 46.19,46.03 45.76,46.07 45.34,46.12 44.93,46.02 44.51,45.93 44.15,45.71 43.79,45.49 43.79,45.49 43.79,45.49 38.52,41.24 33.25,36.99 27.55,32.10 21.86,27.20 14.75,20.28 7.65,13.37 2.62,7.76 -2.40,2.15 -2.62,1.83 -2.84,1.51 -2.98,1.15 -3.12,0.79 -3.17,0.40 -3.22,0.02 -3.18,-0.36 -3.13,-0.75 -3.00,-1.11 -2.86,-1.48 -2.64,-1.80 -2.42,-2.12 -2.14,-2.38 -1.85,-2.64 -1.50,-2.82 -1.16,-3.01 -0.78,-3.10 -0.40,-3.20 -0.02,-3.20 0.36,-3.20 0.74,-3.11 1.12,-3.02 1.47,-2.84 1.81,-2.66 2.10,-2.41 2.40,-2.15 2.40,-2.15 L 2.40,-2.15 Z"></path></g><g transform="translate(24 150) rotate(0 2.75 19)" stroke="none"><path fill="#e03131" d="M 3.22,-0.14 Q 3.22,-0.14 3.54,6.47 3.87,13.08 4.64,19.19 5.42,25.30 6.49,28.55 7.56,31.79 8.48,34.36 9.40,36.93 9.50,37.34 9.61,37.76 9.58,38.18 9.55,38.60 9.39,39.00 9.22,39.39 8.94,39.71 8.66,40.03 8.29,40.24 7.93,40.45 7.51,40.54 7.09,40.62 6.67,40.57 6.25,40.51 5.87,40.33 5.48,40.14 5.18,39.85 4.88,39.55 4.68,39.17 4.49,38.79 4.43,38.37 4.37,37.95 4.44,37.53 4.52,37.11 4.73,36.74 4.93,36.37 5.24,36.08 5.56,35.80 5.95,35.62 6.34,35.45 6.76,35.41 7.18,35.38 7.60,35.47 8.01,35.57 8.37,35.80 8.73,36.02 9.00,36.35 9.27,36.68 9.42,37.08 9.57,37.47 9.59,37.90 9.60,38.32 9.48,38.73 9.36,39.14 9.12,39.49 8.87,39.83 8.53,40.09 8.19,40.34 7.78,40.47 7.38,40.59 6.95,40.59 6.53,40.58 6.13,40.44 5.72,40.29 5.39,40.03 5.06,39.77 4.82,39.41 4.59,39.06 4.59,39.06 4.59,39.06 3.21,36.42 1.82,33.78 0.45,29.98 -0.91,26.18 -1.81,19.77 -2.72,13.36 -2.97,6.75 -3.22,0.14 -3.19,-0.24 -3.16,-0.63 -3.04,-1.00 -2.92,-1.37 -2.71,-1.70 -2.50,-2.03 -2.22,-2.30 -1.94,-2.57 -1.61,-2.77 -1.27,-2.96 -0.90,-3.07 -0.52,-3.18 -0.13,-3.20 0.24,-3.21 0.63,-3.14 1.01,-3.06 1.36,-2.89 1.71,-2.73 2.01,-2.48 2.32,-2.24 2.55,-1.93 2.79,-1.62 2.94,-1.26 3.09,-0.90 3.16,-0.52 3.22,-0.13 3.22,-0.14 L 3.22,-0.14 Z"></path></g><g transform="translate(43 139) rotate(0 1.5 18.5)" stroke="none"><path fill="#e03131" d="M 3.21,-0.27 Q 3.21,-0.27 3.67,6.49 4.13,13.25 4.58,19.00 5.04,24.74 5.26,27.93 5.48,31.12 5.55,33.98 5.62,36.84 5.57,37.26 5.53,37.69 5.35,38.07 5.18,38.46 4.89,38.77 4.59,39.08 4.22,39.28 3.85,39.48 3.43,39.55 3.01,39.62 2.59,39.55 2.17,39.49 1.79,39.29 1.42,39.09 1.12,38.79 0.83,38.48 0.65,38.09 0.47,37.71 0.42,37.29 0.37,36.86 0.46,36.45 0.55,36.03 0.77,35.67 0.99,35.30 1.31,35.03 1.63,34.75 2.02,34.59 2.42,34.43 2.84,34.41 3.27,34.38 3.68,34.49 4.09,34.61 4.44,34.84 4.79,35.08 5.05,35.42 5.31,35.75 5.45,36.16 5.59,36.56 5.59,36.98 5.59,37.41 5.46,37.81 5.32,38.21 5.07,38.55 4.81,38.89 4.46,39.13 4.11,39.37 3.70,39.49 3.29,39.60 2.87,39.58 2.44,39.56 2.05,39.41 1.65,39.25 1.33,38.98 1.00,38.70 0.78,38.34 0.56,37.98 0.47,37.56 0.37,37.15 0.37,37.15 0.37,37.15 0.11,34.34 -0.15,31.52 -0.38,28.39 -0.61,25.26 -1.22,19.51 -1.83,13.76 -2.52,7.02 -3.21,0.27 -3.20,-0.11 -3.18,-0.50 -3.08,-0.87 -2.97,-1.25 -2.78,-1.59 -2.58,-1.92 -2.32,-2.20 -2.05,-2.49 -1.72,-2.70 -1.39,-2.91 -1.02,-3.03 -0.65,-3.16 -0.27,-3.19 0.11,-3.22 0.50,-3.16 0.88,-3.10 1.24,-2.95 1.60,-2.80 1.91,-2.57 2.22,-2.33 2.47,-2.03 2.72,-1.73 2.88,-1.38 3.05,-1.03 3.13,-0.65 3.21,-0.27 3.21,-0.27 L 3.21,-0.27 Z"></path></g><g transform="translate(27.5 167.5) rotate(0 8.25 -5.75)" stroke="none"><path fill="#e03131" d="M -2.07,-2.46 Q -2.07,-2.46 0.69,-4.72 3.47,-6.97 6.46,-8.66 9.45,-10.34 13.10,-12.08 16.75,-13.81 17.15,-13.95 17.55,-14.08 17.98,-14.09 18.40,-14.09 18.81,-13.96 19.21,-13.82 19.55,-13.57 19.89,-13.31 20.13,-12.96 20.37,-12.61 20.49,-12.20 20.60,-11.79 20.58,-11.37 20.56,-10.95 20.41,-10.55 20.25,-10.15 19.98,-9.83 19.71,-9.50 19.34,-9.28 18.98,-9.06 18.57,-8.97 18.15,-8.87 17.73,-8.92 17.31,-8.96 16.92,-9.14 16.53,-9.31 16.22,-9.60 15.91,-9.89 15.71,-10.27 15.51,-10.64 15.44,-11.06 15.37,-11.48 15.43,-11.90 15.50,-12.32 15.70,-12.70 15.89,-13.07 16.20,-13.37 16.51,-13.66 16.89,-13.84 17.28,-14.02 17.70,-14.07 18.12,-14.12 18.54,-14.03 18.95,-13.94 19.32,-13.72 19.68,-13.51 19.96,-13.18 20.24,-12.86 20.40,-12.47 20.56,-12.07 20.58,-11.65 20.61,-11.23 20.50,-10.82 20.39,-10.41 20.15,-10.05 19.91,-9.70 19.58,-9.44 19.24,-9.18 19.24,-9.18 19.24,-9.18 15.84,-7.12 12.44,-5.06 9.94,-3.64 7.45,-2.22 4.76,0.12 2.07,2.46 1.75,2.68 1.42,2.89 1.06,3.02 0.69,3.15 0.30,3.18 -0.08,3.22 -0.46,3.17 -0.85,3.11 -1.21,2.96 -1.57,2.81 -1.88,2.59 -2.20,2.36 -2.45,2.06 -2.70,1.76 -2.87,1.41 -3.04,1.06 -3.12,0.68 -3.21,0.30 -3.20,-0.08 -3.19,-0.46 -3.09,-0.84 -2.98,-1.22 -2.79,-1.56 -2.60,-1.90 -2.34,-2.18 -2.07,-2.46 -2.07,-2.46 L -2.07,-2.46 Z"></path></g><g transform="translate(65 151) rotate(0 10 -0.25)" stroke="none"><path fill="#e03131" d="M 3.22,-0.13 Q 3.22,-0.13 3.22,3.31 3.23,6.77 3.72,9.15 4.21,11.52 5.51,13.73 6.80,15.93 9.79,14.34 12.78,12.74 14.05,9.21 15.31,5.67 15.64,1.58 15.97,-2.51 14.45,-6.63 12.93,-10.74 11.21,-13.02 9.49,-15.29 7.14,-13.36 4.80,-11.43 3.32,-9.11 1.83,-6.79 1.58,-6.45 1.32,-6.11 0.97,-5.87 0.63,-5.62 0.22,-5.51 -0.18,-5.39 -0.60,-5.41 -1.03,-5.42 -1.43,-5.58 -1.82,-5.73 -2.15,-6.00 -2.48,-6.27 -2.70,-6.63 -2.92,-6.99 -3.02,-7.41 -3.12,-7.82 -3.07,-8.25 -3.03,-8.67 -2.86,-9.06 -2.69,-9.44 -2.40,-9.76 -2.11,-10.07 -1.74,-10.27 -1.36,-10.47 -0.94,-10.55 -0.53,-10.62 -0.11,-10.56 0.30,-10.49 0.68,-10.30 1.06,-10.10 1.36,-9.80 1.65,-9.49 1.83,-9.11 2.02,-8.73 2.07,-8.31 2.12,-7.88 2.03,-7.47 1.95,-7.05 1.73,-6.68 1.52,-6.32 1.20,-6.04 0.88,-5.76 0.48,-5.60 0.09,-5.44 -0.32,-5.41 -0.75,-5.38 -1.16,-5.49 -1.57,-5.60 -1.92,-5.83 -2.28,-6.07 -2.54,-6.40 -2.80,-6.74 -2.94,-7.14 -3.08,-7.54 -3.09,-7.97 -3.09,-8.39 -2.96,-8.79 -2.83,-9.20 -2.83,-9.20 -2.83,-9.20 -1.43,-12.49 -0.02,-15.78 2.32,-17.95 4.67,-20.12 8.11,-20.41 11.54,-20.69 15.26,-16.87 18.98,-13.05 20.79,-7.56 22.59,-2.07 21.95,2.90 21.31,7.88 19.62,12.16 17.93,16.44 15.40,19.30 12.87,22.16 9.96,22.46 7.05,22.76 4.40,20.93 1.74,19.10 0.03,15.92 -1.67,12.73 -2.16,9.88 -2.65,7.02 -2.94,3.58 -3.22,0.13 -3.19,-0.25 -3.16,-0.64 -3.04,-1.01 -2.91,-1.37 -2.71,-1.70 -2.50,-2.03 -2.22,-2.30 -1.94,-2.57 -1.60,-2.77 -1.26,-2.96 -0.89,-3.07 -0.52,-3.18 -0.13,-3.20 0.25,-3.21 0.63,-3.14 1.01,-3.06 1.37,-2.89 1.72,-2.73 2.02,-2.48 2.32,-2.23 2.55,-1.92 2.79,-1.61 2.94,-1.25 3.09,-0.90 3.16,-0.51 3.22,-0.13 3.22,-0.13 L 3.22,-0.13 Z"></path></g><g transform="translate(88.5 317.5) rotate(0 22.25 -16.75)" stroke="none"><path fill="#e03131" d="M -1.93,-2.58 Q -1.93,-2.58 1.97,-5.75 5.88,-8.92 12.02,-13.46 18.16,-18.00 24.39,-22.46 30.61,-26.92 34.09,-29.14 37.57,-31.36 40.98,-33.47 44.40,-35.58 44.77,-35.78 45.15,-35.98 45.57,-36.05 45.99,-36.12 46.41,-36.05 46.83,-35.99 47.20,-35.79 47.58,-35.59 47.87,-35.28 48.16,-34.98 48.34,-34.59 48.52,-34.21 48.57,-33.78 48.62,-33.36 48.53,-32.95 48.44,-32.53 48.22,-32.17 48.00,-31.80 47.68,-31.52 47.36,-31.25 46.96,-31.09 46.57,-30.93 46.14,-30.91 45.72,-30.88 45.31,-31.00 44.90,-31.11 44.55,-31.34 44.19,-31.58 43.94,-31.92 43.68,-32.26 43.54,-32.66 43.40,-33.06 43.40,-33.49 43.40,-33.91 43.54,-34.31 43.67,-34.72 43.93,-35.06 44.18,-35.40 44.53,-35.64 44.88,-35.88 45.29,-35.99 45.70,-36.11 46.13,-36.08 46.55,-36.06 46.95,-35.91 47.34,-35.75 47.67,-35.48 47.99,-35.20 48.21,-34.84 48.43,-34.47 48.52,-34.06 48.62,-33.65 48.57,-33.22 48.53,-32.80 48.35,-32.41 48.17,-32.03 47.88,-31.72 47.59,-31.41 47.59,-31.41 47.59,-31.41 44.54,-28.57 41.49,-25.73 38.24,-23.28 35.00,-20.83 28.80,-16.34 22.59,-11.85 16.40,-7.50 10.21,-3.14 6.07,-0.28 1.93,2.58 1.59,2.77 1.26,2.97 0.88,3.07 0.51,3.18 0.12,3.20 -0.26,3.21 -0.64,3.13 -1.02,3.06 -1.37,2.89 -1.72,2.72 -2.02,2.48 -2.33,2.23 -2.56,1.92 -2.79,1.61 -2.94,1.25 -3.10,0.89 -3.16,0.51 -3.22,0.12 -3.19,-0.26 -3.16,-0.64 -3.03,-1.01 -2.91,-1.38 -2.70,-1.71 -2.49,-2.04 -2.21,-2.31 -1.93,-2.58 -1.93,-2.58 L -1.93,-2.58 Z"></path></g><g transform="translate(12.5 324) rotate(0 6 22.5)" stroke="none"><path fill="#e03131" d="M 3.18,-0.51 Q 3.18,-0.51 4.45,6.65 5.72,13.82 7.66,21.32 9.60,28.82 11.13,33.59 12.67,38.36 14.41,40.90 16.15,43.45 16.43,43.77 16.71,44.09 16.88,44.48 17.05,44.87 17.08,45.29 17.11,45.72 17.01,46.13 16.90,46.54 16.67,46.90 16.44,47.25 16.11,47.52 15.78,47.79 15.38,47.93 14.98,48.08 14.56,48.09 14.13,48.10 13.73,47.97 13.32,47.84 12.98,47.60 12.63,47.35 12.39,47.00 12.14,46.65 12.01,46.25 11.89,45.84 11.90,45.42 11.92,44.99 12.06,44.59 12.21,44.20 12.48,43.86 12.75,43.53 13.11,43.31 13.46,43.08 13.88,42.98 14.29,42.88 14.71,42.91 15.14,42.95 15.53,43.12 15.92,43.29 16.23,43.57 16.55,43.86 16.76,44.23 16.96,44.60 17.04,45.01 17.12,45.43 17.06,45.85 17.00,46.27 16.81,46.65 16.62,47.03 16.32,47.33 16.02,47.63 15.64,47.82 15.26,48.01 14.84,48.06 14.42,48.12 14.00,48.04 13.58,47.96 13.21,47.75 12.84,47.54 12.84,47.54 12.84,47.54 11.24,46.14 9.63,44.74 8.40,42.54 7.17,40.34 5.22,35.44 3.27,30.54 1.07,22.73 -1.12,14.92 -2.15,7.71 -3.18,0.51 -3.20,0.12 -3.21,-0.26 -3.13,-0.64 -3.05,-1.02 -2.89,-1.38 -2.72,-1.73 -2.47,-2.03 -2.23,-2.33 -1.91,-2.56 -1.60,-2.79 -1.24,-2.95 -0.89,-3.10 -0.50,-3.16 -0.12,-3.22 0.26,-3.19 0.65,-3.16 1.02,-3.03 1.39,-2.91 1.71,-2.70 2.04,-2.49 2.31,-2.21 2.58,-1.93 2.77,-1.59 2.97,-1.25 3.08,-0.88 3.18,-0.50 3.18,-0.50 L 3.18,-0.51 Z"></path></g><g transform="translate(30.5 320.5) rotate(0 4.75 18.75)" stroke="none"><path fill="#e03131" d="M 3.12,-0.81 Q 3.12,-0.81 4.69,5.83 6.27,12.48 7.83,18.15 9.39,23.82 10.15,27.31 10.91,30.80 11.49,33.89 12.07,36.98 12.09,37.40 12.10,37.83 11.98,38.24 11.86,38.64 11.61,38.99 11.37,39.34 11.02,39.59 10.68,39.84 10.28,39.97 9.87,40.09 9.45,40.09 9.02,40.08 8.62,39.94 8.22,39.79 7.89,39.53 7.55,39.27 7.32,38.91 7.09,38.55 6.98,38.14 6.88,37.73 6.91,37.31 6.94,36.88 7.11,36.49 7.27,36.10 7.55,35.78 7.83,35.46 8.20,35.25 8.57,35.04 8.99,34.95 9.40,34.87 9.82,34.92 10.25,34.98 10.63,35.16 11.01,35.35 11.31,35.65 11.62,35.95 11.81,36.32 12.00,36.70 12.06,37.12 12.12,37.54 12.04,37.96 11.97,38.38 11.76,38.75 11.56,39.12 11.24,39.41 10.93,39.70 10.54,39.87 10.15,40.04 9.73,40.08 9.30,40.11 8.89,40.02 8.48,39.92 8.12,39.69 7.76,39.46 7.49,39.14 7.22,38.81 7.07,38.41 6.92,38.01 6.92,38.01 6.92,38.01 6.28,35.04 5.65,32.07 4.77,28.71 3.89,25.36 2.25,19.66 0.62,13.96 -1.24,7.38 -3.12,0.81 -3.17,0.42 -3.22,0.04 -3.18,-0.34 -3.14,-0.73 -3.01,-1.09 -2.87,-1.46 -2.66,-1.78 -2.44,-2.10 -2.15,-2.36 -1.86,-2.63 -1.52,-2.81 -1.18,-3.00 -0.80,-3.10 -0.43,-3.19 -0.04,-3.20 0.34,-3.20 0.72,-3.12 1.10,-3.03 1.45,-2.85 1.79,-2.68 2.09,-2.42 2.38,-2.17 2.61,-1.85 2.83,-1.53 2.98,-1.17 3.12,-0.81 3.12,-0.81 L 3.12,-0.81 Z"></path></g><g transform="translate(21.5 347.5) rotate(0 11.75 -6.25)" stroke="none"><path fill="#e03131" d="M -1.71,-2.73 Q -1.71,-2.73 1.71,-4.92 5.14,-7.12 9.58,-9.08 14.01,-11.04 18.45,-12.96 22.89,-14.88 23.30,-14.99 23.70,-15.11 24.13,-15.08 24.55,-15.06 24.95,-14.91 25.34,-14.75 25.67,-14.47 25.99,-14.20 26.21,-13.84 26.43,-13.47 26.53,-13.06 26.62,-12.64 26.57,-12.22 26.53,-11.80 26.35,-11.41 26.17,-11.03 25.88,-10.72 25.59,-10.41 25.21,-10.21 24.84,-10.01 24.42,-9.94 24.00,-9.87 23.58,-9.94 23.16,-10.00 22.79,-10.20 22.41,-10.40 22.12,-10.71 21.82,-11.02 21.65,-11.40 21.47,-11.79 21.42,-12.21 21.37,-12.63 21.46,-13.05 21.55,-13.46 21.77,-13.83 21.99,-14.19 22.31,-14.47 22.64,-14.74 23.03,-14.90 23.42,-15.06 23.85,-15.08 24.27,-15.11 24.68,-14.99 25.09,-14.88 25.44,-14.64 25.80,-14.41 26.05,-14.07 26.31,-13.73 26.45,-13.33 26.59,-12.93 26.59,-12.50 26.59,-12.08 26.45,-11.67 26.32,-11.27 26.06,-10.93 25.81,-10.59 25.45,-10.35 25.10,-10.11 25.10,-10.11 25.10,-10.11 20.84,-7.98 16.57,-5.84 12.61,-3.67 8.65,-1.50 5.18,0.61 1.71,2.73 1.35,2.90 1.00,3.06 0.62,3.14 0.24,3.21 -0.14,3.20 -0.53,3.18 -0.90,3.07 -1.28,2.96 -1.61,2.76 -1.95,2.57 -2.23,2.29 -2.51,2.02 -2.71,1.69 -2.92,1.36 -3.04,0.99 -3.16,0.62 -3.19,0.24 -3.22,-0.14 -3.16,-0.53 -3.09,-0.91 -2.94,-1.27 -2.78,-1.62 -2.55,-1.93 -2.31,-2.24 -2.01,-2.49 -1.71,-2.73 -1.71,-2.73 L -1.71,-2.73 Z"></path></g><g transform="translate(54.5 327.5) rotate(0 10 9)" stroke="none"><path fill="#e03131" d="M 3.17,0.58 Q 3.17,0.58 2.61,4.45 2.05,8.32 2.95,12.53 3.85,16.73 5.52,20.85 7.19,24.97 9.13,27.38 11.07,29.78 14.05,25.30 17.03,20.83 17.92,15.69 18.80,10.54 18.21,4.95 17.62,-0.63 15.43,-4.96 13.24,-9.30 10.21,-7.47 7.17,-5.65 5.89,-3.45 4.61,-1.25 3.29,2.05 1.98,5.35 1.78,5.73 1.57,6.10 1.26,6.39 0.95,6.68 0.57,6.86 0.18,7.03 -0.23,7.07 -0.66,7.12 -1.07,7.02 -1.49,6.93 -1.85,6.71 -2.21,6.48 -2.48,6.16 -2.76,5.83 -2.91,5.44 -3.06,5.04 -3.08,4.62 -3.10,4.19 -2.99,3.78 -2.87,3.37 -2.63,3.02 -2.39,2.67 -2.05,2.42 -1.71,2.17 -1.30,2.03 -0.90,1.90 -0.48,1.90 -0.05,1.91 0.34,2.04 0.74,2.18 1.08,2.44 1.42,2.70 1.65,3.06 1.89,3.41 2.00,3.82 2.11,4.23 2.08,4.65 2.06,5.08 1.90,5.47 1.74,5.87 1.46,6.19 1.18,6.51 0.81,6.73 0.45,6.94 0.03,7.03 -0.37,7.12 -0.79,7.07 -1.22,7.02 -1.60,6.84 -1.99,6.66 -2.29,6.36 -2.60,6.07 -2.79,5.69 -2.99,5.31 -3.06,4.89 -3.12,4.47 -3.05,4.06 -2.98,3.64 -2.98,3.64 -2.98,3.64 -1.82,-0.22 -0.66,-4.08 0.72,-6.84 2.11,-9.61 5.04,-12.86 7.96,-16.11 13.13,-14.48 18.31,-12.85 21.23,-7.15 24.15,-1.44 24.76,5.08 25.38,11.62 24.36,17.42 23.35,23.22 21.43,27.91 19.52,32.60 16.67,34.69 13.83,36.79 9.91,35.69 5.99,34.59 3.24,31.17 0.49,27.75 -1.42,22.89 -3.35,18.03 -4.14,12.61 -4.92,7.19 -4.05,3.30 -3.17,-0.58 -3.05,-0.95 -2.94,-1.33 -2.73,-1.66 -2.53,-1.99 -2.26,-2.27 -1.98,-2.54 -1.65,-2.74 -1.31,-2.94 -0.94,-3.06 -0.57,-3.17 -0.18,-3.19 0.20,-3.22 0.58,-3.15 0.96,-3.08 1.32,-2.91 1.67,-2.75 1.98,-2.51 2.28,-2.27 2.52,-1.97 2.76,-1.66 2.92,-1.30 3.08,-0.95 3.15,-0.57 3.22,-0.18 3.19,0.19 3.17,0.58 3.17,0.58 L 3.17,0.58 Z"></path></g><g transform="translate(289 209.5) rotate(0 28.5 -23)" stroke="none"><path fill="#e03131" d="M 2.88,1.44 Q 2.88,1.44 2.43,2.65 1.97,3.86 1.74,4.21 1.51,4.56 1.20,4.85 0.89,5.13 0.52,5.34 0.15,5.54 -0.25,5.65 -0.66,5.76 -1.08,5.77 -1.50,5.77 -1.91,5.68 -2.32,5.59 -2.70,5.40 -3.07,5.21 -3.40,4.94 -3.72,4.66 -3.96,4.32 -4.21,3.98 -4.37,3.59 -4.52,3.20 -4.58,2.78 -4.64,2.36 -4.60,1.94 -4.56,1.52 -4.41,1.13 -4.27,0.73 -2.13,-0.93 0.00,-2.60 3.17,-5.30 6.33,-8.00 12.58,-13.52 18.84,-19.04 26.86,-25.79 34.88,-32.53 41.36,-37.77 47.84,-43.01 53.59,-47.52 59.33,-52.03 59.70,-52.24 60.07,-52.45 60.48,-52.54 60.90,-52.62 61.32,-52.57 61.74,-52.51 62.12,-52.33 62.51,-52.14 62.81,-51.85 63.11,-51.55 63.31,-51.17 63.50,-50.79 63.56,-50.37 63.62,-49.95 63.55,-49.53 63.47,-49.11 63.26,-48.74 63.06,-48.37 62.74,-48.08 62.43,-47.80 62.04,-47.62 61.65,-47.45 61.23,-47.41 60.81,-47.38 60.39,-47.47 59.98,-47.57 59.62,-47.80 59.26,-48.02 58.99,-48.35 58.72,-48.68 58.57,-49.08 58.42,-49.48 58.40,-49.90 58.39,-50.33 58.51,-50.73 58.63,-51.14 58.88,-51.49 59.12,-51.83 59.46,-52.09 59.81,-52.34 60.21,-52.47 60.62,-52.59 61.04,-52.59 61.47,-52.58 61.87,-52.44 62.27,-52.29 62.60,-52.03 62.93,-51.77 63.17,-51.41 63.40,-51.06 63.50,-50.64 63.61,-50.23 63.58,-49.81 63.55,-49.38 63.39,-48.99 63.22,-48.60 62.94,-48.28 62.66,-47.96 62.66,-47.96 62.66,-47.96 57.20,-43.29 51.74,-38.62 45.77,-32.78 39.80,-26.95 32.05,-19.82 24.30,-12.70 17.80,-7.22 11.30,-1.75 6.64,1.05 1.97,3.86 1.74,4.21 1.51,4.56 1.20,4.85 0.89,5.13 0.52,5.34 0.15,5.54 -0.25,5.65 -0.66,5.76 -1.08,5.77 -1.50,5.77 -1.91,5.68 -2.32,5.59 -2.70,5.40 -3.07,5.21 -3.40,4.94 -3.72,4.66 -3.96,4.32 -4.21,3.98 -4.37,3.59 -4.52,3.20 -4.58,2.78 -4.64,2.36 -4.60,1.94 -4.56,1.53 -4.41,1.13 -4.27,0.73 -3.58,-0.35 -2.88,-1.44 -2.67,-1.76 -2.45,-2.09 -2.17,-2.35 -1.88,-2.62 -1.54,-2.80 -1.20,-2.99 -0.82,-3.09 -0.45,-3.19 -0.06,-3.20 0.32,-3.21 0.70,-3.12 1.08,-3.04 1.43,-2.86 1.78,-2.69 2.07,-2.43 2.37,-2.18 2.60,-1.87 2.82,-1.55 2.97,-1.19 3.11,-0.83 3.17,-0.44 3.22,-0.06 3.18,0.32 3.14,0.71 3.01,1.07 2.88,1.44 2.88,1.44 L 2.88,1.44 Z"></path></g><g transform="translate(349 157) rotate(0 25.5 20.75)" stroke="none"><path fill="#e03131" d="M 2.24,-2.31 Q 2.24,-2.31 7.06,2.20 11.88,6.72 18.75,12.94 25.62,19.16 31.98,23.92 38.33,28.68 42.52,31.70 46.70,34.73 50.36,37.54 54.02,40.36 54.32,40.66 54.62,40.96 54.81,41.34 55.00,41.72 55.06,42.14 55.12,42.56 55.04,42.97 54.96,43.39 54.76,43.76 54.55,44.13 54.23,44.42 53.92,44.70 53.53,44.87 53.14,45.04 52.71,45.08 52.29,45.11 51.88,45.01 51.47,44.91 51.11,44.68 50.75,44.46 50.48,44.13 50.21,43.80 50.07,43.40 49.92,43.00 49.90,42.57 49.89,42.15 50.01,41.74 50.14,41.34 50.38,40.99 50.63,40.64 50.98,40.39 51.32,40.15 51.73,40.02 52.13,39.89 52.56,39.90 52.98,39.91 53.38,40.06 53.78,40.20 54.11,40.47 54.44,40.73 54.67,41.09 54.90,41.45 55.01,41.86 55.11,42.27 55.08,42.70 55.05,43.12 54.88,43.51 54.71,43.90 54.43,44.22 54.15,44.54 53.78,44.75 53.41,44.96 52.99,45.04 52.57,45.12 52.15,45.06 51.73,45.01 51.35,44.82 50.97,44.63 50.97,44.63 50.97,44.63 47.19,42.15 43.41,39.66 38.88,36.86 34.36,34.06 27.66,29.18 20.96,24.30 14.02,17.99 7.08,11.67 2.41,6.99 -2.24,2.31 -2.49,2.01 -2.73,1.71 -2.90,1.35 -3.06,1.00 -3.14,0.62 -3.21,0.24 -3.20,-0.14 -3.18,-0.53 -3.07,-0.90 -2.96,-1.27 -2.76,-1.61 -2.57,-1.95 -2.30,-2.23 -2.02,-2.51 -1.69,-2.71 -1.36,-2.92 -1.00,-3.04 -0.63,-3.16 -0.24,-3.19 0.14,-3.22 0.52,-3.16 0.91,-3.09 1.27,-2.94 1.62,-2.78 1.93,-2.55 2.24,-2.31 2.24,-2.31 L 2.24,-2.31 Z"></path></g><g transform="translate(407 206.5) rotate(0 22.5 -25.25)" stroke="none"><path fill="#e03131" d="M -2.50,-2.03 Q -2.50,-2.03 1.18,-6.67 4.86,-11.31 9.97,-16.92 15.09,-22.53 20.43,-28.30 25.78,-34.08 30.44,-38.80 35.10,-43.51 37.51,-45.86 39.92,-48.20 42.29,-50.28 44.65,-52.37 45.00,-52.61 45.35,-52.86 45.76,-52.98 46.16,-53.10 46.59,-53.09 47.01,-53.07 47.41,-52.92 47.81,-52.77 48.14,-52.50 48.47,-52.23 48.69,-51.87 48.92,-51.51 49.02,-51.10 49.11,-50.69 49.08,-50.26 49.04,-49.84 48.87,-49.45 48.70,-49.06 48.41,-48.75 48.12,-48.43 47.75,-48.23 47.38,-48.02 46.96,-47.95 46.54,-47.87 46.12,-47.93 45.70,-47.99 45.32,-48.18 44.94,-48.38 44.65,-48.68 44.35,-48.98 44.16,-49.36 43.98,-49.75 43.92,-50.17 43.87,-50.59 43.95,-51.01 44.04,-51.42 44.25,-51.79 44.46,-52.16 44.78,-52.44 45.10,-52.72 45.49,-52.89 45.88,-53.05 46.31,-53.08 46.73,-53.11 47.14,-53.00 47.55,-52.90 47.91,-52.67 48.27,-52.43 48.53,-52.10 48.79,-51.77 48.94,-51.37 49.08,-50.97 49.09,-50.54 49.09,-50.12 48.97,-49.71 48.84,-49.31 48.59,-48.96 48.34,-48.62 48.34,-48.62 48.34,-48.62 46.20,-46.29 44.07,-43.95 41.75,-41.66 39.43,-39.38 34.98,-34.56 30.53,-29.74 25.27,-23.90 20.01,-18.06 15.04,-12.57 10.08,-7.08 6.29,-2.52 2.50,2.03 2.22,2.30 1.94,2.57 1.60,2.77 1.27,2.96 0.89,3.07 0.52,3.18 0.13,3.20 -0.25,3.21 -0.63,3.14 -1.01,3.06 -1.36,2.89 -1.71,2.73 -2.02,2.48 -2.32,2.24 -2.55,1.93 -2.79,1.62 -2.94,1.26 -3.09,0.90 -3.16,0.52 -3.22,0.13 -3.19,-0.25 -3.16,-0.63 -3.04,-1.00 -2.91,-1.37 -2.71,-1.70 -2.50,-2.03 -2.50,-2.03 L -2.50,-2.03 Z"></path></g><g transform="translate(462 147) rotate(0 14 0.25)" stroke="none"><path fill="#e03131" d="M -3.22,0 Q -3.22,0 -3.17,-0.71 -3.12,-1.43 -3.07,-1.81 -3.03,-2.18 -2.89,-2.53 -2.76,-2.88 -2.55,-3.19 -2.33,-3.50 -2.05,-3.75 -1.77,-4.00 -1.44,-4.18 -1.10,-4.35 -0.74,-4.44 -0.37,-4.53 0.00,-4.53 0.37,-4.53 0.74,-4.44 1.10,-4.35 1.44,-4.18 1.77,-4.00 2.05,-3.75 2.33,-3.50 2.55,-3.19 2.76,-2.88 2.90,-2.53 3.03,-2.18 3.07,-1.81 3.12,-1.43 3.16,0.84 3.20,3.12 3.21,6.97 3.21,10.81 3.20,14.31 3.19,17.82 3.29,19.59 3.38,21.37 3.34,21.74 3.29,22.11 3.16,22.46 3.03,22.81 2.82,23.12 2.60,23.43 2.32,23.67 2.04,23.92 1.71,24.09 1.38,24.27 1.02,24.36 0.66,24.45 0.28,24.45 -0.08,24.45 -0.44,24.36 -0.81,24.27 -1.14,24.09 -1.47,23.92 -1.75,23.67 -2.03,23.43 -2.24,23.12 -2.45,22.81 -2.59,22.46 -2.72,22.11 -2.76,21.74 -2.81,21.37 -2.13,18.62 -1.44,15.86 -1.30,12.63 -1.17,9.39 -1.14,4.97 -1.11,0.55 -1.29,-3.35 -1.48,-7.26 -1.43,-7.64 -1.38,-8.02 -1.23,-8.37 -1.09,-8.72 -0.87,-9.03 -0.65,-9.34 -0.37,-9.59 -0.08,-9.84 0.25,-10.01 0.59,-10.18 0.96,-10.26 1.33,-10.35 1.71,-10.34 2.09,-10.34 2.46,-10.24 2.83,-10.15 3.16,-9.96 3.50,-9.78 3.78,-9.53 4.06,-9.27 4.27,-8.95 4.48,-8.64 4.61,-8.28 4.74,-7.92 4.78,-7.54 4.82,-7.17 6.93,-5.13 9.03,-3.09 11.68,0.21 14.34,3.51 16.92,5.74 19.50,7.96 21.53,6.91 23.55,5.86 23.12,0.62 22.70,-4.61 22.22,-8.90 21.74,-13.18 21.61,-16.11 21.47,-19.03 21.20,-20.98 20.93,-22.94 20.91,-23.36 20.88,-23.79 21.00,-24.20 21.11,-24.60 21.35,-24.96 21.59,-25.31 21.93,-25.56 22.27,-25.82 22.67,-25.95 23.08,-26.09 23.50,-26.09 23.93,-26.09 24.33,-25.95 24.73,-25.81 25.07,-25.55 25.41,-25.30 25.64,-24.94 25.88,-24.59 25.99,-24.18 26.11,-23.77 26.08,-23.35 26.06,-22.92 25.90,-22.53 25.74,-22.13 25.47,-21.81 25.19,-21.49 24.82,-21.27 24.46,-21.05 24.04,-20.96 23.63,-20.87 23.21,-20.92 22.78,-20.97 22.40,-21.15 22.01,-21.33 21.71,-21.62 21.40,-21.91 21.20,-22.29 21.00,-22.66 20.94,-23.08 20.87,-23.50 20.94,-23.92 21.01,-24.34 21.21,-24.72 21.41,-25.09 21.72,-25.38 22.03,-25.67 22.41,-25.85 22.80,-26.03 23.22,-26.07 23.65,-26.12 24.06,-26.02 24.47,-25.93 24.84,-25.71 25.20,-25.49 25.48,-25.17 25.75,-24.84 25.91,-24.45 26.06,-24.05 26.06,-24.05 26.06,-24.05 26.70,-21.83 27.33,-19.61 27.75,-16.88 28.16,-14.15 28.98,-9.88 29.80,-5.61 30.37,-1.61 30.94,2.38 30.65,5.40 30.37,8.41 28.99,10.93 27.62,13.44 24.78,14.59 21.94,15.74 18.43,14.70 14.93,13.66 11.72,10.90 8.51,8.13 5.66,4.45 2.80,0.76 0.66,-3.25 -1.48,-7.26 -1.43,-7.64 -1.38,-8.01 -1.23,-8.37 -1.09,-8.72 -0.87,-9.03 -0.65,-9.34 -0.37,-9.59 -0.08,-9.84 0.25,-10.01 0.59,-10.18 0.96,-10.26 1.33,-10.35 1.71,-10.34 2.09,-10.34 2.46,-10.24 2.83,-10.15 3.16,-9.96 3.50,-9.78 3.78,-9.53 4.06,-9.27 4.27,-8.95 4.48,-8.64 4.61,-8.28 4.74,-7.92 4.78,-7.54 4.82,-7.17 4.86,-3.26 4.91,0.64 4.80,5.15 4.70,9.67 4.52,13.24 4.33,16.82 3.86,19.09 3.38,21.37 3.34,21.74 3.29,22.11 3.16,22.46 3.03,22.81 2.82,23.12 2.60,23.43 2.32,23.67 2.04,23.92 1.71,24.09 1.38,24.27 1.02,24.36 0.66,24.45 0.28,24.45 -0.08,24.45 -0.44,24.36 -0.81,24.27 -1.14,24.09 -1.47,23.92 -1.75,23.67 -2.03,23.43 -2.24,23.12 -2.45,22.81 -2.59,22.46 -2.72,22.11 -2.76,21.74 -2.81,21.37 -3.00,19.59 -3.19,17.82 -3.20,14.31 -3.21,10.81 -3.21,6.97 -3.20,3.12 -3.16,0.84 -3.12,-1.43 -3.07,-1.81 -3.03,-2.18 -2.90,-2.53 -2.76,-2.88 -2.55,-3.19 -2.33,-3.50 -2.05,-3.75 -1.77,-4.00 -1.44,-4.18 -1.10,-4.35 -0.74,-4.44 -0.37,-4.53 -0.00,-4.53 0.37,-4.53 0.74,-4.44 1.10,-4.35 1.44,-4.18 1.77,-4.00 2.05,-3.75 2.33,-3.50 2.55,-3.19 2.76,-2.88 2.89,-2.53 3.03,-2.18 3.07,-1.81 3.12,-1.43 3.17,-0.71 3.22,0 3.18,0.38 3.13,0.77 2.99,1.13 2.85,1.50 2.63,1.82 2.41,2.14 2.12,2.39 1.83,2.65 1.48,2.83 1.14,3.01 0.76,3.11 0.38,3.20 -0.00,3.20 -0.38,3.20 -0.76,3.11 -1.14,3.01 -1.48,2.83 -1.83,2.65 -2.12,2.39 -2.41,2.14 -2.63,1.82 -2.85,1.49 -2.99,1.13 -3.13,0.77 -3.18,0.38 -3.22,-0.00 -3.22,-0.00 L -3.22,0 Z"></path></g><g transform="translate(471.5 81.5) rotate(0 -0.25 16.75)" stroke="none"><path fill="#e03131" d="M 3.20,0.35 Q 3.20,0.35 3.11,2.96 3.02,5.57 3.08,10.92 3.15,16.27 3.11,22.04 3.07,27.82 3.09,32.81 3.11,37.81 3.08,38.23 3.04,38.65 2.87,39.04 2.69,39.43 2.41,39.74 2.12,40.06 1.75,40.26 1.38,40.47 0.96,40.55 0.54,40.62 0.12,40.56 -0.29,40.50 -0.67,40.31 -1.05,40.11 -1.35,39.81 -1.64,39.51 -1.83,39.12 -2.01,38.74 -2.07,38.32 -2.12,37.90 -2.04,37.48 -1.95,37.07 -1.74,36.70 -1.53,36.33 -1.21,36.05 -0.89,35.77 -0.50,35.60 -0.10,35.44 0.31,35.41 0.73,35.38 1.14,35.49 1.56,35.59 1.91,35.82 2.27,36.06 2.53,36.39 2.79,36.72 2.94,37.12 3.08,37.52 3.09,37.95 3.09,38.37 2.97,38.78 2.84,39.18 2.59,39.53 2.33,39.87 1.99,40.11 1.64,40.36 1.23,40.48 0.82,40.60 0.40,40.59 -0.01,40.57 -0.41,40.42 -0.81,40.27 -1.14,40.00 -1.47,39.73 -1.69,39.37 -1.92,39.01 -2.02,38.60 -2.11,38.18 -2.11,38.18 -2.11,38.18 -2.82,33.09 -3.52,27.99 -3.87,22.14 -4.21,16.30 -4.19,10.53 -4.17,4.77 -3.69,2.21 -3.20,-0.35 -3.11,-0.73 -3.02,-1.11 -2.85,-1.46 -2.67,-1.80 -2.42,-2.10 -2.16,-2.39 -1.84,-2.61 -1.52,-2.84 -1.16,-2.98 -0.80,-3.12 -0.41,-3.17 -0.03,-3.22 0.35,-3.18 0.74,-3.14 1.10,-3.00 1.47,-2.87 1.79,-2.65 2.11,-2.43 2.37,-2.14 2.63,-1.86 2.82,-1.51 3.00,-1.17 3.10,-0.79 3.20,-0.42 3.20,-0.03 3.20,0.35 3.20,0.35 L 3.20,0.35 Z"></path></g><g transform="translate(453.5 42) rotate(0 0.75 15.5)" stroke="none"><path fill="#e03131" d="M 3.22,0 Q 3.22,0 3.39,6.18 3.55,12.36 3.38,17.00 3.21,21.64 3.29,24.98 3.38,28.32 3.72,31.15 4.07,33.98 4.09,34.40 4.10,34.83 3.98,35.23 3.86,35.64 3.61,35.99 3.37,36.34 3.03,36.59 2.68,36.84 2.28,36.97 1.87,37.09 1.45,37.09 1.02,37.08 0.62,36.94 0.22,36.79 -0.10,36.53 -0.44,36.27 -0.67,35.91 -0.90,35.55 -1.01,35.14 -1.11,34.73 -1.08,34.31 -1.05,33.88 -0.88,33.49 -0.72,33.10 -0.44,32.78 -0.16,32.46 0.20,32.25 0.57,32.04 0.99,31.95 1.40,31.87 1.82,31.92 2.24,31.98 2.63,32.16 3.01,32.35 3.31,32.65 3.62,32.94 3.81,33.32 4.00,33.70 4.06,34.12 4.12,34.54 4.04,34.96 3.97,35.38 3.76,35.75 3.56,36.12 3.24,36.41 2.93,36.70 2.54,36.87 2.15,37.04 1.73,37.08 1.30,37.11 0.89,37.02 0.48,36.92 0.12,36.69 -0.23,36.46 -0.50,36.14 -0.77,35.81 -0.92,35.41 -1.07,35.01 -1.07,35.01 -1.07,35.01 -1.94,31.80 -2.80,28.59 -3.00,25.11 -3.21,21.64 -3.38,17.00 -3.55,12.36 -3.39,6.18 -3.22,0 -3.18,-0.38 -3.13,-0.77 -2.99,-1.13 -2.85,-1.50 -2.63,-1.82 -2.41,-2.14 -2.12,-2.39 -1.83,-2.65 -1.48,-2.83 -1.14,-3.01 -0.76,-3.11 -0.38,-3.20 0.00,-3.20 0.38,-3.20 0.76,-3.11 1.14,-3.01 1.48,-2.83 1.83,-2.65 2.12,-2.39 2.41,-2.14 2.63,-1.82 2.85,-1.49 2.99,-1.13 3.13,-0.77 3.18,-0.38 3.22,0.00 3.22,0.00 L 3.22,0 Z"></path></g><g transform="translate(471.5 39) rotate(0 2.25 11.5)" stroke="none"><path fill="#e03131" d="M 3.18,-0.49 Q 3.18,-0.49 3.87,4.10 4.55,8.71 5.14,13.26 5.73,17.82 6.40,21.91 7.07,26.00 7.09,26.42 7.10,26.85 6.97,27.25 6.85,27.66 6.60,28.00 6.36,28.35 6.01,28.60 5.67,28.85 5.26,28.97 4.85,29.10 4.43,29.09 4.00,29.08 3.60,28.93 3.21,28.78 2.87,28.52 2.54,28.25 2.31,27.89 2.08,27.54 1.98,27.12 1.88,26.71 1.91,26.29 1.95,25.86 2.11,25.47 2.28,25.08 2.56,24.77 2.85,24.45 3.22,24.24 3.59,24.03 4.00,23.95 4.42,23.87 4.84,23.93 5.26,23.98 5.64,24.17 6.02,24.36 6.33,24.66 6.63,24.96 6.82,25.34 7.00,25.72 7.06,26.14 7.12,26.56 7.04,26.98 6.96,27.40 6.75,27.77 6.54,28.14 6.23,28.42 5.91,28.71 5.52,28.87 5.13,29.04 4.71,29.08 4.29,29.11 3.87,29.01 3.46,28.91 3.10,28.68 2.74,28.45 2.48,28.12 2.21,27.79 2.06,27.39 1.92,26.99 1.92,26.99 1.92,26.99 1.00,22.87 0.08,18.74 -0.79,14.21 -1.68,9.68 -2.43,5.09 -3.18,0.49 -3.20,0.10 -3.21,-0.27 -3.13,-0.66 -3.05,-1.04 -2.88,-1.39 -2.71,-1.74 -2.46,-2.04 -2.22,-2.34 -1.90,-2.57 -1.59,-2.80 -1.23,-2.95 -0.87,-3.10 -0.49,-3.16 -0.11,-3.22 0.27,-3.19 0.66,-3.15 1.03,-3.03 1.40,-2.90 1.72,-2.69 2.05,-2.48 2.32,-2.20 2.59,-1.92 2.78,-1.58 2.97,-1.24 3.08,-0.87 3.18,-0.49 3.18,-0.49 L 3.18,-0.49 Z"></path></g><g transform="translate(454 52.5) rotate(0 11.75 -0.25)" stroke="none"><path fill="#e03131" d="M 0.11,-3.22 Q 0.11,-3.22 4.27,-3.06 8.44,-2.91 12.08,-3.00 15.72,-3.09 20.17,-3.59 24.61,-4.09 25.04,-4.09 25.46,-4.08 25.86,-3.94 26.26,-3.79 26.60,-3.53 26.93,-3.27 27.16,-2.91 27.40,-2.56 27.50,-2.15 27.61,-1.74 27.58,-1.31 27.55,-0.89 27.39,-0.50 27.22,-0.10 26.94,0.21 26.66,0.53 26.29,0.74 25.93,0.95 25.51,1.04 25.09,1.12 24.67,1.07 24.25,1.01 23.87,0.83 23.48,0.64 23.18,0.35 22.88,0.05 22.68,-0.32 22.49,-0.70 22.43,-1.12 22.37,-1.54 22.44,-1.96 22.52,-2.38 22.73,-2.75 22.93,-3.12 23.24,-3.41 23.56,-3.69 23.95,-3.87 24.34,-4.04 24.76,-4.08 25.18,-4.11 25.60,-4.02 26.01,-3.92 26.37,-3.69 26.73,-3.47 27.00,-3.14 27.27,-2.81 27.42,-2.41 27.57,-2.02 27.59,-1.59 27.60,-1.17 27.48,-0.76 27.36,-0.35 27.12,-0.00 26.87,0.33 26.53,0.58 26.19,0.84 25.78,0.97 25.38,1.09 25.38,1.09 25.38,1.09 20.73,1.93 16.08,2.76 12.15,3.12 8.22,3.48 4.05,3.35 -0.11,3.22 -0.49,3.16 -0.88,3.10 -1.23,2.95 -1.59,2.80 -1.91,2.57 -2.22,2.34 -2.47,2.04 -2.71,1.74 -2.88,1.39 -3.05,1.03 -3.13,0.65 -3.21,0.27 -3.20,-0.11 -3.18,-0.49 -3.08,-0.87 -2.97,-1.24 -2.78,-1.58 -2.59,-1.92 -2.32,-2.20 -2.05,-2.48 -1.72,-2.69 -1.40,-2.90 -1.03,-3.03 -0.66,-3.15 -0.27,-3.19 0.11,-3.22 0.11,-3.22 L 0.11,-3.22 Z"></path></g><g transform="translate(515 162.5) rotate(0 19.5 18.25)" stroke="none"><path fill="#1e1e1e" d="M 2.10,-2.44 Q 2.10,-2.44 5.44,0.08 8.78,2.60 13.54,6.65 18.30,10.69 22.90,15.16 27.49,19.63 31.19,23.51 34.89,27.39 36.88,29.25 38.88,31.11 41.08,33.34 43.29,35.58 43.55,35.91 43.81,36.25 43.95,36.65 44.08,37.05 44.09,37.48 44.09,37.90 43.96,38.31 43.82,38.71 43.57,39.05 43.31,39.39 42.96,39.63 42.61,39.87 42.21,39.99 41.80,40.10 41.37,40.08 40.95,40.06 40.55,39.91 40.16,39.75 39.83,39.48 39.50,39.21 39.28,38.85 39.06,38.48 38.97,38.07 38.87,37.65 38.92,37.23 38.96,36.81 39.14,36.42 39.31,36.04 39.60,35.73 39.89,35.41 40.27,35.21 40.64,35.01 41.06,34.94 41.48,34.87 41.90,34.93 42.32,35.00 42.69,35.20 43.07,35.39 43.36,35.70 43.66,36.01 43.84,36.39 44.02,36.78 44.07,37.20 44.12,37.62 44.03,38.04 43.94,38.45 43.72,38.82 43.51,39.18 43.19,39.46 42.86,39.74 42.47,39.90 42.08,40.06 41.65,40.08 41.23,40.11 40.82,40.00 40.41,39.89 40.05,39.65 39.70,39.41 39.70,39.41 39.70,39.41 37.36,37.40 35.02,35.38 32.89,33.53 30.76,31.67 26.79,28.16 22.83,24.64 18.17,20.51 13.52,16.37 8.69,12.34 3.86,8.31 0.87,5.37 -2.10,2.44 -2.37,2.15 -2.63,1.86 -2.81,1.52 -3.00,1.18 -3.10,0.80 -3.19,0.42 -3.20,0.04 -3.20,-0.34 -3.12,-0.72 -3.03,-1.10 -2.85,-1.45 -2.67,-1.80 -2.42,-2.09 -2.17,-2.38 -1.85,-2.61 -1.53,-2.83 -1.17,-2.98 -0.81,-3.12 -0.42,-3.17 -0.04,-3.22 0.34,-3.18 0.73,-3.14 1.09,-3.01 1.46,-2.87 1.78,-2.65 2.11,-2.44 2.11,-2.44 L 2.10,-2.44 Z"></path></g><g transform="translate(567 202) rotate(0 4.75 33.25)" stroke="none"><path fill="#1e1e1e" d="M 3.17,-0.57 Q 3.17,-0.57 4.75,7.30 6.34,15.18 7.59,24.66 8.84,34.13 9.62,42.21 10.39,50.28 10.90,54.70 11.40,59.12 11.99,63.09 12.59,67.06 12.59,67.49 12.59,67.91 12.45,68.32 12.32,68.72 12.06,69.06 11.81,69.40 11.46,69.64 11.10,69.88 10.70,69.99 10.29,70.11 9.86,70.08 9.44,70.06 9.04,69.91 8.65,69.75 8.32,69.48 8.00,69.20 7.78,68.84 7.56,68.47 7.47,68.06 7.37,67.64 7.42,67.22 7.46,66.80 7.64,66.41 7.82,66.03 8.11,65.72 8.40,65.41 8.77,65.21 9.15,65.01 9.57,64.94 9.99,64.87 10.41,64.94 10.83,65.00 11.20,65.20 11.58,65.40 11.87,65.71 12.17,66.02 12.34,66.40 12.52,66.79 12.57,67.21 12.62,67.63 12.53,68.05 12.44,68.46 12.22,68.83 12.00,69.19 11.68,69.47 11.35,69.74 10.96,69.90 10.57,70.06 10.14,70.08 9.72,70.11 9.31,69.99 8.90,69.88 8.55,69.64 8.19,69.41 7.94,69.07 7.68,68.73 7.54,68.33 7.40,67.93 7.40,67.93 7.40,67.93 6.66,63.87 5.91,59.82 5.28,55.41 4.65,51.00 3.44,43.03 2.22,35.07 0.81,25.75 -0.59,16.44 -1.88,8.51 -3.17,0.57 -3.19,0.18 -3.22,-0.19 -3.15,-0.58 -3.08,-0.96 -2.92,-1.31 -2.76,-1.67 -2.51,-1.97 -2.27,-2.28 -1.97,-2.52 -1.66,-2.76 -1.31,-2.92 -0.95,-3.08 -0.57,-3.15 -0.19,-3.22 0.19,-3.19 0.58,-3.17 0.95,-3.05 1.32,-2.94 1.66,-2.73 1.99,-2.53 2.26,-2.26 2.54,-1.98 2.74,-1.65 2.94,-1.32 3.06,-0.94 3.17,-0.57 3.17,-0.57 L 3.17,-0.57 Z"></path></g><g transform="translate(569.5 196.5) rotate(0 33.75 -31.25)" stroke="none"><path fill="#1e1e1e" d="M -2.33,-2.22 Q -2.33,-2.22 3.12,-8.24 8.59,-14.27 15.63,-21.24 22.67,-28.22 29.90,-35.13 37.12,-42.05 43.60,-47.47 50.07,-52.90 54.36,-55.99 58.66,-59.08 62.26,-61.81 65.86,-64.55 66.23,-64.76 66.60,-64.96 67.01,-65.04 67.43,-65.12 67.85,-65.06 68.27,-65.00 68.65,-64.81 69.03,-64.62 69.33,-64.32 69.63,-64.02 69.82,-63.64 70.01,-63.26 70.06,-62.84 70.12,-62.42 70.04,-62.00 69.96,-61.58 69.75,-61.21 69.54,-60.84 69.22,-60.56 68.90,-60.28 68.51,-60.11 68.12,-59.94 67.70,-59.91 67.27,-59.88 66.86,-59.98 66.45,-60.09 66.09,-60.32 65.73,-60.55 65.47,-60.88 65.20,-61.21 65.06,-61.61 64.91,-62.01 64.90,-62.43 64.89,-62.86 65.02,-63.26 65.15,-63.67 65.40,-64.01 65.64,-64.36 65.99,-64.61 66.34,-64.85 66.74,-64.98 67.15,-65.10 67.57,-65.09 68.00,-65.07 68.40,-64.92 68.80,-64.78 69.13,-64.51 69.46,-64.24 69.68,-63.88 69.91,-63.52 70.01,-63.11 70.11,-62.70 70.08,-62.28 70.04,-61.85 69.87,-61.46 69.70,-61.07 69.42,-60.76 69.13,-60.44 69.13,-60.44 69.13,-60.44 65.63,-57.50 62.12,-54.56 58.15,-51.32 54.18,-48.09 47.97,-42.69 41.77,-37.30 34.72,-30.25 27.68,-23.19 20.75,-16.25 13.82,-9.30 8.08,-3.53 2.33,2.22 2.03,2.47 1.73,2.71 1.38,2.88 1.03,3.05 0.65,3.13 0.27,3.21 -0.11,3.20 -0.50,3.18 -0.87,3.08 -1.25,2.97 -1.58,2.78 -1.92,2.58 -2.20,2.32 -2.49,2.05 -2.70,1.72 -2.90,1.39 -3.03,1.02 -3.15,0.66 -3.19,0.27 -3.22,-0.11 -3.16,-0.49 -3.10,-0.88 -2.95,-1.24 -2.80,-1.60 -2.57,-1.91 -2.33,-2.22 -2.33,-2.22 L -2.33,-2.22 Z"></path></g><g transform="translate(646 131) rotate(0 28.5 31.25)" stroke="none"><path fill="#1e1e1e" d="M 2.69,-1.77 Q 2.69,-1.77 5.75,2.80 8.81,7.37 13.95,14.42 19.09,21.48 24.96,28.75 30.84,36.03 36.08,41.18 41.32,46.34 45.07,49.74 48.82,53.13 51.55,55.13 54.28,57.14 56.93,58.62 59.59,60.11 59.94,60.34 60.29,60.58 60.55,60.92 60.81,61.25 60.95,61.66 61.09,62.06 61.09,62.48 61.09,62.91 60.96,63.31 60.82,63.71 60.57,64.05 60.31,64.39 59.96,64.63 59.61,64.87 59.20,64.99 58.79,65.10 58.37,65.08 57.94,65.06 57.55,64.91 57.15,64.75 56.83,64.48 56.50,64.20 56.28,63.84 56.06,63.48 55.97,63.06 55.87,62.65 55.92,62.23 55.96,61.80 56.14,61.42 56.31,61.03 56.61,60.72 56.90,60.41 57.27,60.21 57.65,60.01 58.06,59.94 58.48,59.87 58.90,59.94 59.32,60.00 59.70,60.20 60.08,60.40 60.37,60.70 60.66,61.01 60.84,61.40 61.02,61.78 61.07,62.20 61.12,62.63 61.03,63.04 60.94,63.46 60.72,63.82 60.50,64.19 60.18,64.46 59.86,64.74 59.46,64.90 59.07,65.06 58.65,65.08 58.22,65.11 57.81,65.00 57.40,64.88 57.40,64.88 57.40,64.88 54.21,63.39 51.02,61.89 47.87,59.86 44.71,57.83 40.72,54.44 36.72,51.05 31.17,45.65 25.61,40.25 19.62,32.84 13.63,25.43 8.44,18.23 3.25,11.02 0.27,6.39 -2.69,1.77 -2.87,1.42 -3.04,1.07 -3.12,0.69 -3.21,0.31 -3.20,-0.07 -3.19,-0.46 -3.09,-0.83 -2.99,-1.21 -2.80,-1.55 -2.61,-1.89 -2.34,-2.18 -2.08,-2.46 -1.75,-2.67 -1.43,-2.89 -1.06,-3.02 -0.69,-3.15 -0.31,-3.18 0.07,-3.22 0.46,-3.17 0.84,-3.11 1.20,-2.96 1.56,-2.82 1.88,-2.59 2.19,-2.36 2.44,-2.06 2.69,-1.77 2.69,-1.77 L 2.69,-1.77 Z"></path></g><g transform="translate(707.5 200) rotate(0 25.5 -27.5)" stroke="none"><path fill="#1e1e1e" d="M -2.43,-2.11 Q -2.43,-2.11 1.33,-6.39 5.10,-10.68 10.12,-16.19 15.15,-21.70 20.31,-27.30 25.48,-32.90 30.05,-37.34 34.62,-41.78 37.86,-44.79 41.11,-47.81 43.23,-49.74 45.36,-51.68 47.01,-53.95 48.67,-56.22 48.92,-56.55 49.18,-56.89 49.53,-57.13 49.88,-57.37 50.29,-57.49 50.70,-57.61 51.12,-57.58 51.55,-57.56 51.94,-57.41 52.34,-57.25 52.66,-56.98 52.99,-56.70 53.21,-56.34 53.43,-55.98 53.52,-55.56 53.62,-55.15 53.57,-54.73 53.53,-54.30 53.35,-53.92 53.18,-53.53 52.88,-53.22 52.59,-52.91 52.22,-52.71 51.84,-52.51 51.42,-52.44 51.01,-52.37 50.59,-52.44 50.17,-52.50 49.79,-52.70 49.41,-52.90 49.12,-53.20 48.83,-53.51 48.65,-53.90 48.47,-54.28 48.42,-54.70 48.37,-55.13 48.46,-55.54 48.55,-55.96 48.77,-56.32 48.99,-56.69 49.31,-56.96 49.63,-57.24 50.03,-57.40 50.42,-57.56 50.84,-57.58 51.27,-57.61 51.68,-57.50 52.09,-57.38 52.44,-57.15 52.79,-56.91 53.05,-56.57 53.31,-56.23 53.45,-55.83 53.59,-55.43 53.59,-55.01 53.59,-54.58 53.45,-54.18 53.32,-53.77 53.32,-53.77 53.32,-53.77 51.40,-50.59 49.48,-47.40 47.45,-45.32 45.41,-43.25 42.25,-40.23 39.09,-37.21 34.67,-32.86 30.26,-28.50 25.10,-22.87 19.94,-17.25 14.89,-11.91 9.84,-6.56 6.14,-2.22 2.43,2.11 2.15,2.37 1.86,2.63 1.52,2.82 1.17,3.00 0.80,3.10 0.42,3.20 0.03,3.20 -0.35,3.20 -0.73,3.11 -1.11,3.03 -1.45,2.85 -1.80,2.67 -2.09,2.42 -2.39,2.16 -2.61,1.84 -2.84,1.53 -2.98,1.16 -3.12,0.80 -3.17,0.42 -3.22,0.03 -3.18,-0.35 -3.14,-0.73 -3.00,-1.10 -2.87,-1.46 -2.65,-1.79 -2.43,-2.11 -2.43,-2.11 L -2.43,-2.11 Z"></path></g><g transform="translate(757.5 88) rotate(0 2 26.75)" stroke="none"><path fill="#1e1e1e" d="M 3.22,-0.14 Q 3.22,-0.14 3.33,3.16 3.45,6.47 3.93,13.44 4.41,20.41 5.00,29.14 5.58,37.87 6.01,43.71 6.44,49.56 6.78,53.90 7.11,58.25 7.08,58.67 7.05,59.09 6.89,59.49 6.73,59.88 6.45,60.20 6.17,60.52 5.80,60.73 5.43,60.95 5.02,61.03 4.60,61.12 4.18,61.07 3.76,61.02 3.38,60.83 2.99,60.65 2.69,60.35 2.38,60.06 2.19,59.68 1.99,59.30 1.93,58.88 1.87,58.46 1.94,58.04 2.02,57.62 2.22,57.25 2.43,56.88 2.74,56.59 3.05,56.30 3.44,56.13 3.83,55.95 4.25,55.91 4.67,55.87 5.09,55.97 5.50,56.07 5.86,56.29 6.22,56.52 6.49,56.84 6.76,57.17 6.92,57.57 7.07,57.96 7.08,58.39 7.10,58.81 6.98,59.22 6.86,59.63 6.62,59.98 6.38,60.33 6.04,60.58 5.69,60.83 5.29,60.96 4.89,61.09 4.46,61.09 4.04,61.08 3.63,60.94 3.23,60.80 2.90,60.54 2.56,60.28 2.33,59.92 2.10,59.57 1.99,59.15 1.88,58.74 1.88,58.74 1.88,58.74 1.39,54.42 0.89,50.09 0.20,44.20 -0.48,38.31 -1.17,29.58 -1.87,20.85 -2.37,13.80 -2.87,6.75 -3.05,3.44 -3.22,0.14 -3.19,-0.24 -3.16,-0.63 -3.04,-1.00 -2.92,-1.37 -2.71,-1.70 -2.50,-2.03 -2.22,-2.30 -1.94,-2.57 -1.61,-2.77 -1.27,-2.96 -0.90,-3.07 -0.52,-3.18 -0.13,-3.20 0.24,-3.21 0.63,-3.14 1.01,-3.06 1.36,-2.89 1.71,-2.73 2.01,-2.48 2.32,-2.24 2.55,-1.93 2.79,-1.62 2.94,-1.26 3.09,-0.90 3.16,-0.52 3.22,-0.13 3.22,-0.14 L 3.22,-0.14 Z"></path></g><g transform="translate(757.5 81.5) rotate(0 29.25 -26.5)" stroke="none"><path fill="#1e1e1e" d="M -2.39,-2.15 Q -2.39,-2.15 1.50,-6.45 5.40,-10.74 11.00,-16.13 16.60,-21.51 23.48,-27.28 30.36,-33.05 36.90,-38.20 43.44,-43.36 46.95,-46.16 50.45,-48.97 54.11,-51.97 57.76,-54.96 58.12,-55.19 58.48,-55.42 58.89,-55.52 59.30,-55.61 59.73,-55.58 60.15,-55.54 60.54,-55.37 60.93,-55.20 61.24,-54.91 61.56,-54.62 61.76,-54.25 61.97,-53.88 62.04,-53.46 62.12,-53.04 62.06,-52.62 62.00,-52.20 61.81,-51.82 61.62,-51.45 61.31,-51.15 61.01,-50.85 60.63,-50.66 60.25,-50.48 59.82,-50.42 59.40,-50.37 58.99,-50.45 58.57,-50.54 58.20,-50.75 57.83,-50.96 57.55,-51.28 57.27,-51.60 57.11,-51.99 56.94,-52.38 56.91,-52.81 56.88,-53.23 56.98,-53.64 57.09,-54.05 57.32,-54.41 57.55,-54.77 57.89,-55.03 58.22,-55.29 58.62,-55.44 59.02,-55.58 59.45,-55.59 59.87,-55.59 60.28,-55.47 60.68,-55.34 61.02,-55.09 61.37,-54.84 61.61,-54.49 61.86,-54.14 61.98,-53.73 62.10,-53.33 62.09,-52.90 62.07,-52.48 61.92,-52.08 61.77,-51.68 61.50,-51.35 61.23,-51.03 61.23,-51.03 61.23,-51.03 57.75,-47.72 54.26,-44.42 50.82,-41.41 47.37,-38.40 40.94,-33.25 34.50,-28.10 27.77,-22.48 21.04,-16.86 15.58,-11.68 10.11,-6.50 6.25,-2.17 2.39,2.15 2.10,2.41 1.81,2.67 1.46,2.84 1.12,3.02 0.74,3.11 0.36,3.20 -0.02,3.20 -0.41,3.20 -0.79,3.10 -1.16,3.00 -1.51,2.82 -1.85,2.64 -2.14,2.38 -2.43,2.12 -2.65,1.79 -2.87,1.47 -3.00,1.11 -3.14,0.74 -3.18,0.36 -3.22,-0.02 -3.17,-0.41 -3.12,-0.79 -2.98,-1.16 -2.84,-1.52 -2.62,-1.84 -2.39,-2.15 -2.39,-2.15 L -2.39,-2.15 Z"></path></g><g transform="translate(825.5 30.5) rotate(0 23.25 21.5)" stroke="none"><path fill="#1e1e1e" d="M 1.55,-2.82 Q 1.55,-2.82 4.40,-1.16 7.26,0.50 11.78,4.96 16.30,9.42 21.63,14.97 26.96,20.53 31.80,25.05 36.63,29.57 39.60,32.41 42.57,35.24 45.48,38.46 48.38,41.67 48.62,42.02 48.87,42.37 48.98,42.77 49.10,43.18 49.08,43.61 49.07,44.03 48.91,44.43 48.76,44.82 48.49,45.15 48.22,45.48 47.86,45.70 47.49,45.92 47.08,46.02 46.67,46.12 46.24,46.07 45.82,46.03 45.43,45.86 45.04,45.68 44.73,45.40 44.42,45.11 44.22,44.73 44.01,44.36 43.94,43.94 43.87,43.52 43.93,43.10 44.00,42.68 44.19,42.31 44.39,41.93 44.69,41.63 45.00,41.34 45.38,41.15 45.77,40.97 46.19,40.92 46.61,40.87 47.03,40.96 47.44,41.04 47.81,41.26 48.17,41.48 48.45,41.80 48.73,42.12 48.89,42.51 49.05,42.90 49.08,43.33 49.11,43.75 49.00,44.16 48.89,44.57 48.66,44.93 48.42,45.28 48.09,45.54 47.75,45.80 47.35,45.94 46.95,46.08 46.52,46.09 46.10,46.09 45.69,45.96 45.29,45.83 44.95,45.57 44.61,45.32 44.61,45.32 44.61,45.32 41.60,42.42 38.59,39.52 35.58,36.80 32.58,34.07 27.42,29.56 22.25,25.05 16.92,19.50 11.58,13.95 7.91,9.89 4.23,5.82 1.34,4.32 -1.55,2.82 -1.87,2.60 -2.18,2.37 -2.43,2.07 -2.69,1.78 -2.86,1.43 -3.04,1.08 -3.12,0.70 -3.21,0.32 -3.20,-0.06 -3.19,-0.45 -3.09,-0.82 -2.99,-1.20 -2.80,-1.54 -2.62,-1.88 -2.35,-2.17 -2.09,-2.45 -1.76,-2.67 -1.44,-2.88 -1.07,-3.01 -0.71,-3.14 -0.32,-3.18 0.06,-3.22 0.44,-3.17 0.83,-3.11 1.19,-2.97 1.55,-2.82 1.55,-2.82 L 1.55,-2.82 Z"></path></g><g transform="translate(881 75.5) rotate(0 3 33.5)" stroke="none"><path fill="#1e1e1e" d="M 3.22,0 Q 3.22,0 3.33,5.46 3.44,10.92 3.93,18.60 4.43,26.29 5.29,33.80 6.14,41.32 6.90,47.10 7.65,52.88 8.05,56.55 8.44,60.21 8.77,63.44 9.10,66.66 9.09,67.09 9.07,67.51 8.92,67.91 8.77,68.31 8.50,68.64 8.23,68.96 7.87,69.19 7.51,69.42 7.10,69.52 6.69,69.61 6.26,69.58 5.84,69.54 5.45,69.37 5.06,69.20 4.75,68.91 4.43,68.62 4.23,68.25 4.02,67.88 3.95,67.46 3.87,67.04 3.93,66.62 3.99,66.20 4.18,65.82 4.37,65.45 4.68,65.15 4.98,64.85 5.36,64.66 5.74,64.48 6.17,64.42 6.59,64.37 7.00,64.45 7.42,64.54 7.79,64.75 8.16,64.96 8.44,65.28 8.72,65.60 8.88,65.99 9.05,66.38 9.08,66.81 9.11,67.23 9.01,67.64 8.90,68.05 8.67,68.41 8.44,68.77 8.10,69.03 7.77,69.29 7.37,69.44 6.97,69.58 6.54,69.59 6.12,69.59 5.71,69.47 5.31,69.34 4.97,69.09 4.62,68.84 4.38,68.49 4.13,68.14 4.01,67.74 3.89,67.33 3.89,67.33 3.89,67.33 3.40,64.19 2.92,61.05 2.21,57.47 1.51,53.89 0.34,48.01 -0.81,42.14 -1.76,34.41 -2.71,26.69 -3.07,18.80 -3.44,10.92 -3.33,5.46 -3.22,0 -3.18,-0.38 -3.13,-0.77 -2.99,-1.13 -2.85,-1.50 -2.63,-1.82 -2.41,-2.14 -2.12,-2.39 -1.83,-2.65 -1.48,-2.83 -1.14,-3.01 -0.76,-3.11 -0.38,-3.20 0.00,-3.20 0.38,-3.20 0.76,-3.11 1.14,-3.01 1.48,-2.83 1.83,-2.65 2.12,-2.39 2.41,-2.14 2.63,-1.82 2.85,-1.49 2.99,-1.13 3.13,-0.77 3.18,-0.38 3.22,0.00 3.22,0.00 L 3.22,0 Z"></path></g><g transform="translate(777.5 147.5) rotate(0 26.75 14.5)" stroke="none"><path fill="#1e1e1e" d="M 2.01,-2.52 Q 2.01,-2.52 7.83,1.98 13.66,6.49 20.29,10.76 26.93,15.04 32.43,17.74 37.93,20.45 42.13,21.97 46.34,23.49 50.55,24.99 54.77,26.48 55.15,26.67 55.53,26.86 55.83,27.16 56.13,27.46 56.32,27.84 56.51,28.23 56.56,28.65 56.62,29.07 56.54,29.49 56.46,29.90 56.25,30.27 56.04,30.64 55.72,30.93 55.41,31.21 55.02,31.38 54.63,31.54 54.20,31.58 53.78,31.61 53.37,31.51 52.96,31.41 52.60,31.18 52.24,30.95 51.97,30.62 51.71,30.29 51.56,29.89 51.42,29.49 51.40,29.06 51.39,28.64 51.52,28.23 51.64,27.83 51.89,27.48 52.14,27.14 52.48,26.89 52.83,26.64 53.24,26.52 53.64,26.39 54.07,26.40 54.49,26.42 54.89,26.56 55.29,26.71 55.62,26.98 55.95,27.24 56.18,27.60 56.41,27.96 56.51,28.37 56.61,28.78 56.58,29.21 56.54,29.63 56.38,30.02 56.21,30.41 55.92,30.73 55.64,31.04 55.27,31.25 54.90,31.46 54.48,31.54 54.06,31.62 53.64,31.56 53.22,31.51 53.22,31.51 53.22,31.51 48.85,30.36 44.48,29.21 39.78,27.84 35.08,26.46 29.08,23.70 23.09,20.95 16.21,16.42 9.33,11.90 3.66,7.21 -2.01,2.52 -2.28,2.24 -2.56,1.96 -2.75,1.62 -2.95,1.29 -3.06,0.92 -3.18,0.54 -3.20,0.16 -3.22,-0.22 -3.14,-0.60 -3.07,-0.99 -2.90,-1.34 -2.74,-1.69 -2.50,-2.00 -2.25,-2.30 -1.95,-2.54 -1.64,-2.77 -1.28,-2.93 -0.92,-3.09 -0.54,-3.15 -0.16,-3.22 0.22,-3.19 0.61,-3.16 0.98,-3.04 1.35,-2.92 1.68,-2.72 2.01,-2.52 2.01,-2.52 L 2.01,-2.52 Z"></path></g><g transform="translate(877 137) rotate(0 -24.25 28.5)" stroke="none"><path fill="#1e1e1e" d="M 2.39,2.16 Q 2.39,2.16 -0.21,5.29 -2.83,8.41 -6.53,12.92 -10.23,17.44 -15.77,23.83 -21.32,30.23 -26.55,36.73 -31.78,43.22 -35.68,47.72 -39.58,52.23 -41.41,54.18 -43.24,56.13 -45.07,57.36 -46.91,58.59 -47.28,58.79 -47.66,58.99 -48.08,59.05 -48.50,59.12 -48.92,59.05 -49.34,58.98 -49.71,58.78 -50.09,58.58 -50.38,58.28 -50.67,57.97 -50.85,57.58 -51.03,57.19 -51.07,56.77 -51.12,56.35 -51.03,55.93 -50.93,55.52 -50.71,55.16 -50.49,54.79 -50.17,54.52 -49.85,54.24 -49.45,54.09 -49.06,53.93 -48.63,53.91 -48.21,53.88 -47.80,54.00 -47.39,54.11 -47.04,54.35 -46.69,54.59 -46.43,54.93 -46.17,55.27 -46.04,55.67 -45.90,56.07 -45.90,56.50 -45.90,56.92 -46.04,57.33 -46.18,57.73 -46.43,58.07 -46.69,58.40 -47.04,58.64 -47.40,58.88 -47.80,58.99 -48.21,59.11 -48.64,59.08 -49.06,59.06 -49.46,58.90 -49.85,58.74 -50.18,58.47 -50.50,58.19 -50.72,57.83 -50.94,57.46 -51.03,57.05 -51.12,56.63 -51.07,56.21 -51.02,55.79 -50.85,55.40 -50.67,55.02 -50.37,54.71 -50.08,54.40 -50.08,54.40 -50.08,54.40 -48.82,53.28 -47.56,52.16 -45.88,50.26 -44.20,48.36 -40.51,43.80 -36.83,39.24 -31.66,32.53 -26.49,25.82 -21.08,19.40 -15.68,12.99 -11.88,8.32 -8.09,3.65 -5.24,0.74 -2.39,-2.16 -2.09,-2.42 -1.80,-2.67 -1.45,-2.85 -1.11,-3.03 -0.73,-3.11 -0.35,-3.20 0.03,-3.20 0.42,-3.20 0.79,-3.10 1.17,-3.00 1.51,-2.82 1.86,-2.63 2.15,-2.37 2.43,-2.11 2.65,-1.79 2.87,-1.47 3.00,-1.10 3.14,-0.73 3.18,-0.35 3.22,0.03 3.17,0.41 3.12,0.80 2.98,1.16 2.84,1.53 2.61,1.84 2.39,2.16 2.39,2.16 L 2.39,2.16 Z"></path></g><g transform="translate(812 94) rotate(0 16.25 11.75)" stroke="none"><path fill="#1e1e1e" d="M 1.90,2.60 Q 1.90,2.60 -0.27,4.05 -2.44,5.51 -3.31,7.48 -4.18,9.46 -4.53,12.64 -4.88,15.82 -3.44,20.18 -2.01,24.54 0.93,28.45 3.88,32.37 7.51,34.42 11.15,36.48 15.18,36.43 19.20,36.38 22.75,34.31 26.29,32.24 29.39,28.71 32.49,25.18 34.13,20.62 35.77,16.05 35.28,10.48 34.78,4.91 32.27,-0.78 29.76,-6.48 26.25,-9.14 22.73,-11.81 18.98,-10.69 15.23,-9.57 11.85,-6.68 8.48,-3.79 6.56,-1.28 4.64,1.22 2.43,4.30 0.22,7.39 -0.05,7.70 -0.33,8.02 -0.69,8.24 -1.06,8.45 -1.48,8.54 -1.89,8.62 -2.32,8.57 -2.74,8.51 -3.12,8.33 -3.50,8.15 -3.81,7.85 -4.11,7.55 -4.30,7.17 -4.50,6.79 -4.56,6.37 -4.62,5.95 -4.55,5.53 -4.47,5.12 -4.27,4.74 -4.06,4.37 -3.75,4.08 -3.43,3.80 -3.05,3.63 -2.66,3.45 -2.23,3.41 -1.81,3.37 -1.40,3.47 -0.98,3.57 -0.62,3.80 -0.26,4.02 0.00,4.35 0.27,4.68 0.42,5.07 0.57,5.47 0.59,5.90 0.60,6.32 0.48,6.73 0.36,7.14 0.12,7.48 -0.12,7.83 -0.46,8.08 -0.80,8.34 -1.21,8.46 -1.61,8.59 -2.04,8.59 -2.46,8.58 -2.86,8.44 -3.26,8.30 -3.60,8.03 -3.93,7.77 -4.16,7.41 -4.40,7.06 -4.50,6.65 -4.61,6.24 -4.58,5.81 -4.55,5.39 -4.39,5.00 -4.22,4.60 -4.22,4.60 -4.22,4.60 -2.28,1.02 -0.33,-2.55 2.01,-5.67 4.36,-8.80 9.00,-12.40 13.65,-16.00 19.29,-16.62 24.93,-17.23 29.99,-13.17 35.05,-9.12 37.83,-2.37 40.62,4.37 41.07,11.17 41.53,17.97 39.32,23.57 37.11,29.18 33.19,33.34 29.27,37.50 24.40,40.00 19.53,42.49 13.91,42.36 8.30,42.23 3.45,39.35 -1.39,36.48 -4.88,31.51 -8.36,26.54 -9.89,20.81 -11.42,15.09 -10.62,10.77 -9.83,6.45 -8.00,3.63 -6.17,0.81 -4.04,-0.89 -1.90,-2.60 -1.56,-2.79 -1.23,-2.98 -0.85,-3.08 -0.48,-3.19 -0.09,-3.20 0.29,-3.21 0.67,-3.13 1.05,-3.04 1.40,-2.87 1.75,-2.70 2.05,-2.45 2.35,-2.20 2.58,-1.89 2.81,-1.58 2.96,-1.22 3.11,-0.86 3.16,-0.47 3.22,-0.09 3.19,0.29 3.15,0.68 3.02,1.05 2.89,1.41 2.68,1.74 2.47,2.07 2.19,2.33 1.90,2.60 1.90,2.60 L 1.90,2.60 Z"></path></g><g transform="translate(913.5 44) rotate(0 -14.25 17)" stroke="none"><path fill="#1e1e1e" d="M 1.96,2.56 Q 1.96,2.56 -0.44,4.45 -2.85,6.35 -6.85,11.27 -10.85,16.18 -14.98,21.73 -19.12,27.27 -23.22,33.12 -27.32,38.97 -27.61,39.27 -27.90,39.58 -28.28,39.78 -28.65,39.98 -29.07,40.05 -29.49,40.12 -29.91,40.05 -30.33,39.99 -30.71,39.79 -31.08,39.59 -31.37,39.28 -31.67,38.97 -31.85,38.59 -32.02,38.20 -32.07,37.78 -32.12,37.36 -32.03,36.94 -31.94,36.53 -31.72,36.16 -31.50,35.80 -31.18,35.52 -30.85,35.25 -30.46,35.09 -30.06,34.93 -29.64,34.91 -29.21,34.88 -28.81,35.00 -28.40,35.11 -28.04,35.35 -27.69,35.59 -27.43,35.92 -27.18,36.26 -27.04,36.66 -26.90,37.07 -26.90,37.49 -26.90,37.92 -27.04,38.32 -27.17,38.72 -27.43,39.06 -27.69,39.40 -28.04,39.64 -28.39,39.88 -28.80,39.99 -29.21,40.11 -29.63,40.08 -30.06,40.06 -30.45,39.90 -30.85,39.75 -31.17,39.47 -31.49,39.20 -31.71,38.83 -31.93,38.47 -32.03,38.06 -32.12,37.64 -32.07,37.22 -32.03,36.80 -31.85,36.41 -31.67,36.02 -31.67,36.02 -31.67,36.02 -27.73,29.97 -23.79,23.92 -19.76,18.10 -15.72,12.28 -11.32,6.70 -6.91,1.12 -4.43,-0.72 -1.96,-2.56 -1.62,-2.76 -1.29,-2.95 -0.91,-3.07 -0.54,-3.18 -0.15,-3.20 0.23,-3.21 0.61,-3.14 0.99,-3.07 1.34,-2.90 1.70,-2.74 2.00,-2.49 2.30,-2.25 2.54,-1.94 2.78,-1.63 2.93,-1.28 3.09,-0.92 3.15,-0.54 3.22,-0.15 3.19,0.23 3.16,0.61 3.04,0.98 2.92,1.35 2.72,1.69 2.51,2.02 2.23,2.29 1.96,2.56 1.96,2.56 L 1.96,2.56 Z"></path></g><g transform="translate(931 35) rotate(0 15.5 0.75)" stroke="none"><path fill="#1e1e1e" d="M 3.22,-0.07 Q 3.22,-0.07 3.40,6.17 3.57,12.42 5.36,15.62 7.15,18.82 9.52,19.92 11.90,21.02 14.37,20.34 16.85,19.66 19.58,17.71 22.31,15.76 24.66,12.71 27.00,9.66 27.94,5.59 28.89,1.52 28.03,-3.35 27.18,-8.24 24.79,-12.18 22.40,-16.12 19.70,-17.39 16.99,-18.66 14.12,-17.84 11.25,-17.02 8.70,-14.77 6.15,-12.53 4.85,-9.83 3.55,-7.14 2.29,-3.23 1.03,0.68 0.86,1.06 0.68,1.45 0.39,1.76 0.10,2.07 -0.26,2.27 -0.64,2.48 -1.05,2.55 -1.47,2.62 -1.89,2.56 -2.31,2.49 -2.69,2.30 -3.07,2.10 -3.36,1.79 -3.66,1.49 -3.84,1.10 -4.02,0.72 -4.07,0.30 -4.12,-0.12 -4.03,-0.53 -3.94,-0.95 -3.73,-1.31 -3.51,-1.68 -3.19,-1.96 -2.87,-2.23 -2.47,-2.39 -2.08,-2.56 -1.66,-2.58 -1.23,-2.61 -0.82,-2.50 -0.41,-2.39 -0.06,-2.15 0.29,-1.92 0.55,-1.58 0.81,-1.24 0.94,-0.84 1.08,-0.44 1.09,-0.02 1.09,0.40 0.96,0.80 0.83,1.21 0.57,1.55 0.32,1.89 -0.02,2.13 -0.37,2.37 -0.78,2.49 -1.19,2.60 -1.61,2.58 -2.04,2.56 -2.43,2.41 -2.83,2.26 -3.16,1.98 -3.48,1.71 -3.71,1.35 -3.93,0.99 -4.02,0.57 -4.12,0.16 -4.07,-0.25 -4.03,-0.68 -4.03,-0.68 -4.03,-0.68 -3.03,-5.18 -2.03,-9.69 -0.27,-13.66 1.48,-17.62 5.46,-20.89 9.43,-24.15 14.47,-24.81 19.51,-25.47 23.92,-22.79 28.33,-20.10 31.17,-14.72 34.02,-9.34 34.65,-3.12 35.29,3.09 33.66,8.24 32.02,13.39 28.97,17.15 25.93,20.90 22.06,23.46 18.19,26.03 13.94,26.50 9.69,26.97 5.70,24.68 1.71,22.40 -0.64,17.64 -3.00,12.87 -3.11,6.47 -3.22,0.07 -3.18,-0.31 -3.15,-0.70 -3.02,-1.06 -2.89,-1.43 -2.67,-1.76 -2.46,-2.08 -2.17,-2.34 -1.89,-2.61 -1.55,-2.80 -1.21,-2.99 -0.83,-3.09 -0.46,-3.19 -0.07,-3.20 0.31,-3.21 0.69,-3.12 1.07,-3.04 1.42,-2.87 1.77,-2.69 2.07,-2.44 2.36,-2.19 2.59,-1.87 2.82,-1.56 2.96,-1.20 3.11,-0.84 3.17,-0.45 3.22,-0.07 3.22,-0.07 L 3.22,-0.07 Z"></path></g><g transform="translate(985.5 13) rotate(0 -2 20.75)" stroke="none"><path fill="#1e1e1e" d="M 3.19,0.43 Q 3.19,0.43 2.15,8.92 1.11,17.42 0.58,22.39 0.04,27.35 0.22,31.07 0.40,34.79 0.74,37.93 1.09,41.07 1.09,41.50 1.09,41.92 0.95,42.33 0.81,42.73 0.56,43.07 0.30,43.41 -0.04,43.64 -0.40,43.88 -0.81,43.99 -1.22,44.11 -1.64,44.08 -2.06,44.06 -2.46,43.90 -2.85,43.74 -3.18,43.47 -3.50,43.19 -3.72,42.83 -3.94,42.46 -4.03,42.05 -4.12,41.63 -4.07,41.21 -4.02,40.79 -3.85,40.40 -3.67,40.02 -3.37,39.71 -3.08,39.40 -2.70,39.20 -2.33,39.00 -1.91,38.94 -1.49,38.87 -1.07,38.94 -0.65,39.01 -0.28,39.21 0.09,39.41 0.38,39.72 0.67,40.03 0.85,40.41 1.03,40.80 1.07,41.22 1.12,41.64 1.03,42.06 0.93,42.47 0.71,42.84 0.49,43.20 0.17,43.47 -0.15,43.75 -0.54,43.90 -0.94,44.06 -1.36,44.08 -1.78,44.11 -2.19,43.99 -2.60,43.88 -2.95,43.64 -3.31,43.40 -3.56,43.06 -3.82,42.72 -3.95,42.32 -4.09,41.91 -4.09,41.92 -4.09,41.92 -4.79,38.63 -5.48,35.34 -6.04,31.03 -6.59,26.73 -6.15,21.61 -5.71,16.49 -4.45,8.03 -3.19,-0.43 -3.10,-0.81 -3.00,-1.18 -2.81,-1.52 -2.63,-1.87 -2.36,-2.15 -2.10,-2.44 -1.78,-2.66 -1.46,-2.87 -1.09,-3.01 -0.72,-3.14 -0.34,-3.18 0.04,-3.22 0.43,-3.17 0.81,-3.12 1.17,-2.98 1.54,-2.83 1.85,-2.61 2.17,-2.38 2.42,-2.09 2.68,-1.79 2.85,-1.44 3.03,-1.10 3.12,-0.72 3.20,-0.34 3.20,0.04 3.19,0.43 3.19,0.43 L 3.19,0.43 Z"></path></g><g transform="translate(1010.5 12.5) rotate(0 -1.25 16.75)" stroke="none"><path fill="#1e1e1e" d="M 3.22,0.14 Q 3.22,0.14 2.90,6.75 2.57,13.36 2.29,18.20 2.01,23.04 1.77,25.92 1.52,28.80 0.73,31.62 -0.04,34.44 -0.26,34.80 -0.47,35.17 -0.79,35.45 -1.11,35.73 -1.50,35.89 -1.90,36.05 -2.32,36.08 -2.75,36.11 -3.16,36.00 -3.57,35.89 -3.92,35.66 -4.28,35.42 -4.54,35.09 -4.80,34.75 -4.94,34.35 -5.08,33.95 -5.09,33.53 -5.09,33.10 -4.96,32.70 -4.83,32.29 -4.58,31.95 -4.33,31.61 -3.98,31.37 -3.63,31.13 -3.22,31.01 -2.81,30.89 -2.39,30.91 -1.96,30.92 -1.57,31.08 -1.17,31.23 -0.84,31.50 -0.51,31.77 -0.29,32.13 -0.07,32.49 0.02,32.91 0.12,33.32 0.08,33.74 0.03,34.17 -0.13,34.55 -0.30,34.94 -0.59,35.25 -0.88,35.57 -1.25,35.77 -1.63,35.97 -2.04,36.05 -2.46,36.12 -2.88,36.06 -3.30,35.99 -3.68,35.80 -4.06,35.61 -4.35,35.30 -4.65,35.00 -4.83,34.61 -5.02,34.23 -5.07,33.81 -5.12,33.39 -5.03,32.97 -4.95,32.55 -4.95,32.55 -4.95,32.55 -4.57,30.57 -4.18,28.58 -4.20,25.64 -4.22,22.69 -3.97,17.89 -3.72,13.08 -3.47,6.47 -3.22,-0.14 -3.16,-0.52 -3.09,-0.90 -2.94,-1.26 -2.79,-1.62 -2.55,-1.93 -2.32,-2.24 -2.01,-2.48 -1.71,-2.73 -1.36,-2.89 -1.01,-3.06 -0.63,-3.14 -0.24,-3.21 0.13,-3.20 0.52,-3.18 0.90,-3.07 1.27,-2.96 1.61,-2.77 1.94,-2.57 2.22,-2.30 2.50,-2.03 2.71,-1.70 2.92,-1.37 3.04,-1.00 3.16,-0.63 3.19,-0.24 3.22,0.14 3.22,0.14 L 3.22,0.14 Z"></path></g><g transform="translate(984.5 29) rotate(0 15 -2.75)" stroke="none"><path fill="#1e1e1e" d="M -0.68,-3.15 Q -0.68,-3.15 2.62,-3.84 5.94,-4.53 10.90,-5.23 15.86,-5.94 18.78,-6.37 21.70,-6.80 25.57,-7.43 29.45,-8.06 29.87,-8.08 30.29,-8.10 30.70,-7.99 31.11,-7.87 31.46,-7.63 31.81,-7.39 32.07,-7.05 32.32,-6.71 32.46,-6.31 32.59,-5.90 32.59,-5.48 32.58,-5.05 32.45,-4.65 32.31,-4.25 32.05,-3.91 31.79,-3.58 31.44,-3.34 31.08,-3.10 30.67,-2.99 30.26,-2.88 29.84,-2.91 29.42,-2.93 29.02,-3.09 28.63,-3.25 28.31,-3.53 27.98,-3.81 27.77,-4.17 27.55,-4.54 27.46,-4.95 27.37,-5.37 27.42,-5.79 27.47,-6.21 27.65,-6.60 27.83,-6.98 28.12,-7.29 28.42,-7.60 28.79,-7.79 29.17,-7.99 29.59,-8.06 30.01,-8.12 30.43,-8.05 30.85,-7.98 31.22,-7.78 31.60,-7.58 31.89,-7.27 32.18,-6.96 32.35,-6.57 32.53,-6.18 32.57,-5.76 32.62,-5.34 32.52,-4.92 32.43,-4.51 32.21,-4.15 31.99,-3.78 31.66,-3.51 31.34,-3.24 30.94,-3.08 30.54,-2.93 30.54,-2.93 30.54,-2.93 26.59,-1.89 22.63,-0.84 19.71,-0.36 16.78,0.11 12.03,0.88 7.28,1.65 3.98,2.40 0.68,3.15 0.29,3.19 -0.08,3.22 -0.47,3.16 -0.85,3.11 -1.21,2.96 -1.57,2.81 -1.89,2.58 -2.20,2.35 -2.45,2.05 -2.70,1.75 -2.87,1.41 -3.04,1.06 -3.13,0.68 -3.21,0.30 -3.20,-0.08 -3.19,-0.47 -3.08,-0.85 -2.98,-1.22 -2.79,-1.56 -2.60,-1.90 -2.33,-2.19 -2.07,-2.47 -1.74,-2.68 -1.42,-2.89 -1.05,-3.02 -0.68,-3.15 -0.68,-3.15 L -0.68,-3.15 Z"></path></g><g transform="translate(530.5 347.5) rotate(0 23.75 10.25)" stroke="none"><path fill="#1e1e1e" d="M 3.21,-0.23 Q 3.21,-0.23 3.43,3.64 3.64,7.53 4.09,12.62 4.53,17.70 4.64,22.38 4.75,27.06 4.89,29.54 5.03,32.02 4.92,32.37 4.81,32.73 4.80,33.06 4.79,33.39 4.70,33.71 4.61,34.03 4.44,34.32 4.28,34.61 4.05,34.85 3.82,35.09 3.54,35.27 3.26,35.45 2.95,35.55 2.64,35.66 2.30,35.69 1.97,35.72 1.65,35.66 1.32,35.61 1.01,35.48 0.71,35.36 0.44,35.16 0.17,34.96 -0.03,34.70 -0.24,34.45 -0.38,34.15 -0.53,33.85 -0.59,33.53 -0.66,33.20 -1.18,28.01 -1.71,22.82 -2.11,17.61 -2.52,12.40 -2.69,5.21 -2.86,-1.96 -1.38,-8.21 0.09,-14.46 3.38,-17.71 6.67,-20.97 13.23,-20.88 19.78,-20.80 24.41,-19.19 29.03,-17.58 33.93,-12.69 38.82,-7.80 42.43,-1.04 46.03,5.71 47.46,12.34 48.88,18.97 47.41,24.47 45.93,29.96 42.14,34.12 38.36,38.28 32.44,40.60 26.53,42.91 20.45,43.21 14.37,43.51 10.30,42.71 6.22,41.91 2.13,39.93 -1.96,37.94 -2.32,37.72 -2.69,37.50 -2.97,37.18 -3.24,36.86 -3.40,36.46 -3.56,36.07 -3.58,35.64 -3.61,35.22 -3.49,34.81 -3.38,34.40 -3.14,34.05 -2.91,33.69 -2.57,33.44 -2.23,33.18 -1.83,33.04 -1.43,32.90 -1.00,32.90 -0.58,32.90 -0.17,33.04 0.22,33.17 0.56,33.43 0.90,33.68 1.14,34.03 1.38,34.38 1.49,34.79 1.61,35.20 1.58,35.63 1.56,36.05 1.41,36.45 1.25,36.84 0.98,37.17 0.70,37.49 0.34,37.71 -0.02,37.93 -0.43,38.02 -0.85,38.12 -1.27,38.07 -1.69,38.03 -2.08,37.85 -2.46,37.67 -2.77,37.38 -3.08,37.09 -3.28,36.72 -3.48,36.34 -3.55,35.92 -3.62,35.50 -3.55,35.08 -3.49,34.66 -3.29,34.29 -3.09,33.91 -2.78,33.62 -2.48,33.33 -2.09,33.15 -1.70,32.97 -1.28,32.92 -0.86,32.87 -0.44,32.96 -0.03,33.05 -0.03,33.05 -0.03,33.05 3.79,34.19 7.61,35.33 10.87,36.06 14.14,36.79 19.23,36.62 24.33,36.45 29.14,34.96 33.96,33.46 37.16,30.69 40.36,27.91 41.79,23.87 43.22,19.82 42.01,14.13 40.81,8.45 37.55,2.47 34.29,-3.50 30.47,-7.62 26.66,-11.74 22.97,-13.06 19.27,-14.37 14.37,-15.09 9.47,-15.80 7.46,-14.17 5.44,-12.54 3.91,-7.29 2.37,-2.03 2.54,4.97 2.71,11.99 3.12,17.20 3.52,22.40 4.17,27.57 4.81,32.73 4.80,33.06 4.79,33.39 4.70,33.71 4.61,34.03 4.44,34.32 4.28,34.61 4.05,34.85 3.82,35.09 3.54,35.27 3.26,35.45 2.95,35.55 2.64,35.66 2.30,35.69 1.97,35.72 1.65,35.66 1.32,35.61 1.01,35.48 0.71,35.36 0.44,35.16 0.17,34.96 -0.03,34.70 -0.24,34.45 -0.38,34.15 -0.53,33.85 -0.59,33.53 -0.66,33.20 -0.67,32.84 -0.68,32.48 -0.97,29.88 -1.26,27.29 -1.50,22.75 -1.75,18.21 -2.12,13.10 -2.49,7.98 -2.85,4.11 -3.21,0.23 -3.20,-0.15 -3.18,-0.53 -3.07,-0.91 -2.96,-1.28 -2.76,-1.62 -2.56,-1.95 -2.29,-2.23 -2.02,-2.51 -1.69,-2.71 -1.36,-2.92 -0.99,-3.04 -0.62,-3.16 -0.23,-3.19 0.15,-3.22 0.53,-3.15 0.91,-3.09 1.27,-2.93 1.63,-2.78 1.94,-2.54 2.25,-2.31 2.49,-2.01 2.73,-1.70 2.90,-1.35 3.06,-1.00 3.14,-0.61 3.21,-0.23 3.21,-0.23 L 3.21,-0.23 Z"></path></g><g transform="translate(592.5 359.5) rotate(0 9 6.75)" stroke="none"><path fill="#1e1e1e" d="M 2.96,1.27 Q 2.96,1.27 1.69,4.23 0.41,7.20 0.59,10.39 0.76,13.57 2.19,15.96 3.61,18.34 7.51,18.10 11.41,17.86 13.24,15.86 15.08,13.85 16.23,11.31 17.39,8.77 17.18,5.74 16.96,2.72 15.58,-0.09 14.21,-2.91 12.35,-4.30 10.50,-5.69 8.42,-4.62 6.33,-3.56 4.67,-1.06 3.00,1.43 2.16,4.17 1.31,6.91 2.13,10.22 2.94,13.54 3.03,13.95 3.12,14.37 3.07,14.79 3.02,15.21 2.84,15.60 2.66,15.98 2.37,16.29 2.07,16.59 1.70,16.79 1.32,16.99 0.90,17.06 0.48,17.12 0.06,17.05 -0.35,16.98 -0.72,16.78 -1.10,16.58 -1.39,16.27 -1.68,15.96 -1.85,15.57 -2.03,15.18 -2.07,14.76 -2.12,14.34 -2.02,13.92 -1.93,13.51 -1.71,13.15 -1.49,12.78 -1.16,12.51 -0.84,12.24 -0.44,12.08 -0.04,11.93 0.37,11.91 0.79,11.89 1.20,12.00 1.61,12.12 1.96,12.36 2.31,12.60 2.57,12.94 2.82,13.28 2.96,13.68 3.09,14.09 3.09,14.51 3.08,14.94 2.95,15.34 2.81,15.74 2.55,16.08 2.29,16.41 1.94,16.65 1.58,16.89 1.17,17.00 0.76,17.11 0.34,17.08 -0.07,17.06 -0.47,16.90 -0.86,16.74 -1.18,16.46 -1.51,16.18 -1.72,15.82 -1.94,15.45 -1.94,15.45 -1.94,15.45 -3.00,12.90 -4.07,10.34 -4.24,7.84 -4.40,5.35 -3.28,1.50 -2.16,-2.34 0.79,-5.86 3.76,-9.39 7.83,-10.32 11.91,-11.25 15.74,-8.56 19.58,-5.86 21.46,-1.76 23.33,2.33 23.32,6.78 23.30,11.23 21.55,14.79 19.80,18.35 16.82,21.21 13.85,24.08 9.91,25.07 5.98,26.07 2.11,24.09 -1.74,22.11 -3.79,18.04 -5.84,13.98 -5.71,9.42 -5.59,4.86 -4.27,1.79 -2.96,-1.27 -2.77,-1.60 -2.57,-1.94 -2.30,-2.22 -2.03,-2.50 -1.70,-2.71 -1.37,-2.91 -1.00,-3.04 -0.63,-3.16 -0.25,-3.19 0.13,-3.22 0.52,-3.16 0.90,-3.09 1.26,-2.94 1.62,-2.79 1.93,-2.55 2.24,-2.32 2.48,-2.02 2.73,-1.71 2.89,-1.36 3.06,-1.01 3.14,-0.63 3.21,-0.25 3.20,0.13 3.18,0.52 3.07,0.89 2.96,1.27 2.96,1.27 L 2.96,1.27 Z"></path></g><g transform="translate(626 323) rotate(0 12.75 26.75)" stroke="none"><path fill="#1e1e1e" d="M 3.22,0.07 Q 3.22,0.07 2.96,5.96 2.70,11.86 2.99,19.16 3.28,26.47 3.39,32.65 3.50,38.84 3.97,42.12 4.44,45.41 4.95,46.75 5.45,48.09 5.46,48.48 5.46,48.86 5.37,49.24 5.29,49.62 5.11,49.96 4.94,50.31 4.69,50.60 4.43,50.89 4.12,51.12 3.80,51.34 3.44,51.48 3.08,51.62 2.70,51.68 2.32,51.73 1.93,51.69 1.55,51.64 1.19,51.51 0.82,51.38 0.50,51.17 0.18,50.95 -0.07,50.66 -0.33,50.38 -0.51,50.04 -0.70,49.70 -0.80,49.33 -0.89,48.95 0.14,47.01 1.18,45.07 3.34,40.38 5.50,35.68 7.61,32.76 9.72,29.84 13.30,28.27 16.89,26.70 20.23,28.43 23.58,30.15 25.70,33.81 27.81,37.47 28.44,40.77 29.06,44.08 28.30,46.97 27.54,49.85 25.31,51.91 23.08,53.98 19.42,54.97 15.76,55.95 12.34,55.88 8.92,55.81 6.47,55.09 4.02,54.36 1.74,52.50 -0.53,50.63 -0.83,50.33 -1.13,50.03 -1.32,49.65 -1.51,49.26 -1.56,48.84 -1.62,48.42 -1.54,48.01 -1.46,47.59 -1.25,47.22 -1.04,46.85 -0.72,46.56 -0.41,46.28 -0.02,46.11 0.36,45.95 0.79,45.91 1.21,45.88 1.62,45.98 2.03,46.08 2.39,46.31 2.75,46.54 3.02,46.87 3.28,47.20 3.43,47.60 3.57,48.00 3.59,48.43 3.60,48.85 3.47,49.26 3.35,49.66 3.10,50.01 2.85,50.35 2.51,50.60 2.16,50.85 1.75,50.97 1.35,51.10 0.92,51.09 0.50,51.07 0.10,50.93 -0.29,50.78 -0.62,50.51 -0.95,50.25 -1.18,49.89 -1.41,49.53 -1.51,49.12 -1.61,48.71 -1.58,48.28 -1.54,47.86 -1.38,47.47 -1.21,47.08 -0.92,46.76 -0.64,46.45 -0.27,46.24 0.09,46.03 0.51,45.95 0.93,45.87 1.35,45.93 1.77,45.98 2.15,46.17 2.53,46.36 2.53,46.36 2.53,46.36 5.75,47.76 8.98,49.15 11.59,49.07 14.20,48.98 16.62,48.57 19.03,48.17 20.87,46.43 22.72,44.70 22.52,42.45 22.32,40.20 21.16,37.55 19.99,34.90 16.86,33.99 13.73,33.09 12.09,35.55 10.45,38.00 9.24,40.90 8.03,43.80 6.74,45.94 5.45,48.09 5.46,48.48 5.46,48.86 5.37,49.24 5.29,49.62 5.11,49.96 4.94,50.31 4.69,50.60 4.43,50.89 4.12,51.12 3.80,51.34 3.44,51.48 3.08,51.62 2.70,51.68 2.32,51.73 1.93,51.69 1.55,51.64 1.19,51.51 0.82,51.38 0.50,51.17 0.18,50.95 -0.07,50.66 -0.33,50.38 -0.51,50.04 -0.70,49.70 -0.80,49.33 -0.89,48.95 -1.37,47.62 -1.84,46.29 -2.31,42.62 -2.78,38.94 -2.86,32.80 -2.95,26.66 -3.11,19.19 -3.27,11.71 -3.25,5.81 -3.22,-0.07 -3.17,-0.46 -3.11,-0.84 -2.96,-1.20 -2.82,-1.56 -2.59,-1.88 -2.36,-2.19 -2.06,-2.44 -1.76,-2.70 -1.41,-2.87 -1.07,-3.04 -0.69,-3.12 -0.31,-3.21 0.07,-3.20 0.46,-3.19 0.84,-3.09 1.21,-2.98 1.55,-2.80 1.89,-2.61 2.18,-2.34 2.46,-2.08 2.68,-1.75 2.89,-1.42 3.02,-1.06 3.15,-0.69 3.18,-0.30 3.22,0.07 3.22,0.07 L 3.22,0.07 Z"></path></g><g transform="translate(669.5 353) rotate(0 12 11.25)" stroke="none"><path fill="#1e1e1e" d="M 2.95,1.29 Q 2.95,1.29 1.92,3.57 0.89,5.85 0.27,9.09 -0.33,12.34 -0.33,15.48 -0.32,18.63 1.21,20.13 2.75,21.64 4.58,20.15 6.42,18.66 9.05,16.21 11.67,13.76 13.87,10.82 16.07,7.89 17.04,5.08 18.01,2.27 17.76,0.21 17.50,-1.83 17.58,-2.18 17.66,-2.54 17.82,-2.87 17.98,-3.19 18.21,-3.47 18.45,-3.75 18.74,-3.96 19.04,-4.18 19.37,-4.31 19.71,-4.45 20.07,-4.50 20.43,-4.56 20.79,-4.52 21.16,-4.49 21.50,-4.37 21.84,-4.25 22.15,-4.05 22.45,-3.85 22.70,-3.58 22.95,-3.31 23.13,-2.99 23.30,-2.68 23.40,-2.32 23.50,-1.97 23.50,-1.61 23.51,-1.25 23.03,2.85 22.55,6.95 23.80,10.22 25.04,13.49 27.25,14.77 29.46,16.05 29.83,16.27 30.19,16.49 30.47,16.81 30.74,17.14 30.90,17.53 31.06,17.92 31.08,18.35 31.11,18.77 30.99,19.18 30.88,19.59 30.64,19.94 30.41,20.30 30.07,20.55 29.73,20.81 29.33,20.95 28.93,21.09 28.50,21.09 28.08,21.09 27.67,20.95 27.27,20.82 26.93,20.56 26.59,20.31 26.35,19.95 26.11,19.60 26.00,19.19 25.88,18.79 25.91,18.36 25.93,17.94 26.08,17.54 26.24,17.15 26.52,16.82 26.79,16.50 27.15,16.28 27.52,16.06 27.93,15.96 28.35,15.87 28.77,15.92 29.19,15.96 29.58,16.14 29.96,16.32 30.27,16.61 30.58,16.90 30.78,17.28 30.98,17.65 31.05,18.07 31.12,18.49 31.05,18.91 30.99,19.33 30.79,19.70 30.59,20.08 30.28,20.37 29.97,20.67 29.59,20.85 29.20,21.02 28.78,21.07 28.36,21.12 27.94,21.03 27.53,20.94 27.53,20.94 27.53,20.94 23.82,19.07 20.10,17.21 18.44,14.81 16.77,12.40 16.38,9.46 15.98,6.51 16.74,2.34 17.50,-1.83 17.58,-2.18 17.66,-2.54 17.82,-2.86 17.98,-3.19 18.21,-3.47 18.45,-3.75 18.74,-3.96 19.04,-4.18 19.37,-4.31 19.71,-4.45 20.07,-4.50 20.43,-4.56 20.79,-4.52 21.16,-4.49 21.50,-4.37 21.84,-4.25 22.15,-4.05 22.45,-3.85 22.70,-3.58 22.95,-3.31 23.13,-2.99 23.30,-2.68 23.40,-2.33 23.50,-1.97 23.50,-1.61 23.51,-1.25 23.60,-1.44 23.69,-1.63 23.63,1.29 23.57,4.21 22.25,7.82 20.92,11.43 18.38,14.80 15.84,18.18 12.74,21.10 9.63,24.03 6.09,25.72 2.55,27.41 -0.48,26.27 -3.52,25.12 -5.07,22.02 -6.62,18.93 -6.58,15.02 -6.54,11.11 -5.73,7.23 -4.92,3.34 -3.93,1.02 -2.95,-1.29 -2.75,-1.62 -2.56,-1.96 -2.28,-2.24 -2.01,-2.52 -1.68,-2.72 -1.35,-2.92 -0.98,-3.04 -0.61,-3.16 -0.22,-3.19 0.16,-3.22 0.54,-3.15 0.92,-3.09 1.28,-2.93 1.64,-2.77 1.94,-2.54 2.25,-2.30 2.50,-2.00 2.74,-1.69 2.90,-1.34 3.07,-0.99 3.14,-0.61 3.22,-0.22 3.20,0.16 3.18,0.54 3.06,0.92 2.95,1.29 2.95,1.29 L 2.95,1.29 Z"></path></g><g transform="translate(711.5 319.5) rotate(0 0.5 21.75)" stroke="none"><path fill="#1e1e1e" d="M 3.19,0.43 Q 3.19,0.43 2.39,5.73 1.59,11.04 1.16,17.51 0.73,23.99 0.94,28.89 1.16,33.79 2.00,36.09 2.84,38.40 4.66,39.26 6.47,40.12 6.54,40.43 6.61,40.74 6.60,41.06 6.59,41.37 6.51,41.68 6.43,41.99 6.27,42.26 6.12,42.54 5.90,42.77 5.69,43.00 5.42,43.18 5.16,43.35 4.86,43.45 4.56,43.56 4.25,43.59 3.93,43.62 3.62,43.58 3.31,43.53 3.01,43.41 2.72,43.29 2.46,43.10 2.21,42.92 2.00,42.68 1.80,42.43 1.66,42.15 1.52,41.87 2.30,40.20 3.08,38.53 3.50,38.45 3.91,38.37 4.34,38.43 4.76,38.48 5.14,38.67 5.52,38.86 5.82,39.16 6.12,39.46 6.31,39.84 6.50,40.22 6.56,40.64 6.62,41.06 6.54,41.47 6.46,41.89 6.26,42.26 6.05,42.63 5.73,42.92 5.42,43.20 5.03,43.37 4.64,43.54 4.21,43.58 3.79,43.61 3.38,43.51 2.97,43.41 2.61,43.18 2.25,42.96 1.98,42.63 1.71,42.30 1.57,41.90 1.42,41.50 1.40,41.07 1.39,40.65 1.51,40.24 1.64,39.84 1.88,39.49 2.13,39.14 2.48,38.89 2.82,38.65 3.23,38.52 3.63,38.39 4.06,38.40 4.48,38.41 4.88,38.56 5.28,38.70 5.61,38.97 5.94,39.23 6.17,39.59 6.40,39.95 6.51,40.36 6.61,40.77 6.58,41.20 6.55,41.62 6.38,42.01 6.21,42.40 5.93,42.72 5.65,43.04 6.06,41.58 6.47,40.12 6.54,40.43 6.61,40.74 6.60,41.06 6.59,41.37 6.51,41.68 6.43,41.98 6.27,42.26 6.12,42.54 5.90,42.77 5.69,43.00 5.42,43.18 5.16,43.35 4.86,43.45 4.56,43.56 4.25,43.59 3.93,43.62 3.62,43.58 3.31,43.53 3.01,43.41 2.72,43.29 2.46,43.10 2.21,42.92 2.00,42.68 1.80,42.43 1.66,42.15 1.52,41.87 -0.58,41.18 -2.69,40.49 -3.78,37.32 -4.87,34.14 -5.14,28.86 -5.40,23.57 -4.94,16.90 -4.47,10.22 -3.83,4.89 -3.19,-0.43 -3.10,-0.80 -3.00,-1.18 -2.81,-1.52 -2.63,-1.86 -2.36,-2.15 -2.10,-2.44 -1.78,-2.66 -1.46,-2.87 -1.09,-3.01 -0.73,-3.14 -0.34,-3.18 0.04,-3.22 0.42,-3.17 0.81,-3.12 1.17,-2.98 1.53,-2.83 1.85,-2.61 2.17,-2.38 2.42,-2.09 2.68,-1.79 2.85,-1.45 3.03,-1.10 3.12,-0.72 3.20,-0.34 3.20,0.04 3.19,0.43 3.19,0.43 L 3.19,0.43 Z"></path></g><g transform="translate(700.5 348.5) rotate(0 10.25 -3)" stroke="none"><path fill="#1e1e1e" d="M -0.84,-3.11 Q -0.84,-3.11 3.93,-4.25 8.71,-5.40 11.32,-6.07 13.92,-6.73 16.78,-7.60 19.63,-8.48 20.05,-8.55 20.47,-8.62 20.89,-8.56 21.31,-8.49 21.69,-8.30 22.07,-8.10 22.36,-7.79 22.66,-7.49 22.84,-7.11 23.02,-6.72 23.07,-6.30 23.12,-5.88 23.03,-5.46 22.94,-5.05 22.73,-4.68 22.51,-4.31 22.19,-4.04 21.87,-3.76 21.48,-3.60 21.08,-3.44 20.66,-3.41 20.24,-3.38 19.82,-3.49 19.41,-3.60 19.06,-3.84 18.71,-4.07 18.45,-4.41 18.19,-4.74 18.05,-5.14 17.91,-5.55 17.90,-5.97 17.90,-6.40 18.03,-6.80 18.16,-7.20 18.42,-7.54 18.67,-7.89 19.02,-8.13 19.37,-8.37 19.78,-8.49 20.19,-8.60 20.61,-8.58 21.04,-8.57 21.43,-8.41 21.83,-8.26 22.15,-7.99 22.48,-7.71 22.70,-7.35 22.93,-6.99 23.02,-6.58 23.12,-6.16 23.07,-5.74 23.03,-5.32 22.86,-4.93 22.68,-4.54 22.39,-4.23 22.10,-3.92 21.73,-3.72 21.36,-3.51 21.36,-3.51 21.36,-3.51 18.38,-2.36 15.40,-1.21 12.83,-0.49 10.25,0.22 5.55,1.67 0.84,3.11 0.46,3.17 0.07,3.22 -0.30,3.18 -0.69,3.15 -1.06,3.02 -1.42,2.89 -1.75,2.68 -2.08,2.46 -2.34,2.18 -2.61,1.89 -2.80,1.55 -2.98,1.21 -3.09,0.84 -3.19,0.46 -3.20,0.07 -3.21,-0.31 -3.12,-0.69 -3.04,-1.07 -2.87,-1.41 -2.70,-1.76 -2.45,-2.06 -2.19,-2.36 -1.88,-2.59 -1.56,-2.82 -1.20,-2.96 -0.84,-3.11 -0.84,-3.11 L -0.84,-3.11 Z"></path></g><g transform="translate(744.5 345) rotate(0 1.25 6.25)" stroke="none"><path fill="#1e1e1e" d="M -2.38,2.17 Q -2.38,2.17 -3.21,0.72 -4.03,-0.71 -5.66,0.99 -7.29,2.69 -8.28,4.98 -9.27,7.27 -8.95,10.22 -8.63,13.18 -4.98,12.19 -1.34,11.20 1.13,9.47 3.60,7.75 5.33,5.63 7.07,3.51 8.02,0.37 8.97,-2.75 8.77,-3.42 8.57,-4.10 8.68,-4.47 8.78,-4.84 8.98,-5.18 9.17,-5.52 9.44,-5.79 9.71,-6.07 10.03,-6.28 10.36,-6.49 10.73,-6.61 11.09,-6.73 11.48,-6.77 11.87,-6.80 12.25,-6.74 12.63,-6.67 12.99,-6.52 13.34,-6.37 13.65,-6.14 13.96,-5.91 14.21,-5.61 14.45,-5.31 14.62,-4.96 14.79,-4.61 14.86,-4.23 14.94,-3.85 14.93,-3.46 14.91,-3.07 14.27,0.53 13.63,4.15 13.59,6.40 13.54,8.64 15.66,10.92 17.77,13.20 18.10,13.46 18.44,13.73 18.67,14.08 18.90,14.44 19.01,14.85 19.11,15.26 19.08,15.69 19.05,16.11 18.88,16.50 18.72,16.89 18.44,17.21 18.15,17.53 17.79,17.74 17.42,17.95 17.00,18.04 16.58,18.12 16.16,18.07 15.74,18.01 15.36,17.83 14.98,17.64 14.67,17.34 14.37,17.04 14.18,16.66 13.99,16.28 13.93,15.86 13.87,15.44 13.95,15.02 14.02,14.61 14.23,14.23 14.44,13.86 14.75,13.58 15.07,13.29 15.45,13.12 15.84,12.95 16.27,12.91 16.69,12.88 17.10,12.98 17.52,13.08 17.88,13.30 18.24,13.53 18.50,13.86 18.77,14.19 18.92,14.58 19.07,14.98 19.09,15.41 19.10,15.83 18.98,16.24 18.86,16.65 18.61,16.99 18.36,17.34 18.02,17.59 17.68,17.84 17.27,17.97 16.87,18.10 16.44,18.09 16.02,18.08 15.62,17.93 15.22,17.79 15.22,17.79 15.22,17.79 12.46,15.72 9.70,13.65 8.55,11.30 7.39,8.95 7.31,6.18 7.23,3.41 7.90,-0.34 8.57,-4.10 8.68,-4.47 8.78,-4.84 8.98,-5.18 9.17,-5.52 9.44,-5.79 9.70,-6.07 10.03,-6.28 10.36,-6.49 10.73,-6.61 11.09,-6.73 11.48,-6.77 11.87,-6.80 12.25,-6.74 12.63,-6.67 12.99,-6.52 13.34,-6.37 13.65,-6.14 13.96,-5.91 14.21,-5.61 14.45,-5.31 14.62,-4.96 14.79,-4.61 14.86,-4.23 14.94,-3.85 14.93,-3.46 14.91,-3.08 15.04,-2.52 15.17,-1.97 14.75,0.25 14.32,2.48 13.09,5.01 11.85,7.54 9.48,10.19 7.11,12.84 3.99,14.91 0.87,16.97 -2.73,18.11 -6.34,19.24 -9.51,18.25 -12.68,17.25 -14.27,14.35 -15.87,11.45 -15.38,8.07 -14.89,4.68 -13.29,1.53 -11.70,-1.61 -9.27,-3.63 -6.84,-5.66 -4.28,-5.63 -1.71,-5.60 0.33,-3.89 2.38,-2.17 2.61,-1.85 2.83,-1.53 2.98,-1.17 3.12,-0.81 3.17,-0.42 3.22,-0.04 3.18,0.34 3.14,0.73 3.01,1.09 2.87,1.46 2.66,1.78 2.44,2.10 2.15,2.37 1.86,2.63 1.52,2.81 1.18,3.00 0.80,3.10 0.42,3.19 0.04,3.20 -0.34,3.20 -0.72,3.12 -1.10,3.03 -1.45,2.85 -1.79,2.67 -2.09,2.42 -2.38,2.17 -2.38,2.17 L -2.38,2.17 Z"></path></g><g transform="translate(771.5 346) rotate(0 23.5 3.5)" stroke="none"><path fill="#1e1e1e" d="M 3.16,0.63 Q 3.16,0.63 2.38,4.21 1.60,7.79 1.44,9.93 1.28,12.07 1.44,9.03 1.60,6.00 2.36,3.91 3.12,1.81 3.70,-0.57 4.27,-2.96 5.43,-5.39 6.60,-7.81 6.17,-7.32 5.74,-6.83 5.89,-7.16 6.04,-7.50 6.27,-7.78 6.49,-8.07 6.78,-8.30 7.07,-8.53 7.40,-8.68 7.73,-8.83 8.09,-8.90 8.45,-8.97 8.82,-8.94 9.19,-8.92 9.54,-8.82 9.89,-8.71 10.20,-8.52 10.51,-8.33 10.77,-8.07 11.03,-7.81 11.23,-7.50 11.42,-7.19 11.53,-6.84 11.64,-6.49 11.66,-6.12 11.68,-5.76 11.62,-5.40 11.55,-5.04 12.26,-1.98 12.96,1.06 15.15,1.18 17.34,1.30 20.33,-1.55 23.32,-4.41 24.97,-6.26 26.63,-8.10 26.88,-8.37 27.14,-8.64 27.45,-8.84 27.76,-9.04 28.11,-9.16 28.46,-9.28 28.83,-9.31 29.20,-9.35 29.56,-9.29 29.93,-9.23 30.27,-9.09 30.61,-8.95 30.91,-8.73 31.21,-8.51 31.44,-8.22 31.68,-7.94 31.84,-7.61 32.00,-7.27 32.08,-6.91 32.15,-6.55 32.14,-6.18 32.13,-5.81 32.03,-5.45 31.93,-5.10 31.75,-4.77 31.56,-4.45 32.38,-2.18 33.20,0.09 34.15,2.99 35.10,5.89 37.65,5.16 40.21,4.42 42.04,1.92 43.88,-0.56 43.94,-2.23 44.01,-3.90 44.14,-4.21 44.27,-4.52 44.46,-4.79 44.66,-5.07 44.92,-5.28 45.17,-5.50 45.47,-5.65 45.77,-5.79 46.10,-5.87 46.43,-5.94 46.76,-5.93 47.10,-5.92 47.42,-5.83 47.75,-5.74 48.04,-5.58 48.33,-5.42 48.58,-5.19 48.82,-4.96 49.01,-4.68 49.19,-4.40 49.30,-4.08 49.41,-3.76 49.44,-3.43 49.47,-3.10 49.42,-2.77 49.38,-2.43 49.48,-0.05 49.58,2.33 50.00,5.68 50.42,9.03 51.23,10.21 52.05,11.39 52.09,11.70 52.12,12.02 52.08,12.33 52.04,12.65 51.92,12.94 51.81,13.24 51.63,13.50 51.44,13.75 51.21,13.96 50.97,14.17 50.69,14.31 50.40,14.46 50.10,14.53 49.79,14.61 49.47,14.60 49.15,14.60 48.85,14.52 48.54,14.44 48.26,14.29 47.98,14.14 47.75,13.93 47.51,13.72 47.34,13.46 47.16,13.19 47.05,12.90 46.94,12.60 48.10,10.99 49.26,9.38 49.69,9.41 50.11,9.44 50.50,9.61 50.89,9.77 51.21,10.05 51.53,10.33 51.74,10.70 51.95,11.07 52.04,11.49 52.12,11.91 52.07,12.33 52.01,12.75 51.83,13.13 51.64,13.51 51.34,13.81 51.04,14.12 50.66,14.31 50.28,14.50 49.86,14.56 49.44,14.62 49.02,14.54 48.61,14.47 48.24,14.26 47.86,14.05 47.58,13.74 47.29,13.43 47.12,13.04 46.95,12.65 46.91,12.22 46.88,11.80 46.98,11.39 47.07,10.97 47.30,10.61 47.53,10.25 47.86,9.99 48.19,9.72 48.58,9.57 48.98,9.42 49.41,9.40 49.83,9.39 50.24,9.51 50.65,9.63 50.99,9.88 51.34,10.12 51.59,10.47 51.84,10.81 51.97,11.22 52.10,11.62 52.09,12.05 52.08,12.47 51.93,12.87 51.79,13.27 51.53,13.60 51.26,13.94 50.91,14.17 50.55,14.40 51.30,12.90 52.05,11.39 52.09,11.70 52.12,12.02 52.08,12.33 52.04,12.65 51.92,12.94 51.81,13.24 51.63,13.50 51.44,13.75 51.21,13.96 50.97,14.17 50.69,14.31 50.40,14.46 50.10,14.53 49.79,14.61 49.47,14.60 49.15,14.60 48.85,14.52 48.54,14.44 48.26,14.29 47.98,14.14 47.75,13.93 47.51,13.72 47.34,13.46 47.16,13.19 47.05,12.90 46.94,12.60 45.14,11.68 43.34,10.76 42.91,8.56 42.48,6.35 42.57,4.18 42.67,2.02 43.34,-0.94 44.01,-3.90 44.14,-4.21 44.27,-4.52 44.46,-4.79 44.66,-5.07 44.92,-5.28 45.17,-5.50 45.47,-5.65 45.77,-5.79 46.10,-5.87 46.43,-5.94 46.76,-5.93 47.10,-5.92 47.42,-5.83 47.75,-5.74 48.04,-5.58 48.33,-5.42 48.58,-5.19 48.82,-4.96 49.01,-4.68 49.19,-4.40 49.30,-4.08 49.41,-3.76 49.44,-3.43 49.47,-3.10 49.42,-2.77 49.38,-2.43 48.99,-0.36 48.61,1.71 47.45,3.85 46.29,5.99 44.28,7.61 42.26,9.24 39.45,10.35 36.64,11.47 33.98,10.95 31.32,10.42 29.44,8.11 27.57,5.80 27.04,1.21 26.50,-3.37 26.56,-5.74 26.63,-8.10 26.88,-8.37 27.14,-8.64 27.45,-8.84 27.76,-9.04 28.11,-9.16 28.46,-9.28 28.83,-9.31 29.20,-9.35 29.56,-9.29 29.93,-9.23 30.27,-9.09 30.61,-8.95 30.91,-8.73 31.20,-8.51 31.44,-8.22 31.68,-7.94 31.84,-7.61 32.00,-7.27 32.08,-6.91 32.15,-6.55 32.14,-6.18 32.13,-5.81 32.03,-5.45 31.93,-5.10 31.75,-4.77 31.56,-4.45 29.81,-2.37 28.06,-0.29 26.27,1.71 24.49,3.72 22.19,5.44 19.89,7.15 17.11,8.06 14.34,8.96 11.88,8.04 9.42,7.12 8.03,4.83 6.63,2.53 6.13,0.10 5.63,-2.32 5.69,-4.58 5.74,-6.83 5.89,-7.16 6.04,-7.50 6.27,-7.78 6.49,-8.07 6.78,-8.30 7.07,-8.53 7.40,-8.68 7.73,-8.83 8.09,-8.90 8.45,-8.97 8.82,-8.94 9.19,-8.92 9.54,-8.82 9.89,-8.71 10.20,-8.52 10.51,-8.33 10.77,-8.07 11.03,-7.81 11.23,-7.50 11.42,-7.19 11.53,-6.84 11.64,-6.49 11.66,-6.12 11.68,-5.76 11.62,-5.40 11.55,-5.04 10.72,-3.31 9.89,-1.57 9.22,1.07 8.54,3.73 7.73,6.07 6.92,8.41 5.96,10.53 4.99,12.64 2.41,14.75 -0.17,16.86 -2.49,14.36 -4.80,11.86 -4.64,9.22 -4.48,6.58 -3.82,2.97 -3.16,-0.63 -3.04,-1.00 -2.92,-1.37 -2.71,-1.70 -2.50,-2.03 -2.22,-2.30 -1.94,-2.57 -1.61,-2.76 -1.27,-2.96 -0.90,-3.07 -0.53,-3.18 -0.14,-3.20 0.24,-3.21 0.62,-3.14 1.01,-3.06 1.36,-2.90 1.71,-2.73 2.01,-2.49 2.31,-2.24 2.55,-1.93 2.78,-1.62 2.94,-1.26 3.09,-0.91 3.16,-0.52 3.22,-0.14 3.19,0.24 3.16,0.63 3.16,0.63 L 3.16,0.63 Z"></path></g><g transform="translate(819 322) rotate(0 2.25 1.5)" stroke="none"><path fill="#1e1e1e" d="M 2.65,-1.83 Q 2.65,-1.83 4.65,1.58 6.65,5.00 6.84,5.38 7.02,5.77 7.07,6.19 7.12,6.61 7.03,7.03 6.94,7.44 6.73,7.81 6.51,8.18 6.19,8.45 5.87,8.73 5.48,8.89 5.08,9.05 4.66,9.08 4.24,9.11 3.83,9.00 3.42,8.89 3.06,8.65 2.71,8.42 2.45,8.08 2.19,7.75 2.05,7.35 1.91,6.94 1.90,6.52 1.90,6.09 2.03,5.69 2.16,5.29 2.42,4.95 2.67,4.61 3.02,4.36 3.37,4.12 3.78,4.00 4.19,3.89 4.61,3.91 5.04,3.92 5.43,4.08 5.83,4.23 6.15,4.50 6.48,4.78 6.70,5.14 6.93,5.50 7.02,5.91 7.12,6.33 7.07,6.75 7.03,7.17 6.86,7.56 6.68,7.95 6.39,8.26 6.10,8.57 5.73,8.77 5.36,8.98 4.94,9.05 4.52,9.12 4.10,9.06 3.68,8.99 3.30,8.80 2.93,8.60 2.63,8.30 2.33,7.99 2.34,7.99 2.34,7.99 -0.15,4.91 -2.65,1.83 -2.83,1.49 -3.01,1.14 -3.11,0.77 -3.20,0.39 -3.20,0.00 -3.20,-0.38 -3.11,-0.76 -3.01,-1.14 -2.83,-1.48 -2.65,-1.83 -2.40,-2.12 -2.14,-2.41 -1.82,-2.63 -1.50,-2.85 -1.14,-2.99 -0.77,-3.13 -0.39,-3.18 -0.00,-3.22 0.38,-3.18 0.76,-3.13 1.13,-2.99 1.49,-2.86 1.81,-2.63 2.13,-2.41 2.39,-2.12 2.65,-1.83 2.65,-1.83 L 2.65,-1.83 Z"></path></g><g transform="translate(835 356.5) rotate(0 8.5 -9.5)" stroke="none"><path fill="#1e1e1e" d="M -3.22,-0.13 Q -3.22,-0.13 -3.02,-3.58 -2.81,-7.04 -1.86,-10.88 -0.91,-14.71 1.14,-17.65 3.21,-20.60 6.13,-20.40 9.04,-20.21 10.32,-18.08 11.59,-15.96 12.38,-13.31 13.17,-10.66 14.01,-8.25 14.85,-5.84 17.03,-2.66 19.21,0.50 19.48,0.83 19.75,1.15 19.91,1.55 20.06,1.94 20.08,2.37 20.10,2.79 19.99,3.20 19.87,3.61 19.63,3.96 19.39,4.31 19.05,4.57 18.71,4.82 18.31,4.96 17.91,5.09 17.48,5.09 17.06,5.08 16.65,4.95 16.25,4.81 15.92,4.55 15.58,4.29 15.34,3.94 15.11,3.58 14.99,3.17 14.88,2.76 14.91,2.34 14.93,1.92 15.09,1.52 15.25,1.13 15.53,0.81 15.81,0.48 16.17,0.27 16.54,0.05 16.95,-0.03 17.37,-0.12 17.79,-0.07 18.21,-0.02 18.60,0.15 18.98,0.33 19.29,0.62 19.59,0.92 19.79,1.29 19.99,1.67 20.06,2.09 20.12,2.51 20.05,2.93 19.98,3.35 19.78,3.72 19.58,4.10 19.27,4.39 18.96,4.68 18.57,4.85 18.18,5.03 17.76,5.07 17.34,5.12 16.92,5.02 16.51,4.93 16.15,4.71 15.78,4.49 15.78,4.49 15.78,4.49 13.67,2.66 11.56,0.82 10.04,-1.36 8.51,-3.55 7.57,-6.14 6.63,-8.74 5.91,-10.87 5.18,-12.99 4.29,-9.87 3.39,-6.75 3.30,-3.31 3.22,0.13 3.16,0.51 3.09,0.90 2.94,1.26 2.79,1.61 2.55,1.92 2.32,2.23 2.02,2.48 1.72,2.73 1.36,2.89 1.01,3.06 0.63,3.14 0.25,3.21 -0.13,3.20 -0.52,3.18 -0.89,3.07 -1.26,2.96 -1.60,2.77 -1.94,2.57 -2.22,2.30 -2.50,2.03 -2.71,1.70 -2.91,1.37 -3.04,1.01 -3.16,0.64 -3.19,0.25 -3.22,-0.13 -3.22,-0.13 L -3.22,-0.13 Z"></path></g><g transform="translate(865.5 348) rotate(0 13.25 -3)" stroke="none"><path fill="#1e1e1e" d="M -1.50,-2.85 Q -1.50,-2.85 1.23,-4.28 3.96,-5.70 6.03,-7.34 8.10,-8.97 9.58,-11.06 11.05,-13.14 7.52,-11.77 3.98,-10.40 2.36,-7.52 0.74,-4.65 0.48,-1.95 0.21,0.74 1.98,2.55 3.74,4.36 6.78,5.52 9.82,6.68 13.97,6.98 18.12,7.28 21.08,6.84 24.04,6.41 27.62,5.45 31.19,4.50 31.61,4.43 32.03,4.37 32.45,4.44 32.86,4.52 33.24,4.72 33.61,4.92 33.90,5.24 34.19,5.55 34.36,5.94 34.53,6.32 34.58,6.75 34.62,7.17 34.52,7.58 34.42,8.00 34.20,8.36 33.98,8.72 33.65,8.99 33.32,9.26 32.92,9.41 32.53,9.57 32.10,9.58 31.68,9.60 31.27,9.48 30.86,9.36 30.51,9.12 30.16,8.88 29.91,8.54 29.66,8.20 29.53,7.79 29.40,7.39 29.40,6.96 29.41,6.54 29.55,6.14 29.69,5.74 29.95,5.40 30.21,5.07 30.57,4.83 30.92,4.60 31.33,4.49 31.74,4.38 32.17,4.41 32.59,4.44 32.99,4.60 33.38,4.76 33.70,5.04 34.02,5.32 34.23,5.69 34.45,6.05 34.53,6.47 34.62,6.89 34.57,7.31 34.52,7.73 34.33,8.11 34.15,8.50 33.85,8.80 33.56,9.11 33.18,9.30 32.80,9.49 32.80,9.49 32.80,9.49 28.97,10.93 25.14,12.37 21.46,13.14 17.79,13.91 12.41,13.66 7.04,13.42 2.55,11.27 -1.93,9.13 -4.34,5.18 -6.76,1.24 -6.04,-3.49 -5.31,-8.24 -2.59,-12.06 0.13,-15.88 3.76,-17.85 7.40,-19.82 10.44,-19.24 13.48,-18.66 15.15,-16.16 16.83,-13.67 16.27,-10.81 15.71,-7.95 13.88,-5.88 12.06,-3.81 9.51,-1.93 6.96,-0.04 4.23,1.40 1.50,2.85 1.13,2.99 0.77,3.13 0.38,3.18 0.00,3.22 -0.38,3.18 -0.76,3.13 -1.13,2.99 -1.49,2.86 -1.81,2.63 -2.13,2.41 -2.39,2.12 -2.65,1.83 -2.83,1.49 -3.01,1.14 -3.11,0.77 -3.20,0.39 -3.20,0.00 -3.20,-0.38 -3.11,-0.76 -3.01,-1.14 -2.83,-1.48 -2.65,-1.83 -2.40,-2.12 -2.14,-2.41 -1.82,-2.63 -1.50,-2.85 -1.50,-2.85 L -1.50,-2.85 Z"></path></g></svg>